%TF.GenerationSoftware,KiCad,Pcbnew,(5.1.9)-1*%
%TF.CreationDate,2022-03-01T01:02:47+08:00*%
%TF.ProjectId,LED,4c45442e-6b69-4636-9164-5f7063625858,rev?*%
%TF.SameCoordinates,Original*%
%TF.FileFunction,Legend,Top*%
%TF.FilePolarity,Positive*%
%FSLAX46Y46*%
G04 Gerber Fmt 4.6, Leading zero omitted, Abs format (unit mm)*
G04 Created by KiCad (PCBNEW (5.1.9)-1) date 2022-03-01 01:02:47*
%MOMM*%
%LPD*%
G01*
G04 APERTURE LIST*
%ADD10C,0.120000*%
%ADD11C,0.150000*%
G04 APERTURE END LIST*
D10*
%TO.C,SW1*%
X183840000Y-97000000D02*
X183840000Y-98000000D01*
X184340000Y-97500000D02*
X183840000Y-97000000D01*
X183840000Y-98000000D02*
X184340000Y-97500000D01*
X189060000Y-91090000D02*
X188750000Y-91090000D01*
X189060000Y-99910000D02*
X188750000Y-99910000D01*
X184850000Y-99910000D02*
X184540000Y-99910000D01*
X189060000Y-91090000D02*
X189060000Y-99910000D01*
X184540000Y-91090000D02*
X184850000Y-91090000D01*
X184540000Y-99910000D02*
X184540000Y-91090000D01*
%TO.C,R3*%
X174135000Y-97772936D02*
X174135000Y-98227064D01*
X172665000Y-97772936D02*
X172665000Y-98227064D01*
%TO.C,R2*%
X174135000Y-104672936D02*
X174135000Y-105127064D01*
X172665000Y-104672936D02*
X172665000Y-105127064D01*
%TO.C,R1*%
X174135000Y-90272936D02*
X174135000Y-90727064D01*
X172665000Y-90272936D02*
X172665000Y-90727064D01*
%TO.C,J1*%
X183560000Y-86860000D02*
X183560000Y-80890000D01*
X183560000Y-80890000D02*
X175940000Y-80890000D01*
X175940000Y-80890000D02*
X175940000Y-86860000D01*
X175940000Y-86860000D02*
X183560000Y-86860000D01*
X180250000Y-86850000D02*
X180250000Y-86100000D01*
X180250000Y-86100000D02*
X179250000Y-86100000D01*
X179250000Y-86100000D02*
X179250000Y-86850000D01*
X179250000Y-86850000D02*
X180250000Y-86850000D01*
X183550000Y-86850000D02*
X183550000Y-86100000D01*
X183550000Y-86100000D02*
X181750000Y-86100000D01*
X181750000Y-86100000D02*
X181750000Y-86850000D01*
X181750000Y-86850000D02*
X183550000Y-86850000D01*
X177750000Y-86850000D02*
X177750000Y-86100000D01*
X177750000Y-86100000D02*
X175950000Y-86100000D01*
X175950000Y-86100000D02*
X175950000Y-86850000D01*
X175950000Y-86850000D02*
X177750000Y-86850000D01*
X183550000Y-84600000D02*
X182800000Y-84600000D01*
X182800000Y-84600000D02*
X182800000Y-83260000D01*
X179750000Y-81650000D02*
X181740000Y-81650000D01*
X175950000Y-84600000D02*
X176700000Y-84600000D01*
X176700000Y-84600000D02*
X176700000Y-81650000D01*
X176700000Y-81650000D02*
X179750000Y-81650000D01*
X182600000Y-87150000D02*
X183850000Y-87150000D01*
X183850000Y-87150000D02*
X183850000Y-85900000D01*
%TO.C,SW1*%
D11*
X184214761Y-94843333D02*
X184262380Y-94700476D01*
X184262380Y-94462380D01*
X184214761Y-94367142D01*
X184167142Y-94319523D01*
X184071904Y-94271904D01*
X183976666Y-94271904D01*
X183881428Y-94319523D01*
X183833809Y-94367142D01*
X183786190Y-94462380D01*
X183738571Y-94652857D01*
X183690952Y-94748095D01*
X183643333Y-94795714D01*
X183548095Y-94843333D01*
X183452857Y-94843333D01*
X183357619Y-94795714D01*
X183310000Y-94748095D01*
X183262380Y-94652857D01*
X183262380Y-94414761D01*
X183310000Y-94271904D01*
X183262380Y-93938571D02*
X184262380Y-93700476D01*
X183548095Y-93510000D01*
X184262380Y-93319523D01*
X183262380Y-93081428D01*
X184262380Y-92176666D02*
X184262380Y-92748095D01*
X184262380Y-92462380D02*
X183262380Y-92462380D01*
X183405238Y-92557619D01*
X183500476Y-92652857D01*
X183548095Y-92748095D01*
%TO.C,R3*%
X175502380Y-98166666D02*
X175026190Y-98500000D01*
X175502380Y-98738095D02*
X174502380Y-98738095D01*
X174502380Y-98357142D01*
X174550000Y-98261904D01*
X174597619Y-98214285D01*
X174692857Y-98166666D01*
X174835714Y-98166666D01*
X174930952Y-98214285D01*
X174978571Y-98261904D01*
X175026190Y-98357142D01*
X175026190Y-98738095D01*
X174502380Y-97833333D02*
X174502380Y-97214285D01*
X174883333Y-97547619D01*
X174883333Y-97404761D01*
X174930952Y-97309523D01*
X174978571Y-97261904D01*
X175073809Y-97214285D01*
X175311904Y-97214285D01*
X175407142Y-97261904D01*
X175454761Y-97309523D01*
X175502380Y-97404761D01*
X175502380Y-97690476D01*
X175454761Y-97785714D01*
X175407142Y-97833333D01*
%TO.C,R2*%
X175502380Y-105066666D02*
X175026190Y-105400000D01*
X175502380Y-105638095D02*
X174502380Y-105638095D01*
X174502380Y-105257142D01*
X174550000Y-105161904D01*
X174597619Y-105114285D01*
X174692857Y-105066666D01*
X174835714Y-105066666D01*
X174930952Y-105114285D01*
X174978571Y-105161904D01*
X175026190Y-105257142D01*
X175026190Y-105638095D01*
X174597619Y-104685714D02*
X174550000Y-104638095D01*
X174502380Y-104542857D01*
X174502380Y-104304761D01*
X174550000Y-104209523D01*
X174597619Y-104161904D01*
X174692857Y-104114285D01*
X174788095Y-104114285D01*
X174930952Y-104161904D01*
X175502380Y-104733333D01*
X175502380Y-104114285D01*
%TO.C,R1*%
X175502380Y-90666666D02*
X175026190Y-91000000D01*
X175502380Y-91238095D02*
X174502380Y-91238095D01*
X174502380Y-90857142D01*
X174550000Y-90761904D01*
X174597619Y-90714285D01*
X174692857Y-90666666D01*
X174835714Y-90666666D01*
X174930952Y-90714285D01*
X174978571Y-90761904D01*
X175026190Y-90857142D01*
X175026190Y-91238095D01*
X175502380Y-89714285D02*
X175502380Y-90285714D01*
X175502380Y-90000000D02*
X174502380Y-90000000D01*
X174645238Y-90095238D01*
X174740476Y-90190476D01*
X174788095Y-90285714D01*
%TO.C,J1*%
X179416666Y-87402380D02*
X179416666Y-88116666D01*
X179369047Y-88259523D01*
X179273809Y-88354761D01*
X179130952Y-88402380D01*
X179035714Y-88402380D01*
X180416666Y-88402380D02*
X179845238Y-88402380D01*
X180130952Y-88402380D02*
X180130952Y-87402380D01*
X180035714Y-87545238D01*
X179940476Y-87640476D01*
X179845238Y-87688095D01*
%TD*%
M02*
