%TF.GenerationSoftware,KiCad,Pcbnew,(5.1.9)-1*%
%TF.CreationDate,2022-03-01T01:02:47+08:00*%
%TF.ProjectId,LED,4c45442e-6b69-4636-9164-5f7063625858,rev?*%
%TF.SameCoordinates,Original*%
%TF.FileFunction,Copper,L1,Top*%
%TF.FilePolarity,Positive*%
%FSLAX46Y46*%
G04 Gerber Fmt 4.6, Leading zero omitted, Abs format (unit mm)*
G04 Created by KiCad (PCBNEW (5.1.9)-1) date 2022-03-01 01:02:47*
%MOMM*%
%LPD*%
G01*
G04 APERTURE LIST*
%TA.AperFunction,ComponentPad*%
%ADD10O,3.000000X2.000000*%
%TD*%
%TA.AperFunction,ComponentPad*%
%ADD11O,2.500000X1.500000*%
%TD*%
%TA.AperFunction,ComponentPad*%
%ADD12R,2.500000X1.500000*%
%TD*%
%TA.AperFunction,ComponentPad*%
%ADD13O,1.700000X2.000000*%
%TD*%
%TA.AperFunction,ComponentPad*%
%ADD14C,1.800000*%
%TD*%
%TA.AperFunction,ComponentPad*%
%ADD15R,1.800000X1.800000*%
%TD*%
%TA.AperFunction,Conductor*%
%ADD16C,1.400000*%
%TD*%
%TA.AperFunction,Conductor*%
%ADD17C,0.254000*%
%TD*%
%TA.AperFunction,Conductor*%
%ADD18C,0.100000*%
%TD*%
G04 APERTURE END LIST*
D10*
%TO.P,SW1,*%
%TO.N,*%
X186800000Y-91400000D03*
X186800000Y-99600000D03*
D11*
%TO.P,SW1,3*%
%TO.N,Net-(J1-Pad1)*%
X186800000Y-93500000D03*
%TO.P,SW1,2*%
%TO.N,Net-(R1-Pad1)*%
X186800000Y-95500000D03*
D12*
%TO.P,SW1,1*%
%TO.N,Net-(SW1-Pad1)*%
X186800000Y-97500000D03*
%TD*%
%TO.P,R3,2*%
%TO.N,Net-(D3-Pad2)*%
%TA.AperFunction,SMDPad,CuDef*%
G36*
G01*
X172949999Y-98400000D02*
X173850001Y-98400000D01*
G75*
G02*
X174100000Y-98649999I0J-249999D01*
G01*
X174100000Y-99175001D01*
G75*
G02*
X173850001Y-99425000I-249999J0D01*
G01*
X172949999Y-99425000D01*
G75*
G02*
X172700000Y-99175001I0J249999D01*
G01*
X172700000Y-98649999D01*
G75*
G02*
X172949999Y-98400000I249999J0D01*
G01*
G37*
%TD.AperFunction*%
%TO.P,R3,1*%
%TO.N,Net-(R1-Pad1)*%
%TA.AperFunction,SMDPad,CuDef*%
G36*
G01*
X172949999Y-96575000D02*
X173850001Y-96575000D01*
G75*
G02*
X174100000Y-96824999I0J-249999D01*
G01*
X174100000Y-97350001D01*
G75*
G02*
X173850001Y-97600000I-249999J0D01*
G01*
X172949999Y-97600000D01*
G75*
G02*
X172700000Y-97350001I0J249999D01*
G01*
X172700000Y-96824999D01*
G75*
G02*
X172949999Y-96575000I249999J0D01*
G01*
G37*
%TD.AperFunction*%
%TD*%
%TO.P,R2,2*%
%TO.N,Net-(D2-Pad2)*%
%TA.AperFunction,SMDPad,CuDef*%
G36*
G01*
X172949999Y-105300000D02*
X173850001Y-105300000D01*
G75*
G02*
X174100000Y-105549999I0J-249999D01*
G01*
X174100000Y-106075001D01*
G75*
G02*
X173850001Y-106325000I-249999J0D01*
G01*
X172949999Y-106325000D01*
G75*
G02*
X172700000Y-106075001I0J249999D01*
G01*
X172700000Y-105549999D01*
G75*
G02*
X172949999Y-105300000I249999J0D01*
G01*
G37*
%TD.AperFunction*%
%TO.P,R2,1*%
%TO.N,Net-(R1-Pad1)*%
%TA.AperFunction,SMDPad,CuDef*%
G36*
G01*
X172949999Y-103475000D02*
X173850001Y-103475000D01*
G75*
G02*
X174100000Y-103724999I0J-249999D01*
G01*
X174100000Y-104250001D01*
G75*
G02*
X173850001Y-104500000I-249999J0D01*
G01*
X172949999Y-104500000D01*
G75*
G02*
X172700000Y-104250001I0J249999D01*
G01*
X172700000Y-103724999D01*
G75*
G02*
X172949999Y-103475000I249999J0D01*
G01*
G37*
%TD.AperFunction*%
%TD*%
%TO.P,R1,2*%
%TO.N,Net-(D1-Pad2)*%
%TA.AperFunction,SMDPad,CuDef*%
G36*
G01*
X172949999Y-90900000D02*
X173850001Y-90900000D01*
G75*
G02*
X174100000Y-91149999I0J-249999D01*
G01*
X174100000Y-91675001D01*
G75*
G02*
X173850001Y-91925000I-249999J0D01*
G01*
X172949999Y-91925000D01*
G75*
G02*
X172700000Y-91675001I0J249999D01*
G01*
X172700000Y-91149999D01*
G75*
G02*
X172949999Y-90900000I249999J0D01*
G01*
G37*
%TD.AperFunction*%
%TO.P,R1,1*%
%TO.N,Net-(R1-Pad1)*%
%TA.AperFunction,SMDPad,CuDef*%
G36*
G01*
X172949999Y-89075000D02*
X173850001Y-89075000D01*
G75*
G02*
X174100000Y-89324999I0J-249999D01*
G01*
X174100000Y-89850001D01*
G75*
G02*
X173850001Y-90100000I-249999J0D01*
G01*
X172949999Y-90100000D01*
G75*
G02*
X172700000Y-89850001I0J249999D01*
G01*
X172700000Y-89324999D01*
G75*
G02*
X172949999Y-89075000I249999J0D01*
G01*
G37*
%TD.AperFunction*%
%TD*%
D13*
%TO.P,J1,2*%
%TO.N,Net-(D1-Pad1)*%
X178500000Y-84400000D03*
%TO.P,J1,1*%
%TO.N,Net-(J1-Pad1)*%
%TA.AperFunction,ComponentPad*%
G36*
G01*
X181850000Y-83650000D02*
X181850000Y-85150000D01*
G75*
G02*
X181600000Y-85400000I-250000J0D01*
G01*
X180400000Y-85400000D01*
G75*
G02*
X180150000Y-85150000I0J250000D01*
G01*
X180150000Y-83650000D01*
G75*
G02*
X180400000Y-83400000I250000J0D01*
G01*
X181600000Y-83400000D01*
G75*
G02*
X181850000Y-83650000I0J-250000D01*
G01*
G37*
%TD.AperFunction*%
%TD*%
D14*
%TO.P,D3,2*%
%TO.N,Net-(D3-Pad2)*%
X181015000Y-101300000D03*
D15*
%TO.P,D3,1*%
%TO.N,Net-(D1-Pad1)*%
X178475000Y-101300000D03*
%TD*%
D14*
%TO.P,D2,2*%
%TO.N,Net-(D2-Pad2)*%
X181015000Y-108200000D03*
D15*
%TO.P,D2,1*%
%TO.N,Net-(D1-Pad1)*%
X178475000Y-108200000D03*
%TD*%
D14*
%TO.P,D1,2*%
%TO.N,Net-(D1-Pad2)*%
X181015000Y-93400000D03*
D15*
%TO.P,D1,1*%
%TO.N,Net-(D1-Pad1)*%
X178475000Y-93400000D03*
%TD*%
D16*
%TO.N,Net-(D1-Pad2)*%
X181015000Y-92651398D02*
X181015000Y-93400000D01*
X179776102Y-91412500D02*
X181015000Y-92651398D01*
X173400000Y-91412500D02*
X179776102Y-91412500D01*
%TO.N,Net-(D2-Pad2)*%
X181015000Y-107451398D02*
X181015000Y-108200000D01*
X179376102Y-105812500D02*
X181015000Y-107451398D01*
X173400000Y-105812500D02*
X179376102Y-105812500D01*
%TO.N,Net-(D3-Pad2)*%
X181015000Y-100027208D02*
X181015000Y-101300000D01*
X179900292Y-98912500D02*
X181015000Y-100027208D01*
X173400000Y-98912500D02*
X179900292Y-98912500D01*
%TO.N,Net-(J1-Pad1)*%
X185816218Y-93500000D02*
X186800000Y-93500000D01*
X181000000Y-88683782D02*
X185816218Y-93500000D01*
X181000000Y-84400000D02*
X181000000Y-88683782D01*
%TD*%
D17*
%TO.N,Net-(R1-Pad1)*%
X188840000Y-90844298D02*
X188817852Y-90771285D01*
X188666031Y-90487248D01*
X188461714Y-90238286D01*
X188212752Y-90033969D01*
X187928715Y-89882148D01*
X187620516Y-89788657D01*
X187380322Y-89765000D01*
X186219678Y-89765000D01*
X185979484Y-89788657D01*
X185671285Y-89882148D01*
X185387248Y-90033969D01*
X185138286Y-90238286D01*
X184933969Y-90487248D01*
X184849490Y-90645297D01*
X182335000Y-88130808D01*
X182335000Y-85647535D01*
X182338405Y-85643386D01*
X182420472Y-85489850D01*
X182471008Y-85323254D01*
X182488072Y-85150000D01*
X182488072Y-83650000D01*
X182486595Y-83635000D01*
X182721637Y-83635000D01*
X182960236Y-83587540D01*
X183184992Y-83494443D01*
X183387267Y-83359287D01*
X183559287Y-83187267D01*
X183694443Y-82984992D01*
X183787540Y-82760236D01*
X183835000Y-82521637D01*
X183835000Y-82278363D01*
X183787540Y-82039764D01*
X183694443Y-81815008D01*
X183559287Y-81612733D01*
X183387267Y-81440713D01*
X183184992Y-81305557D01*
X182960236Y-81212460D01*
X182721637Y-81165000D01*
X182478363Y-81165000D01*
X182239764Y-81212460D01*
X182015008Y-81305557D01*
X181812733Y-81440713D01*
X181640713Y-81612733D01*
X181505557Y-81815008D01*
X181412460Y-82039764D01*
X181365000Y-82278363D01*
X181365000Y-82521637D01*
X181412460Y-82760236D01*
X181413161Y-82761928D01*
X180400000Y-82761928D01*
X180226746Y-82778992D01*
X180060150Y-82829528D01*
X179906614Y-82911595D01*
X179772038Y-83022038D01*
X179661595Y-83156614D01*
X179607223Y-83258337D01*
X179555134Y-83194866D01*
X179329014Y-83009294D01*
X179071034Y-82871401D01*
X178791111Y-82786487D01*
X178500000Y-82757815D01*
X178208890Y-82786487D01*
X177928967Y-82871401D01*
X177670987Y-83009294D01*
X177444866Y-83194866D01*
X177259294Y-83420986D01*
X177121401Y-83678966D01*
X177036487Y-83958889D01*
X177015000Y-84177050D01*
X177015000Y-84622949D01*
X177036487Y-84841110D01*
X177121401Y-85121033D01*
X177259294Y-85379013D01*
X177444866Y-85605134D01*
X177670986Y-85790706D01*
X177928966Y-85928599D01*
X178208889Y-86013513D01*
X178500000Y-86042185D01*
X178791110Y-86013513D01*
X179071033Y-85928599D01*
X179329013Y-85790706D01*
X179555134Y-85605134D01*
X179607223Y-85541663D01*
X179661595Y-85643386D01*
X179665000Y-85647535D01*
X179665001Y-88618194D01*
X179658541Y-88683782D01*
X179684317Y-88945487D01*
X179760654Y-89197136D01*
X179884619Y-89429057D01*
X180051446Y-89632337D01*
X180102387Y-89674143D01*
X184825861Y-94397619D01*
X184867663Y-94448555D01*
X185070943Y-94615382D01*
X185302864Y-94739347D01*
X185455882Y-94785764D01*
X185554512Y-94815683D01*
X185816218Y-94841459D01*
X185881797Y-94835000D01*
X185929728Y-94835000D01*
X186028493Y-94864960D01*
X186231963Y-94885000D01*
X187368037Y-94885000D01*
X187571507Y-94864960D01*
X187832581Y-94785764D01*
X188073188Y-94657157D01*
X188284081Y-94484081D01*
X188457157Y-94273188D01*
X188585764Y-94032581D01*
X188664960Y-93771507D01*
X188691701Y-93500000D01*
X188664960Y-93228493D01*
X188585764Y-92967419D01*
X188457157Y-92726812D01*
X188378028Y-92630393D01*
X188461714Y-92561714D01*
X188666031Y-92312752D01*
X188817852Y-92028715D01*
X188840000Y-91955701D01*
X188840001Y-99044299D01*
X188817852Y-98971285D01*
X188666031Y-98687248D01*
X188587471Y-98591522D01*
X188639502Y-98494180D01*
X188675812Y-98374482D01*
X188688072Y-98250000D01*
X188688072Y-96750000D01*
X188675812Y-96625518D01*
X188639502Y-96505820D01*
X188580537Y-96395506D01*
X188501185Y-96298815D01*
X188404494Y-96219463D01*
X188294180Y-96160498D01*
X188174482Y-96124188D01*
X188050000Y-96111928D01*
X185550000Y-96111928D01*
X185425518Y-96124188D01*
X185305820Y-96160498D01*
X185195506Y-96219463D01*
X185098815Y-96298815D01*
X185019463Y-96395506D01*
X184960498Y-96505820D01*
X184924188Y-96625518D01*
X184911928Y-96750000D01*
X184911928Y-98250000D01*
X184924188Y-98374482D01*
X184960498Y-98494180D01*
X185012529Y-98591522D01*
X184933969Y-98687248D01*
X184782148Y-98971285D01*
X184688657Y-99279484D01*
X184657089Y-99600000D01*
X184688657Y-99920516D01*
X184782148Y-100228715D01*
X184933969Y-100512752D01*
X185138286Y-100761714D01*
X185387248Y-100966031D01*
X185671285Y-101117852D01*
X185979484Y-101211343D01*
X186219678Y-101235000D01*
X187380322Y-101235000D01*
X187620516Y-101211343D01*
X187928715Y-101117852D01*
X188212752Y-100966031D01*
X188461714Y-100761714D01*
X188666031Y-100512752D01*
X188817852Y-100228715D01*
X188840001Y-100155701D01*
X188840001Y-109840000D01*
X170660000Y-109840000D01*
X170660000Y-105812500D01*
X172058541Y-105812500D01*
X172061928Y-105846889D01*
X172061928Y-106075001D01*
X172078992Y-106248255D01*
X172129528Y-106414851D01*
X172211595Y-106568387D01*
X172322038Y-106702962D01*
X172456613Y-106813405D01*
X172610149Y-106895472D01*
X172618214Y-106897919D01*
X172654725Y-106927882D01*
X172886646Y-107051847D01*
X173138294Y-107128183D01*
X173334421Y-107147500D01*
X176957687Y-107147500D01*
X176949188Y-107175518D01*
X176936928Y-107300000D01*
X176936928Y-109100000D01*
X176949188Y-109224482D01*
X176985498Y-109344180D01*
X177044463Y-109454494D01*
X177123815Y-109551185D01*
X177220506Y-109630537D01*
X177330820Y-109689502D01*
X177450518Y-109725812D01*
X177575000Y-109738072D01*
X179375000Y-109738072D01*
X179499482Y-109725812D01*
X179619180Y-109689502D01*
X179729494Y-109630537D01*
X179826185Y-109551185D01*
X179905537Y-109454494D01*
X179964502Y-109344180D01*
X179970056Y-109325873D01*
X180036495Y-109392312D01*
X180287905Y-109560299D01*
X180567257Y-109676011D01*
X180863816Y-109735000D01*
X181166184Y-109735000D01*
X181462743Y-109676011D01*
X181742095Y-109560299D01*
X181993505Y-109392312D01*
X182207312Y-109178505D01*
X182375299Y-108927095D01*
X182491011Y-108647743D01*
X182550000Y-108351184D01*
X182550000Y-108048816D01*
X182491011Y-107752257D01*
X182375299Y-107472905D01*
X182355686Y-107443553D01*
X182330683Y-107189692D01*
X182317884Y-107147500D01*
X182254347Y-106938044D01*
X182130382Y-106706123D01*
X182094112Y-106661928D01*
X182005359Y-106553781D01*
X182005357Y-106553779D01*
X181963555Y-106502843D01*
X181912620Y-106461042D01*
X180366467Y-104914891D01*
X180324657Y-104863945D01*
X180121377Y-104697118D01*
X179889456Y-104573153D01*
X179637808Y-104496817D01*
X179441681Y-104477500D01*
X179376102Y-104471041D01*
X179310523Y-104477500D01*
X173334421Y-104477500D01*
X173138294Y-104496817D01*
X172886646Y-104573153D01*
X172654725Y-104697118D01*
X172618214Y-104727081D01*
X172610149Y-104729528D01*
X172456613Y-104811595D01*
X172322038Y-104922038D01*
X172211595Y-105056613D01*
X172129528Y-105210149D01*
X172078992Y-105376745D01*
X172061928Y-105549999D01*
X172061928Y-105778111D01*
X172058541Y-105812500D01*
X170660000Y-105812500D01*
X170660000Y-98912500D01*
X172058541Y-98912500D01*
X172061928Y-98946889D01*
X172061928Y-99175001D01*
X172078992Y-99348255D01*
X172129528Y-99514851D01*
X172211595Y-99668387D01*
X172322038Y-99802962D01*
X172456613Y-99913405D01*
X172610149Y-99995472D01*
X172618214Y-99997919D01*
X172654725Y-100027882D01*
X172886646Y-100151847D01*
X173138294Y-100228183D01*
X173334421Y-100247500D01*
X176957687Y-100247500D01*
X176949188Y-100275518D01*
X176936928Y-100400000D01*
X176936928Y-102200000D01*
X176949188Y-102324482D01*
X176985498Y-102444180D01*
X177044463Y-102554494D01*
X177123815Y-102651185D01*
X177220506Y-102730537D01*
X177330820Y-102789502D01*
X177450518Y-102825812D01*
X177575000Y-102838072D01*
X179375000Y-102838072D01*
X179499482Y-102825812D01*
X179619180Y-102789502D01*
X179729494Y-102730537D01*
X179826185Y-102651185D01*
X179905537Y-102554494D01*
X179964502Y-102444180D01*
X179970056Y-102425873D01*
X180036495Y-102492312D01*
X180287905Y-102660299D01*
X180567257Y-102776011D01*
X180863816Y-102835000D01*
X181166184Y-102835000D01*
X181462743Y-102776011D01*
X181742095Y-102660299D01*
X181993505Y-102492312D01*
X182207312Y-102278505D01*
X182375299Y-102027095D01*
X182491011Y-101747743D01*
X182550000Y-101451184D01*
X182550000Y-101148816D01*
X182491011Y-100852257D01*
X182375299Y-100572905D01*
X182350000Y-100535042D01*
X182350000Y-100092786D01*
X182356459Y-100027207D01*
X182330683Y-99765502D01*
X182329599Y-99761928D01*
X182254347Y-99513854D01*
X182130382Y-99281933D01*
X181963555Y-99078653D01*
X181912614Y-99036848D01*
X180890658Y-98014891D01*
X180848847Y-97963945D01*
X180645567Y-97797118D01*
X180413646Y-97673153D01*
X180161998Y-97596817D01*
X179965871Y-97577500D01*
X179900292Y-97571041D01*
X179834713Y-97577500D01*
X173334421Y-97577500D01*
X173138294Y-97596817D01*
X172886646Y-97673153D01*
X172654725Y-97797118D01*
X172618214Y-97827081D01*
X172610149Y-97829528D01*
X172456613Y-97911595D01*
X172322038Y-98022038D01*
X172211595Y-98156613D01*
X172129528Y-98310149D01*
X172078992Y-98476745D01*
X172061928Y-98649999D01*
X172061928Y-98878111D01*
X172058541Y-98912500D01*
X170660000Y-98912500D01*
X170660000Y-91412500D01*
X172058541Y-91412500D01*
X172061928Y-91446889D01*
X172061928Y-91675001D01*
X172078992Y-91848255D01*
X172129528Y-92014851D01*
X172211595Y-92168387D01*
X172322038Y-92302962D01*
X172456613Y-92413405D01*
X172610149Y-92495472D01*
X172618214Y-92497919D01*
X172654725Y-92527882D01*
X172886646Y-92651847D01*
X173138294Y-92728183D01*
X173334421Y-92747500D01*
X176936928Y-92747500D01*
X176936928Y-94300000D01*
X176949188Y-94424482D01*
X176985498Y-94544180D01*
X177044463Y-94654494D01*
X177123815Y-94751185D01*
X177220506Y-94830537D01*
X177330820Y-94889502D01*
X177450518Y-94925812D01*
X177575000Y-94938072D01*
X179375000Y-94938072D01*
X179499482Y-94925812D01*
X179619180Y-94889502D01*
X179729494Y-94830537D01*
X179826185Y-94751185D01*
X179905537Y-94654494D01*
X179964502Y-94544180D01*
X179970056Y-94525873D01*
X180036495Y-94592312D01*
X180287905Y-94760299D01*
X180567257Y-94876011D01*
X180863816Y-94935000D01*
X181166184Y-94935000D01*
X181462743Y-94876011D01*
X181742095Y-94760299D01*
X181993505Y-94592312D01*
X182207312Y-94378505D01*
X182375299Y-94127095D01*
X182491011Y-93847743D01*
X182550000Y-93551184D01*
X182550000Y-93248816D01*
X182491011Y-92952257D01*
X182375299Y-92672905D01*
X182355686Y-92643553D01*
X182350000Y-92585819D01*
X182330683Y-92389692D01*
X182254347Y-92138044D01*
X182130382Y-91906123D01*
X181963555Y-91702843D01*
X181912614Y-91661038D01*
X180766468Y-90514891D01*
X180724657Y-90463945D01*
X180521377Y-90297118D01*
X180289456Y-90173153D01*
X180037808Y-90096817D01*
X179841681Y-90077500D01*
X179776102Y-90071041D01*
X179710523Y-90077500D01*
X173334421Y-90077500D01*
X173138294Y-90096817D01*
X172886646Y-90173153D01*
X172654725Y-90297118D01*
X172618214Y-90327081D01*
X172610149Y-90329528D01*
X172456613Y-90411595D01*
X172322038Y-90522038D01*
X172211595Y-90656613D01*
X172129528Y-90810149D01*
X172078992Y-90976745D01*
X172061928Y-91149999D01*
X172061928Y-91378111D01*
X172058541Y-91412500D01*
X170660000Y-91412500D01*
X170660000Y-80660000D01*
X188840000Y-80660000D01*
X188840000Y-90844298D01*
%TA.AperFunction,Conductor*%
D18*
G36*
X188840000Y-90844298D02*
G01*
X188817852Y-90771285D01*
X188666031Y-90487248D01*
X188461714Y-90238286D01*
X188212752Y-90033969D01*
X187928715Y-89882148D01*
X187620516Y-89788657D01*
X187380322Y-89765000D01*
X186219678Y-89765000D01*
X185979484Y-89788657D01*
X185671285Y-89882148D01*
X185387248Y-90033969D01*
X185138286Y-90238286D01*
X184933969Y-90487248D01*
X184849490Y-90645297D01*
X182335000Y-88130808D01*
X182335000Y-85647535D01*
X182338405Y-85643386D01*
X182420472Y-85489850D01*
X182471008Y-85323254D01*
X182488072Y-85150000D01*
X182488072Y-83650000D01*
X182486595Y-83635000D01*
X182721637Y-83635000D01*
X182960236Y-83587540D01*
X183184992Y-83494443D01*
X183387267Y-83359287D01*
X183559287Y-83187267D01*
X183694443Y-82984992D01*
X183787540Y-82760236D01*
X183835000Y-82521637D01*
X183835000Y-82278363D01*
X183787540Y-82039764D01*
X183694443Y-81815008D01*
X183559287Y-81612733D01*
X183387267Y-81440713D01*
X183184992Y-81305557D01*
X182960236Y-81212460D01*
X182721637Y-81165000D01*
X182478363Y-81165000D01*
X182239764Y-81212460D01*
X182015008Y-81305557D01*
X181812733Y-81440713D01*
X181640713Y-81612733D01*
X181505557Y-81815008D01*
X181412460Y-82039764D01*
X181365000Y-82278363D01*
X181365000Y-82521637D01*
X181412460Y-82760236D01*
X181413161Y-82761928D01*
X180400000Y-82761928D01*
X180226746Y-82778992D01*
X180060150Y-82829528D01*
X179906614Y-82911595D01*
X179772038Y-83022038D01*
X179661595Y-83156614D01*
X179607223Y-83258337D01*
X179555134Y-83194866D01*
X179329014Y-83009294D01*
X179071034Y-82871401D01*
X178791111Y-82786487D01*
X178500000Y-82757815D01*
X178208890Y-82786487D01*
X177928967Y-82871401D01*
X177670987Y-83009294D01*
X177444866Y-83194866D01*
X177259294Y-83420986D01*
X177121401Y-83678966D01*
X177036487Y-83958889D01*
X177015000Y-84177050D01*
X177015000Y-84622949D01*
X177036487Y-84841110D01*
X177121401Y-85121033D01*
X177259294Y-85379013D01*
X177444866Y-85605134D01*
X177670986Y-85790706D01*
X177928966Y-85928599D01*
X178208889Y-86013513D01*
X178500000Y-86042185D01*
X178791110Y-86013513D01*
X179071033Y-85928599D01*
X179329013Y-85790706D01*
X179555134Y-85605134D01*
X179607223Y-85541663D01*
X179661595Y-85643386D01*
X179665000Y-85647535D01*
X179665001Y-88618194D01*
X179658541Y-88683782D01*
X179684317Y-88945487D01*
X179760654Y-89197136D01*
X179884619Y-89429057D01*
X180051446Y-89632337D01*
X180102387Y-89674143D01*
X184825861Y-94397619D01*
X184867663Y-94448555D01*
X185070943Y-94615382D01*
X185302864Y-94739347D01*
X185455882Y-94785764D01*
X185554512Y-94815683D01*
X185816218Y-94841459D01*
X185881797Y-94835000D01*
X185929728Y-94835000D01*
X186028493Y-94864960D01*
X186231963Y-94885000D01*
X187368037Y-94885000D01*
X187571507Y-94864960D01*
X187832581Y-94785764D01*
X188073188Y-94657157D01*
X188284081Y-94484081D01*
X188457157Y-94273188D01*
X188585764Y-94032581D01*
X188664960Y-93771507D01*
X188691701Y-93500000D01*
X188664960Y-93228493D01*
X188585764Y-92967419D01*
X188457157Y-92726812D01*
X188378028Y-92630393D01*
X188461714Y-92561714D01*
X188666031Y-92312752D01*
X188817852Y-92028715D01*
X188840000Y-91955701D01*
X188840001Y-99044299D01*
X188817852Y-98971285D01*
X188666031Y-98687248D01*
X188587471Y-98591522D01*
X188639502Y-98494180D01*
X188675812Y-98374482D01*
X188688072Y-98250000D01*
X188688072Y-96750000D01*
X188675812Y-96625518D01*
X188639502Y-96505820D01*
X188580537Y-96395506D01*
X188501185Y-96298815D01*
X188404494Y-96219463D01*
X188294180Y-96160498D01*
X188174482Y-96124188D01*
X188050000Y-96111928D01*
X185550000Y-96111928D01*
X185425518Y-96124188D01*
X185305820Y-96160498D01*
X185195506Y-96219463D01*
X185098815Y-96298815D01*
X185019463Y-96395506D01*
X184960498Y-96505820D01*
X184924188Y-96625518D01*
X184911928Y-96750000D01*
X184911928Y-98250000D01*
X184924188Y-98374482D01*
X184960498Y-98494180D01*
X185012529Y-98591522D01*
X184933969Y-98687248D01*
X184782148Y-98971285D01*
X184688657Y-99279484D01*
X184657089Y-99600000D01*
X184688657Y-99920516D01*
X184782148Y-100228715D01*
X184933969Y-100512752D01*
X185138286Y-100761714D01*
X185387248Y-100966031D01*
X185671285Y-101117852D01*
X185979484Y-101211343D01*
X186219678Y-101235000D01*
X187380322Y-101235000D01*
X187620516Y-101211343D01*
X187928715Y-101117852D01*
X188212752Y-100966031D01*
X188461714Y-100761714D01*
X188666031Y-100512752D01*
X188817852Y-100228715D01*
X188840001Y-100155701D01*
X188840001Y-109840000D01*
X170660000Y-109840000D01*
X170660000Y-105812500D01*
X172058541Y-105812500D01*
X172061928Y-105846889D01*
X172061928Y-106075001D01*
X172078992Y-106248255D01*
X172129528Y-106414851D01*
X172211595Y-106568387D01*
X172322038Y-106702962D01*
X172456613Y-106813405D01*
X172610149Y-106895472D01*
X172618214Y-106897919D01*
X172654725Y-106927882D01*
X172886646Y-107051847D01*
X173138294Y-107128183D01*
X173334421Y-107147500D01*
X176957687Y-107147500D01*
X176949188Y-107175518D01*
X176936928Y-107300000D01*
X176936928Y-109100000D01*
X176949188Y-109224482D01*
X176985498Y-109344180D01*
X177044463Y-109454494D01*
X177123815Y-109551185D01*
X177220506Y-109630537D01*
X177330820Y-109689502D01*
X177450518Y-109725812D01*
X177575000Y-109738072D01*
X179375000Y-109738072D01*
X179499482Y-109725812D01*
X179619180Y-109689502D01*
X179729494Y-109630537D01*
X179826185Y-109551185D01*
X179905537Y-109454494D01*
X179964502Y-109344180D01*
X179970056Y-109325873D01*
X180036495Y-109392312D01*
X180287905Y-109560299D01*
X180567257Y-109676011D01*
X180863816Y-109735000D01*
X181166184Y-109735000D01*
X181462743Y-109676011D01*
X181742095Y-109560299D01*
X181993505Y-109392312D01*
X182207312Y-109178505D01*
X182375299Y-108927095D01*
X182491011Y-108647743D01*
X182550000Y-108351184D01*
X182550000Y-108048816D01*
X182491011Y-107752257D01*
X182375299Y-107472905D01*
X182355686Y-107443553D01*
X182330683Y-107189692D01*
X182317884Y-107147500D01*
X182254347Y-106938044D01*
X182130382Y-106706123D01*
X182094112Y-106661928D01*
X182005359Y-106553781D01*
X182005357Y-106553779D01*
X181963555Y-106502843D01*
X181912620Y-106461042D01*
X180366467Y-104914891D01*
X180324657Y-104863945D01*
X180121377Y-104697118D01*
X179889456Y-104573153D01*
X179637808Y-104496817D01*
X179441681Y-104477500D01*
X179376102Y-104471041D01*
X179310523Y-104477500D01*
X173334421Y-104477500D01*
X173138294Y-104496817D01*
X172886646Y-104573153D01*
X172654725Y-104697118D01*
X172618214Y-104727081D01*
X172610149Y-104729528D01*
X172456613Y-104811595D01*
X172322038Y-104922038D01*
X172211595Y-105056613D01*
X172129528Y-105210149D01*
X172078992Y-105376745D01*
X172061928Y-105549999D01*
X172061928Y-105778111D01*
X172058541Y-105812500D01*
X170660000Y-105812500D01*
X170660000Y-98912500D01*
X172058541Y-98912500D01*
X172061928Y-98946889D01*
X172061928Y-99175001D01*
X172078992Y-99348255D01*
X172129528Y-99514851D01*
X172211595Y-99668387D01*
X172322038Y-99802962D01*
X172456613Y-99913405D01*
X172610149Y-99995472D01*
X172618214Y-99997919D01*
X172654725Y-100027882D01*
X172886646Y-100151847D01*
X173138294Y-100228183D01*
X173334421Y-100247500D01*
X176957687Y-100247500D01*
X176949188Y-100275518D01*
X176936928Y-100400000D01*
X176936928Y-102200000D01*
X176949188Y-102324482D01*
X176985498Y-102444180D01*
X177044463Y-102554494D01*
X177123815Y-102651185D01*
X177220506Y-102730537D01*
X177330820Y-102789502D01*
X177450518Y-102825812D01*
X177575000Y-102838072D01*
X179375000Y-102838072D01*
X179499482Y-102825812D01*
X179619180Y-102789502D01*
X179729494Y-102730537D01*
X179826185Y-102651185D01*
X179905537Y-102554494D01*
X179964502Y-102444180D01*
X179970056Y-102425873D01*
X180036495Y-102492312D01*
X180287905Y-102660299D01*
X180567257Y-102776011D01*
X180863816Y-102835000D01*
X181166184Y-102835000D01*
X181462743Y-102776011D01*
X181742095Y-102660299D01*
X181993505Y-102492312D01*
X182207312Y-102278505D01*
X182375299Y-102027095D01*
X182491011Y-101747743D01*
X182550000Y-101451184D01*
X182550000Y-101148816D01*
X182491011Y-100852257D01*
X182375299Y-100572905D01*
X182350000Y-100535042D01*
X182350000Y-100092786D01*
X182356459Y-100027207D01*
X182330683Y-99765502D01*
X182329599Y-99761928D01*
X182254347Y-99513854D01*
X182130382Y-99281933D01*
X181963555Y-99078653D01*
X181912614Y-99036848D01*
X180890658Y-98014891D01*
X180848847Y-97963945D01*
X180645567Y-97797118D01*
X180413646Y-97673153D01*
X180161998Y-97596817D01*
X179965871Y-97577500D01*
X179900292Y-97571041D01*
X179834713Y-97577500D01*
X173334421Y-97577500D01*
X173138294Y-97596817D01*
X172886646Y-97673153D01*
X172654725Y-97797118D01*
X172618214Y-97827081D01*
X172610149Y-97829528D01*
X172456613Y-97911595D01*
X172322038Y-98022038D01*
X172211595Y-98156613D01*
X172129528Y-98310149D01*
X172078992Y-98476745D01*
X172061928Y-98649999D01*
X172061928Y-98878111D01*
X172058541Y-98912500D01*
X170660000Y-98912500D01*
X170660000Y-91412500D01*
X172058541Y-91412500D01*
X172061928Y-91446889D01*
X172061928Y-91675001D01*
X172078992Y-91848255D01*
X172129528Y-92014851D01*
X172211595Y-92168387D01*
X172322038Y-92302962D01*
X172456613Y-92413405D01*
X172610149Y-92495472D01*
X172618214Y-92497919D01*
X172654725Y-92527882D01*
X172886646Y-92651847D01*
X173138294Y-92728183D01*
X173334421Y-92747500D01*
X176936928Y-92747500D01*
X176936928Y-94300000D01*
X176949188Y-94424482D01*
X176985498Y-94544180D01*
X177044463Y-94654494D01*
X177123815Y-94751185D01*
X177220506Y-94830537D01*
X177330820Y-94889502D01*
X177450518Y-94925812D01*
X177575000Y-94938072D01*
X179375000Y-94938072D01*
X179499482Y-94925812D01*
X179619180Y-94889502D01*
X179729494Y-94830537D01*
X179826185Y-94751185D01*
X179905537Y-94654494D01*
X179964502Y-94544180D01*
X179970056Y-94525873D01*
X180036495Y-94592312D01*
X180287905Y-94760299D01*
X180567257Y-94876011D01*
X180863816Y-94935000D01*
X181166184Y-94935000D01*
X181462743Y-94876011D01*
X181742095Y-94760299D01*
X181993505Y-94592312D01*
X182207312Y-94378505D01*
X182375299Y-94127095D01*
X182491011Y-93847743D01*
X182550000Y-93551184D01*
X182550000Y-93248816D01*
X182491011Y-92952257D01*
X182375299Y-92672905D01*
X182355686Y-92643553D01*
X182350000Y-92585819D01*
X182330683Y-92389692D01*
X182254347Y-92138044D01*
X182130382Y-91906123D01*
X181963555Y-91702843D01*
X181912614Y-91661038D01*
X180766468Y-90514891D01*
X180724657Y-90463945D01*
X180521377Y-90297118D01*
X180289456Y-90173153D01*
X180037808Y-90096817D01*
X179841681Y-90077500D01*
X179776102Y-90071041D01*
X179710523Y-90077500D01*
X173334421Y-90077500D01*
X173138294Y-90096817D01*
X172886646Y-90173153D01*
X172654725Y-90297118D01*
X172618214Y-90327081D01*
X172610149Y-90329528D01*
X172456613Y-90411595D01*
X172322038Y-90522038D01*
X172211595Y-90656613D01*
X172129528Y-90810149D01*
X172078992Y-90976745D01*
X172061928Y-91149999D01*
X172061928Y-91378111D01*
X172058541Y-91412500D01*
X170660000Y-91412500D01*
X170660000Y-80660000D01*
X188840000Y-80660000D01*
X188840000Y-90844298D01*
G37*
%TD.AperFunction*%
%TD*%
M02*
