%TF.GenerationSoftware,KiCad,Pcbnew,(5.1.9)-1*%
%TF.CreationDate,2022-03-01T01:02:47+08:00*%
%TF.ProjectId,LED,4c45442e-6b69-4636-9164-5f7063625858,rev?*%
%TF.SameCoordinates,Original*%
%TF.FileFunction,Paste,Top*%
%TF.FilePolarity,Positive*%
%FSLAX46Y46*%
G04 Gerber Fmt 4.6, Leading zero omitted, Abs format (unit mm)*
G04 Created by KiCad (PCBNEW (5.1.9)-1) date 2022-03-01 01:02:47*
%MOMM*%
%LPD*%
G01*
G04 APERTURE LIST*
G04 APERTURE END LIST*
%TO.C,R3*%
G36*
G01*
X172949999Y-98400000D02*
X173850001Y-98400000D01*
G75*
G02*
X174100000Y-98649999I0J-249999D01*
G01*
X174100000Y-99175001D01*
G75*
G02*
X173850001Y-99425000I-249999J0D01*
G01*
X172949999Y-99425000D01*
G75*
G02*
X172700000Y-99175001I0J249999D01*
G01*
X172700000Y-98649999D01*
G75*
G02*
X172949999Y-98400000I249999J0D01*
G01*
G37*
G36*
G01*
X172949999Y-96575000D02*
X173850001Y-96575000D01*
G75*
G02*
X174100000Y-96824999I0J-249999D01*
G01*
X174100000Y-97350001D01*
G75*
G02*
X173850001Y-97600000I-249999J0D01*
G01*
X172949999Y-97600000D01*
G75*
G02*
X172700000Y-97350001I0J249999D01*
G01*
X172700000Y-96824999D01*
G75*
G02*
X172949999Y-96575000I249999J0D01*
G01*
G37*
%TD*%
%TO.C,R2*%
G36*
G01*
X172949999Y-105300000D02*
X173850001Y-105300000D01*
G75*
G02*
X174100000Y-105549999I0J-249999D01*
G01*
X174100000Y-106075001D01*
G75*
G02*
X173850001Y-106325000I-249999J0D01*
G01*
X172949999Y-106325000D01*
G75*
G02*
X172700000Y-106075001I0J249999D01*
G01*
X172700000Y-105549999D01*
G75*
G02*
X172949999Y-105300000I249999J0D01*
G01*
G37*
G36*
G01*
X172949999Y-103475000D02*
X173850001Y-103475000D01*
G75*
G02*
X174100000Y-103724999I0J-249999D01*
G01*
X174100000Y-104250001D01*
G75*
G02*
X173850001Y-104500000I-249999J0D01*
G01*
X172949999Y-104500000D01*
G75*
G02*
X172700000Y-104250001I0J249999D01*
G01*
X172700000Y-103724999D01*
G75*
G02*
X172949999Y-103475000I249999J0D01*
G01*
G37*
%TD*%
%TO.C,R1*%
G36*
G01*
X172949999Y-90900000D02*
X173850001Y-90900000D01*
G75*
G02*
X174100000Y-91149999I0J-249999D01*
G01*
X174100000Y-91675001D01*
G75*
G02*
X173850001Y-91925000I-249999J0D01*
G01*
X172949999Y-91925000D01*
G75*
G02*
X172700000Y-91675001I0J249999D01*
G01*
X172700000Y-91149999D01*
G75*
G02*
X172949999Y-90900000I249999J0D01*
G01*
G37*
G36*
G01*
X172949999Y-89075000D02*
X173850001Y-89075000D01*
G75*
G02*
X174100000Y-89324999I0J-249999D01*
G01*
X174100000Y-89850001D01*
G75*
G02*
X173850001Y-90100000I-249999J0D01*
G01*
X172949999Y-90100000D01*
G75*
G02*
X172700000Y-89850001I0J249999D01*
G01*
X172700000Y-89324999D01*
G75*
G02*
X172949999Y-89075000I249999J0D01*
G01*
G37*
%TD*%
M02*
