M48
; DRILL file {KiCad (5.1.9)-1} date 04/08/22 02:00:48
; FORMAT={-:-/ absolute / inch / decimal}
; #@! TF.CreationDate,2022-04-08T02:00:48+08:00
; #@! TF.GenerationSoftware,Kicad,Pcbnew,(5.1.9)-1
FMAT,2
INCH
T1C0.0315
T2C0.0354
T3C0.0394
T4C0.0492
T5C0.0472
%
G90
G05
T1
X4.126Y-2.626
X4.126Y-2.7047
X4.126Y-2.7835
X4.126Y-4.4055
X4.126Y-4.4843
X4.126Y-4.563
X4.8937Y-2.626
X4.8937Y-2.7047
X4.8937Y-2.7835
X4.8937Y-4.4055
X4.8937Y-4.4843
X4.8937Y-4.563
X5.6614Y-2.626
X5.6614Y-2.7047
X5.6614Y-2.7835
X5.6614Y-4.4055
X5.6614Y-4.4843
X5.6614Y-4.563
X6.4291Y-2.626
X6.4291Y-2.7047
X6.4291Y-2.7835
X6.4291Y-4.4055
X6.4291Y-4.4843
X6.4291Y-4.563
X7.1969Y-2.626
X7.1969Y-2.7047
X7.1969Y-2.7835
X7.1969Y-4.4055
X7.1969Y-4.4843
X7.1969Y-4.563
T2
X3.81Y-2.7087
X3.81Y-2.9843
X3.81Y-3.2598
X3.81Y-3.5354
X3.81Y-4.4882
X3.81Y-4.7638
X3.81Y-5.0394
X3.81Y-5.315
X3.91Y-2.7087
X3.91Y-2.9843
X3.91Y-3.2598
X3.91Y-3.5354
X3.91Y-4.4882
X3.91Y-4.7638
X3.91Y-5.0394
X3.91Y-5.315
X4.5778Y-2.7087
X4.5778Y-2.9843
X4.5778Y-3.2598
X4.5778Y-3.5354
X4.5778Y-4.4882
X4.5778Y-4.7638
X4.5778Y-5.0394
X4.5778Y-5.315
X4.6778Y-2.7087
X4.6778Y-2.9843
X4.6778Y-3.2598
X4.6778Y-3.5354
X4.6778Y-4.4882
X4.6778Y-4.7638
X4.6778Y-5.0394
X4.6778Y-5.315
X5.3455Y-2.7087
X5.3455Y-2.9843
X5.3455Y-3.2598
X5.3455Y-3.5354
X5.3455Y-4.4882
X5.3455Y-4.7638
X5.3455Y-5.0394
X5.3455Y-5.315
X5.4455Y-2.7087
X5.4455Y-2.9843
X5.4455Y-3.2598
X5.4455Y-3.5354
X5.4455Y-4.4882
X5.4455Y-4.7638
X5.4455Y-5.0394
X5.4455Y-5.315
X6.1132Y-2.7087
X6.1132Y-2.9843
X6.1132Y-3.2598
X6.1132Y-3.5354
X6.1132Y-4.4882
X6.1132Y-4.7638
X6.1132Y-5.0394
X6.1132Y-5.315
X6.2132Y-2.7087
X6.2132Y-2.9843
X6.2132Y-3.2598
X6.2132Y-3.5354
X6.2132Y-4.4882
X6.2132Y-4.7638
X6.2132Y-5.0394
X6.2132Y-5.315
X6.8809Y-2.7087
X6.8809Y-2.9843
X6.8809Y-3.2598
X6.8809Y-3.5354
X6.8809Y-4.4882
X6.8809Y-4.7638
X6.8809Y-5.0394
X6.8809Y-5.315
X6.9809Y-2.7087
X6.9809Y-2.9843
X6.9809Y-3.2598
X6.9809Y-3.5354
X6.9809Y-4.4882
X6.9809Y-4.7638
X6.9809Y-5.0394
X6.9809Y-5.315
T3
X3.811Y-2.2913
X3.811Y-4.0709
X3.9094Y-2.2913
X3.9094Y-4.0709
X4.5787Y-2.2913
X4.5787Y-4.0709
X4.6772Y-2.2913
X4.6772Y-4.0709
X5.3465Y-2.2913
X5.3465Y-4.0709
X5.4449Y-2.2913
X5.4449Y-4.0709
X6.1142Y-2.2913
X6.1142Y-4.0709
X6.2126Y-2.2913
X6.2126Y-4.0709
X6.8819Y-2.2913
X6.8819Y-4.0709
X6.9803Y-2.2913
X6.9803Y-4.0709
T4
X4.126Y-2.5433
X4.126Y-2.8661
X4.126Y-4.3228
X4.126Y-4.6457
X4.8937Y-2.5433
X4.8937Y-2.8661
X4.8937Y-4.3228
X4.8937Y-4.6457
X5.6614Y-2.5433
X5.6614Y-2.8661
X5.6614Y-4.3228
X5.6614Y-4.6457
X6.4291Y-2.5433
X6.4291Y-2.8661
X6.4291Y-4.3228
X6.4291Y-4.6457
X7.1969Y-2.5433
X7.1969Y-2.8661
X7.1969Y-4.3228
X7.1969Y-4.6457
T5
X3.9724Y-2.2126
X3.9724Y-3.9921
X4.7402Y-2.2126
X4.7402Y-3.9921
X5.5079Y-2.2126
X5.5079Y-3.9921
X6.2756Y-2.2126
X6.2756Y-3.9921
X7.0433Y-2.2126
X7.0433Y-3.9921
T0
M30
