%TF.GenerationSoftware,KiCad,Pcbnew,(5.1.9)-1*%
%TF.CreationDate,2022-04-08T02:00:14+08:00*%
%TF.ProjectId,LED_panelize,4c45445f-7061-46e6-956c-697a652e6b69,rev?*%
%TF.SameCoordinates,Original*%
%TF.FileFunction,Copper,L2,Bot*%
%TF.FilePolarity,Positive*%
%FSLAX46Y46*%
G04 Gerber Fmt 4.6, Leading zero omitted, Abs format (unit mm)*
G04 Created by KiCad (PCBNEW (5.1.9)-1) date 2022-04-08 02:00:14*
%MOMM*%
%LPD*%
G01*
G04 APERTURE LIST*
%TA.AperFunction,ComponentPad*%
%ADD10R,1.800000X1.800000*%
%TD*%
%TA.AperFunction,ComponentPad*%
%ADD11C,1.800000*%
%TD*%
%TA.AperFunction,ComponentPad*%
%ADD12O,1.700000X2.000000*%
%TD*%
%TA.AperFunction,ComponentPad*%
%ADD13R,2.500000X1.500000*%
%TD*%
%TA.AperFunction,ComponentPad*%
%ADD14O,2.500000X1.500000*%
%TD*%
%TA.AperFunction,ComponentPad*%
%ADD15O,3.000000X2.000000*%
%TD*%
%TA.AperFunction,Conductor*%
%ADD16C,0.254000*%
%TD*%
%TA.AperFunction,Conductor*%
%ADD17C,0.100000*%
%TD*%
G04 APERTURE END LIST*
D10*
%TO.P,D4,1*%
%TO.N,Net-(D1-Pad1)*%
X174775000Y-135000000D03*
D11*
%TO.P,D4,2*%
%TO.N,Net-(D4-Pad2)*%
X177315000Y-135000000D03*
%TD*%
D10*
%TO.P,D4,1*%
%TO.N,Net-(D1-Pad1)*%
X155275000Y-135000000D03*
D11*
%TO.P,D4,2*%
%TO.N,Net-(D4-Pad2)*%
X157815000Y-135000000D03*
%TD*%
D10*
%TO.P,D4,1*%
%TO.N,Net-(D1-Pad1)*%
X135775000Y-135000000D03*
D11*
%TO.P,D4,2*%
%TO.N,Net-(D4-Pad2)*%
X138315000Y-135000000D03*
%TD*%
D10*
%TO.P,D4,1*%
%TO.N,Net-(D1-Pad1)*%
X116275000Y-135000000D03*
D11*
%TO.P,D4,2*%
%TO.N,Net-(D4-Pad2)*%
X118815000Y-135000000D03*
%TD*%
D10*
%TO.P,D4,1*%
%TO.N,Net-(D1-Pad1)*%
X96775000Y-135000000D03*
D11*
%TO.P,D4,2*%
%TO.N,Net-(D4-Pad2)*%
X99315000Y-135000000D03*
%TD*%
D10*
%TO.P,D4,1*%
%TO.N,Net-(D1-Pad1)*%
X174775000Y-89800000D03*
D11*
%TO.P,D4,2*%
%TO.N,Net-(D4-Pad2)*%
X177315000Y-89800000D03*
%TD*%
D10*
%TO.P,D4,1*%
%TO.N,Net-(D1-Pad1)*%
X155275000Y-89800000D03*
D11*
%TO.P,D4,2*%
%TO.N,Net-(D4-Pad2)*%
X157815000Y-89800000D03*
%TD*%
D10*
%TO.P,D4,1*%
%TO.N,Net-(D1-Pad1)*%
X135775000Y-89800000D03*
D11*
%TO.P,D4,2*%
%TO.N,Net-(D4-Pad2)*%
X138315000Y-89800000D03*
%TD*%
D10*
%TO.P,D4,1*%
%TO.N,Net-(D1-Pad1)*%
X116275000Y-89800000D03*
D11*
%TO.P,D4,2*%
%TO.N,Net-(D4-Pad2)*%
X118815000Y-89800000D03*
%TD*%
D10*
%TO.P,D2,1*%
%TO.N,Net-(D1-Pad1)*%
X174775000Y-128000000D03*
D11*
%TO.P,D2,2*%
%TO.N,Net-(D2-Pad2)*%
X177315000Y-128000000D03*
%TD*%
D10*
%TO.P,D2,1*%
%TO.N,Net-(D1-Pad1)*%
X155275000Y-128000000D03*
D11*
%TO.P,D2,2*%
%TO.N,Net-(D2-Pad2)*%
X157815000Y-128000000D03*
%TD*%
D10*
%TO.P,D2,1*%
%TO.N,Net-(D1-Pad1)*%
X135775000Y-128000000D03*
D11*
%TO.P,D2,2*%
%TO.N,Net-(D2-Pad2)*%
X138315000Y-128000000D03*
%TD*%
D10*
%TO.P,D2,1*%
%TO.N,Net-(D1-Pad1)*%
X116275000Y-128000000D03*
D11*
%TO.P,D2,2*%
%TO.N,Net-(D2-Pad2)*%
X118815000Y-128000000D03*
%TD*%
D10*
%TO.P,D2,1*%
%TO.N,Net-(D1-Pad1)*%
X96775000Y-128000000D03*
D11*
%TO.P,D2,2*%
%TO.N,Net-(D2-Pad2)*%
X99315000Y-128000000D03*
%TD*%
D10*
%TO.P,D2,1*%
%TO.N,Net-(D1-Pad1)*%
X174775000Y-82800000D03*
D11*
%TO.P,D2,2*%
%TO.N,Net-(D2-Pad2)*%
X177315000Y-82800000D03*
%TD*%
D10*
%TO.P,D2,1*%
%TO.N,Net-(D1-Pad1)*%
X155275000Y-82800000D03*
D11*
%TO.P,D2,2*%
%TO.N,Net-(D2-Pad2)*%
X157815000Y-82800000D03*
%TD*%
D10*
%TO.P,D2,1*%
%TO.N,Net-(D1-Pad1)*%
X135775000Y-82800000D03*
D11*
%TO.P,D2,2*%
%TO.N,Net-(D2-Pad2)*%
X138315000Y-82800000D03*
%TD*%
D10*
%TO.P,D2,1*%
%TO.N,Net-(D1-Pad1)*%
X116275000Y-82800000D03*
D11*
%TO.P,D2,2*%
%TO.N,Net-(D2-Pad2)*%
X118815000Y-82800000D03*
%TD*%
D10*
%TO.P,D1,1*%
%TO.N,Net-(D1-Pad1)*%
X174775000Y-114000000D03*
D11*
%TO.P,D1,2*%
%TO.N,Net-(D1-Pad2)*%
X177315000Y-114000000D03*
%TD*%
D10*
%TO.P,D1,1*%
%TO.N,Net-(D1-Pad1)*%
X155275000Y-114000000D03*
D11*
%TO.P,D1,2*%
%TO.N,Net-(D1-Pad2)*%
X157815000Y-114000000D03*
%TD*%
D10*
%TO.P,D1,1*%
%TO.N,Net-(D1-Pad1)*%
X135775000Y-114000000D03*
D11*
%TO.P,D1,2*%
%TO.N,Net-(D1-Pad2)*%
X138315000Y-114000000D03*
%TD*%
D10*
%TO.P,D1,1*%
%TO.N,Net-(D1-Pad1)*%
X116275000Y-114000000D03*
D11*
%TO.P,D1,2*%
%TO.N,Net-(D1-Pad2)*%
X118815000Y-114000000D03*
%TD*%
D10*
%TO.P,D1,1*%
%TO.N,Net-(D1-Pad1)*%
X96775000Y-114000000D03*
D11*
%TO.P,D1,2*%
%TO.N,Net-(D1-Pad2)*%
X99315000Y-114000000D03*
%TD*%
D10*
%TO.P,D1,1*%
%TO.N,Net-(D1-Pad1)*%
X174775000Y-68800000D03*
D11*
%TO.P,D1,2*%
%TO.N,Net-(D1-Pad2)*%
X177315000Y-68800000D03*
%TD*%
D10*
%TO.P,D1,1*%
%TO.N,Net-(D1-Pad1)*%
X155275000Y-68800000D03*
D11*
%TO.P,D1,2*%
%TO.N,Net-(D1-Pad2)*%
X157815000Y-68800000D03*
%TD*%
D10*
%TO.P,D1,1*%
%TO.N,Net-(D1-Pad1)*%
X135775000Y-68800000D03*
D11*
%TO.P,D1,2*%
%TO.N,Net-(D1-Pad2)*%
X138315000Y-68800000D03*
%TD*%
D10*
%TO.P,D1,1*%
%TO.N,Net-(D1-Pad1)*%
X116275000Y-68800000D03*
D11*
%TO.P,D1,2*%
%TO.N,Net-(D1-Pad2)*%
X118815000Y-68800000D03*
%TD*%
D10*
%TO.P,D3,1*%
%TO.N,Net-(D1-Pad1)*%
X174775000Y-121000000D03*
D11*
%TO.P,D3,2*%
%TO.N,Net-(D3-Pad2)*%
X177315000Y-121000000D03*
%TD*%
D10*
%TO.P,D3,1*%
%TO.N,Net-(D1-Pad1)*%
X155275000Y-121000000D03*
D11*
%TO.P,D3,2*%
%TO.N,Net-(D3-Pad2)*%
X157815000Y-121000000D03*
%TD*%
D10*
%TO.P,D3,1*%
%TO.N,Net-(D1-Pad1)*%
X135775000Y-121000000D03*
D11*
%TO.P,D3,2*%
%TO.N,Net-(D3-Pad2)*%
X138315000Y-121000000D03*
%TD*%
D10*
%TO.P,D3,1*%
%TO.N,Net-(D1-Pad1)*%
X116275000Y-121000000D03*
D11*
%TO.P,D3,2*%
%TO.N,Net-(D3-Pad2)*%
X118815000Y-121000000D03*
%TD*%
D10*
%TO.P,D3,1*%
%TO.N,Net-(D1-Pad1)*%
X96775000Y-121000000D03*
D11*
%TO.P,D3,2*%
%TO.N,Net-(D3-Pad2)*%
X99315000Y-121000000D03*
%TD*%
D10*
%TO.P,D3,1*%
%TO.N,Net-(D1-Pad1)*%
X174775000Y-75800000D03*
D11*
%TO.P,D3,2*%
%TO.N,Net-(D3-Pad2)*%
X177315000Y-75800000D03*
%TD*%
D10*
%TO.P,D3,1*%
%TO.N,Net-(D1-Pad1)*%
X155275000Y-75800000D03*
D11*
%TO.P,D3,2*%
%TO.N,Net-(D3-Pad2)*%
X157815000Y-75800000D03*
%TD*%
D10*
%TO.P,D3,1*%
%TO.N,Net-(D1-Pad1)*%
X135775000Y-75800000D03*
D11*
%TO.P,D3,2*%
%TO.N,Net-(D3-Pad2)*%
X138315000Y-75800000D03*
%TD*%
D10*
%TO.P,D3,1*%
%TO.N,Net-(D1-Pad1)*%
X116275000Y-75800000D03*
D11*
%TO.P,D3,2*%
%TO.N,Net-(D3-Pad2)*%
X118815000Y-75800000D03*
%TD*%
%TO.P,J1,1*%
%TO.N,Net-(J1-Pad1)*%
%TA.AperFunction,ComponentPad*%
G36*
G01*
X178150000Y-102650000D02*
X178150000Y-104150000D01*
G75*
G02*
X177900000Y-104400000I-250000J0D01*
G01*
X176700000Y-104400000D01*
G75*
G02*
X176450000Y-104150000I0J250000D01*
G01*
X176450000Y-102650000D01*
G75*
G02*
X176700000Y-102400000I250000J0D01*
G01*
X177900000Y-102400000D01*
G75*
G02*
X178150000Y-102650000I0J-250000D01*
G01*
G37*
%TD.AperFunction*%
D12*
%TO.P,J1,2*%
%TO.N,Net-(D1-Pad1)*%
X174800000Y-103400000D03*
%TD*%
%TO.P,J1,1*%
%TO.N,Net-(J1-Pad1)*%
%TA.AperFunction,ComponentPad*%
G36*
G01*
X158650000Y-102650000D02*
X158650000Y-104150000D01*
G75*
G02*
X158400000Y-104400000I-250000J0D01*
G01*
X157200000Y-104400000D01*
G75*
G02*
X156950000Y-104150000I0J250000D01*
G01*
X156950000Y-102650000D01*
G75*
G02*
X157200000Y-102400000I250000J0D01*
G01*
X158400000Y-102400000D01*
G75*
G02*
X158650000Y-102650000I0J-250000D01*
G01*
G37*
%TD.AperFunction*%
%TO.P,J1,2*%
%TO.N,Net-(D1-Pad1)*%
X155300000Y-103400000D03*
%TD*%
%TO.P,J1,1*%
%TO.N,Net-(J1-Pad1)*%
%TA.AperFunction,ComponentPad*%
G36*
G01*
X139150000Y-102650000D02*
X139150000Y-104150000D01*
G75*
G02*
X138900000Y-104400000I-250000J0D01*
G01*
X137700000Y-104400000D01*
G75*
G02*
X137450000Y-104150000I0J250000D01*
G01*
X137450000Y-102650000D01*
G75*
G02*
X137700000Y-102400000I250000J0D01*
G01*
X138900000Y-102400000D01*
G75*
G02*
X139150000Y-102650000I0J-250000D01*
G01*
G37*
%TD.AperFunction*%
%TO.P,J1,2*%
%TO.N,Net-(D1-Pad1)*%
X135800000Y-103400000D03*
%TD*%
%TO.P,J1,1*%
%TO.N,Net-(J1-Pad1)*%
%TA.AperFunction,ComponentPad*%
G36*
G01*
X119650000Y-102650000D02*
X119650000Y-104150000D01*
G75*
G02*
X119400000Y-104400000I-250000J0D01*
G01*
X118200000Y-104400000D01*
G75*
G02*
X117950000Y-104150000I0J250000D01*
G01*
X117950000Y-102650000D01*
G75*
G02*
X118200000Y-102400000I250000J0D01*
G01*
X119400000Y-102400000D01*
G75*
G02*
X119650000Y-102650000I0J-250000D01*
G01*
G37*
%TD.AperFunction*%
%TO.P,J1,2*%
%TO.N,Net-(D1-Pad1)*%
X116300000Y-103400000D03*
%TD*%
%TO.P,J1,1*%
%TO.N,Net-(J1-Pad1)*%
%TA.AperFunction,ComponentPad*%
G36*
G01*
X100150000Y-102650000D02*
X100150000Y-104150000D01*
G75*
G02*
X99900000Y-104400000I-250000J0D01*
G01*
X98700000Y-104400000D01*
G75*
G02*
X98450000Y-104150000I0J250000D01*
G01*
X98450000Y-102650000D01*
G75*
G02*
X98700000Y-102400000I250000J0D01*
G01*
X99900000Y-102400000D01*
G75*
G02*
X100150000Y-102650000I0J-250000D01*
G01*
G37*
%TD.AperFunction*%
%TO.P,J1,2*%
%TO.N,Net-(D1-Pad1)*%
X96800000Y-103400000D03*
%TD*%
%TO.P,J1,1*%
%TO.N,Net-(J1-Pad1)*%
%TA.AperFunction,ComponentPad*%
G36*
G01*
X178150000Y-57450000D02*
X178150000Y-58950000D01*
G75*
G02*
X177900000Y-59200000I-250000J0D01*
G01*
X176700000Y-59200000D01*
G75*
G02*
X176450000Y-58950000I0J250000D01*
G01*
X176450000Y-57450000D01*
G75*
G02*
X176700000Y-57200000I250000J0D01*
G01*
X177900000Y-57200000D01*
G75*
G02*
X178150000Y-57450000I0J-250000D01*
G01*
G37*
%TD.AperFunction*%
%TO.P,J1,2*%
%TO.N,Net-(D1-Pad1)*%
X174800000Y-58200000D03*
%TD*%
%TO.P,J1,1*%
%TO.N,Net-(J1-Pad1)*%
%TA.AperFunction,ComponentPad*%
G36*
G01*
X158650000Y-57450000D02*
X158650000Y-58950000D01*
G75*
G02*
X158400000Y-59200000I-250000J0D01*
G01*
X157200000Y-59200000D01*
G75*
G02*
X156950000Y-58950000I0J250000D01*
G01*
X156950000Y-57450000D01*
G75*
G02*
X157200000Y-57200000I250000J0D01*
G01*
X158400000Y-57200000D01*
G75*
G02*
X158650000Y-57450000I0J-250000D01*
G01*
G37*
%TD.AperFunction*%
%TO.P,J1,2*%
%TO.N,Net-(D1-Pad1)*%
X155300000Y-58200000D03*
%TD*%
%TO.P,J1,1*%
%TO.N,Net-(J1-Pad1)*%
%TA.AperFunction,ComponentPad*%
G36*
G01*
X139150000Y-57450000D02*
X139150000Y-58950000D01*
G75*
G02*
X138900000Y-59200000I-250000J0D01*
G01*
X137700000Y-59200000D01*
G75*
G02*
X137450000Y-58950000I0J250000D01*
G01*
X137450000Y-57450000D01*
G75*
G02*
X137700000Y-57200000I250000J0D01*
G01*
X138900000Y-57200000D01*
G75*
G02*
X139150000Y-57450000I0J-250000D01*
G01*
G37*
%TD.AperFunction*%
%TO.P,J1,2*%
%TO.N,Net-(D1-Pad1)*%
X135800000Y-58200000D03*
%TD*%
%TO.P,J1,1*%
%TO.N,Net-(J1-Pad1)*%
%TA.AperFunction,ComponentPad*%
G36*
G01*
X119650000Y-57450000D02*
X119650000Y-58950000D01*
G75*
G02*
X119400000Y-59200000I-250000J0D01*
G01*
X118200000Y-59200000D01*
G75*
G02*
X117950000Y-58950000I0J250000D01*
G01*
X117950000Y-57450000D01*
G75*
G02*
X118200000Y-57200000I250000J0D01*
G01*
X119400000Y-57200000D01*
G75*
G02*
X119650000Y-57450000I0J-250000D01*
G01*
G37*
%TD.AperFunction*%
%TO.P,J1,2*%
%TO.N,Net-(D1-Pad1)*%
X116300000Y-58200000D03*
%TD*%
D13*
%TO.P,SW1,1*%
%TO.N,Net-(SW1-Pad1)*%
X182800000Y-115900000D03*
D14*
%TO.P,SW1,2*%
%TO.N,Net-(R1-Pad1)*%
X182800000Y-113900000D03*
%TO.P,SW1,3*%
%TO.N,Net-(J1-Pad1)*%
X182800000Y-111900000D03*
D15*
%TO.P,SW1,*%
%TO.N,*%
X182800000Y-118000000D03*
X182800000Y-109800000D03*
%TD*%
D13*
%TO.P,SW1,1*%
%TO.N,Net-(SW1-Pad1)*%
X163300000Y-115900000D03*
D14*
%TO.P,SW1,2*%
%TO.N,Net-(R1-Pad1)*%
X163300000Y-113900000D03*
%TO.P,SW1,3*%
%TO.N,Net-(J1-Pad1)*%
X163300000Y-111900000D03*
D15*
%TO.P,SW1,*%
%TO.N,*%
X163300000Y-118000000D03*
X163300000Y-109800000D03*
%TD*%
D13*
%TO.P,SW1,1*%
%TO.N,Net-(SW1-Pad1)*%
X143800000Y-115900000D03*
D14*
%TO.P,SW1,2*%
%TO.N,Net-(R1-Pad1)*%
X143800000Y-113900000D03*
%TO.P,SW1,3*%
%TO.N,Net-(J1-Pad1)*%
X143800000Y-111900000D03*
D15*
%TO.P,SW1,*%
%TO.N,*%
X143800000Y-118000000D03*
X143800000Y-109800000D03*
%TD*%
D13*
%TO.P,SW1,1*%
%TO.N,Net-(SW1-Pad1)*%
X124300000Y-115900000D03*
D14*
%TO.P,SW1,2*%
%TO.N,Net-(R1-Pad1)*%
X124300000Y-113900000D03*
%TO.P,SW1,3*%
%TO.N,Net-(J1-Pad1)*%
X124300000Y-111900000D03*
D15*
%TO.P,SW1,*%
%TO.N,*%
X124300000Y-118000000D03*
X124300000Y-109800000D03*
%TD*%
D13*
%TO.P,SW1,1*%
%TO.N,Net-(SW1-Pad1)*%
X104800000Y-115900000D03*
D14*
%TO.P,SW1,2*%
%TO.N,Net-(R1-Pad1)*%
X104800000Y-113900000D03*
%TO.P,SW1,3*%
%TO.N,Net-(J1-Pad1)*%
X104800000Y-111900000D03*
D15*
%TO.P,SW1,*%
%TO.N,*%
X104800000Y-118000000D03*
X104800000Y-109800000D03*
%TD*%
D13*
%TO.P,SW1,1*%
%TO.N,Net-(SW1-Pad1)*%
X182800000Y-70700000D03*
D14*
%TO.P,SW1,2*%
%TO.N,Net-(R1-Pad1)*%
X182800000Y-68700000D03*
%TO.P,SW1,3*%
%TO.N,Net-(J1-Pad1)*%
X182800000Y-66700000D03*
D15*
%TO.P,SW1,*%
%TO.N,*%
X182800000Y-72800000D03*
X182800000Y-64600000D03*
%TD*%
D13*
%TO.P,SW1,1*%
%TO.N,Net-(SW1-Pad1)*%
X163300000Y-70700000D03*
D14*
%TO.P,SW1,2*%
%TO.N,Net-(R1-Pad1)*%
X163300000Y-68700000D03*
%TO.P,SW1,3*%
%TO.N,Net-(J1-Pad1)*%
X163300000Y-66700000D03*
D15*
%TO.P,SW1,*%
%TO.N,*%
X163300000Y-72800000D03*
X163300000Y-64600000D03*
%TD*%
D13*
%TO.P,SW1,1*%
%TO.N,Net-(SW1-Pad1)*%
X143800000Y-70700000D03*
D14*
%TO.P,SW1,2*%
%TO.N,Net-(R1-Pad1)*%
X143800000Y-68700000D03*
%TO.P,SW1,3*%
%TO.N,Net-(J1-Pad1)*%
X143800000Y-66700000D03*
D15*
%TO.P,SW1,*%
%TO.N,*%
X143800000Y-72800000D03*
X143800000Y-64600000D03*
%TD*%
D13*
%TO.P,SW1,1*%
%TO.N,Net-(SW1-Pad1)*%
X124300000Y-70700000D03*
D14*
%TO.P,SW1,2*%
%TO.N,Net-(R1-Pad1)*%
X124300000Y-68700000D03*
%TO.P,SW1,3*%
%TO.N,Net-(J1-Pad1)*%
X124300000Y-66700000D03*
D15*
%TO.P,SW1,*%
%TO.N,*%
X124300000Y-72800000D03*
X124300000Y-64600000D03*
%TD*%
D11*
%TO.P,D4,2*%
%TO.N,Net-(D4-Pad2)*%
X99315000Y-89800000D03*
D10*
%TO.P,D4,1*%
%TO.N,Net-(D1-Pad1)*%
X96775000Y-89800000D03*
%TD*%
D15*
%TO.P,SW1,*%
%TO.N,*%
X104800000Y-64600000D03*
X104800000Y-72800000D03*
D14*
%TO.P,SW1,3*%
%TO.N,Net-(J1-Pad1)*%
X104800000Y-66700000D03*
%TO.P,SW1,2*%
%TO.N,Net-(R1-Pad1)*%
X104800000Y-68700000D03*
D13*
%TO.P,SW1,1*%
%TO.N,Net-(SW1-Pad1)*%
X104800000Y-70700000D03*
%TD*%
D12*
%TO.P,J1,2*%
%TO.N,Net-(D1-Pad1)*%
X96800000Y-58200000D03*
%TO.P,J1,1*%
%TO.N,Net-(J1-Pad1)*%
%TA.AperFunction,ComponentPad*%
G36*
G01*
X100150000Y-57450000D02*
X100150000Y-58950000D01*
G75*
G02*
X99900000Y-59200000I-250000J0D01*
G01*
X98700000Y-59200000D01*
G75*
G02*
X98450000Y-58950000I0J250000D01*
G01*
X98450000Y-57450000D01*
G75*
G02*
X98700000Y-57200000I250000J0D01*
G01*
X99900000Y-57200000D01*
G75*
G02*
X100150000Y-57450000I0J-250000D01*
G01*
G37*
%TD.AperFunction*%
%TD*%
D11*
%TO.P,D3,2*%
%TO.N,Net-(D3-Pad2)*%
X99315000Y-75800000D03*
D10*
%TO.P,D3,1*%
%TO.N,Net-(D1-Pad1)*%
X96775000Y-75800000D03*
%TD*%
D11*
%TO.P,D2,2*%
%TO.N,Net-(D2-Pad2)*%
X99315000Y-82800000D03*
D10*
%TO.P,D2,1*%
%TO.N,Net-(D1-Pad1)*%
X96775000Y-82800000D03*
%TD*%
D11*
%TO.P,D1,2*%
%TO.N,Net-(D1-Pad2)*%
X99315000Y-68800000D03*
D10*
%TO.P,D1,1*%
%TO.N,Net-(D1-Pad1)*%
X96775000Y-68800000D03*
%TD*%
D16*
%TO.N,Net-(D1-Pad1)*%
X107140001Y-91240000D02*
X99849681Y-91240000D01*
X100042095Y-91160299D01*
X100293505Y-90992312D01*
X100507312Y-90778505D01*
X100675299Y-90527095D01*
X100791011Y-90247743D01*
X100850000Y-89951184D01*
X100850000Y-89648816D01*
X100791011Y-89352257D01*
X100675299Y-89072905D01*
X100507312Y-88821495D01*
X100293505Y-88607688D01*
X100042095Y-88439701D01*
X99762743Y-88323989D01*
X99466184Y-88265000D01*
X99163816Y-88265000D01*
X98867257Y-88323989D01*
X98587905Y-88439701D01*
X98336495Y-88607688D01*
X98122688Y-88821495D01*
X97954701Y-89072905D01*
X97838989Y-89352257D01*
X97780000Y-89648816D01*
X97780000Y-89951184D01*
X97838989Y-90247743D01*
X97954701Y-90527095D01*
X98122688Y-90778505D01*
X98336495Y-90992312D01*
X98587905Y-91160299D01*
X98780319Y-91240000D01*
X88960000Y-91240000D01*
X88960000Y-82648816D01*
X97780000Y-82648816D01*
X97780000Y-82951184D01*
X97838989Y-83247743D01*
X97954701Y-83527095D01*
X98122688Y-83778505D01*
X98336495Y-83992312D01*
X98587905Y-84160299D01*
X98867257Y-84276011D01*
X99163816Y-84335000D01*
X99466184Y-84335000D01*
X99762743Y-84276011D01*
X100042095Y-84160299D01*
X100293505Y-83992312D01*
X100507312Y-83778505D01*
X100675299Y-83527095D01*
X100791011Y-83247743D01*
X100850000Y-82951184D01*
X100850000Y-82648816D01*
X100791011Y-82352257D01*
X100675299Y-82072905D01*
X100507312Y-81821495D01*
X100293505Y-81607688D01*
X100042095Y-81439701D01*
X99762743Y-81323989D01*
X99466184Y-81265000D01*
X99163816Y-81265000D01*
X98867257Y-81323989D01*
X98587905Y-81439701D01*
X98336495Y-81607688D01*
X98122688Y-81821495D01*
X97954701Y-82072905D01*
X97838989Y-82352257D01*
X97780000Y-82648816D01*
X88960000Y-82648816D01*
X88960000Y-75648816D01*
X97780000Y-75648816D01*
X97780000Y-75951184D01*
X97838989Y-76247743D01*
X97954701Y-76527095D01*
X98122688Y-76778505D01*
X98336495Y-76992312D01*
X98587905Y-77160299D01*
X98867257Y-77276011D01*
X99163816Y-77335000D01*
X99466184Y-77335000D01*
X99762743Y-77276011D01*
X100042095Y-77160299D01*
X100293505Y-76992312D01*
X100507312Y-76778505D01*
X100675299Y-76527095D01*
X100791011Y-76247743D01*
X100850000Y-75951184D01*
X100850000Y-75648816D01*
X100791011Y-75352257D01*
X100675299Y-75072905D01*
X100507312Y-74821495D01*
X100293505Y-74607688D01*
X100042095Y-74439701D01*
X99762743Y-74323989D01*
X99466184Y-74265000D01*
X99163816Y-74265000D01*
X98867257Y-74323989D01*
X98587905Y-74439701D01*
X98336495Y-74607688D01*
X98122688Y-74821495D01*
X97954701Y-75072905D01*
X97838989Y-75352257D01*
X97780000Y-75648816D01*
X88960000Y-75648816D01*
X88960000Y-68648816D01*
X97780000Y-68648816D01*
X97780000Y-68951184D01*
X97838989Y-69247743D01*
X97954701Y-69527095D01*
X98122688Y-69778505D01*
X98336495Y-69992312D01*
X98587905Y-70160299D01*
X98867257Y-70276011D01*
X99163816Y-70335000D01*
X99466184Y-70335000D01*
X99762743Y-70276011D01*
X100042095Y-70160299D01*
X100293505Y-69992312D01*
X100507312Y-69778505D01*
X100675299Y-69527095D01*
X100791011Y-69247743D01*
X100850000Y-68951184D01*
X100850000Y-68648816D01*
X100791011Y-68352257D01*
X100675299Y-68072905D01*
X100507312Y-67821495D01*
X100293505Y-67607688D01*
X100042095Y-67439701D01*
X99762743Y-67323989D01*
X99466184Y-67265000D01*
X99163816Y-67265000D01*
X98867257Y-67323989D01*
X98587905Y-67439701D01*
X98336495Y-67607688D01*
X98122688Y-67821495D01*
X97954701Y-68072905D01*
X97838989Y-68352257D01*
X97780000Y-68648816D01*
X88960000Y-68648816D01*
X88960000Y-64600000D01*
X102657089Y-64600000D01*
X102688657Y-64920516D01*
X102782148Y-65228715D01*
X102933969Y-65512752D01*
X103138286Y-65761714D01*
X103221972Y-65830393D01*
X103142843Y-65926812D01*
X103014236Y-66167419D01*
X102935040Y-66428493D01*
X102908299Y-66700000D01*
X102935040Y-66971507D01*
X103014236Y-67232581D01*
X103142843Y-67473188D01*
X103315919Y-67684081D01*
X103335316Y-67700000D01*
X103315919Y-67715919D01*
X103142843Y-67926812D01*
X103014236Y-68167419D01*
X102935040Y-68428493D01*
X102908299Y-68700000D01*
X102935040Y-68971507D01*
X103014236Y-69232581D01*
X103138940Y-69465886D01*
X103098815Y-69498815D01*
X103019463Y-69595506D01*
X102960498Y-69705820D01*
X102924188Y-69825518D01*
X102911928Y-69950000D01*
X102911928Y-71450000D01*
X102924188Y-71574482D01*
X102960498Y-71694180D01*
X103012529Y-71791522D01*
X102933969Y-71887248D01*
X102782148Y-72171285D01*
X102688657Y-72479484D01*
X102657089Y-72800000D01*
X102688657Y-73120516D01*
X102782148Y-73428715D01*
X102933969Y-73712752D01*
X103138286Y-73961714D01*
X103387248Y-74166031D01*
X103671285Y-74317852D01*
X103979484Y-74411343D01*
X104219678Y-74435000D01*
X105380322Y-74435000D01*
X105620516Y-74411343D01*
X105928715Y-74317852D01*
X106212752Y-74166031D01*
X106461714Y-73961714D01*
X106666031Y-73712752D01*
X106817852Y-73428715D01*
X106911343Y-73120516D01*
X106942911Y-72800000D01*
X106911343Y-72479484D01*
X106817852Y-72171285D01*
X106666031Y-71887248D01*
X106587471Y-71791522D01*
X106639502Y-71694180D01*
X106675812Y-71574482D01*
X106688072Y-71450000D01*
X106688072Y-69950000D01*
X106675812Y-69825518D01*
X106639502Y-69705820D01*
X106580537Y-69595506D01*
X106501185Y-69498815D01*
X106461060Y-69465886D01*
X106585764Y-69232581D01*
X106664960Y-68971507D01*
X106691701Y-68700000D01*
X106664960Y-68428493D01*
X106585764Y-68167419D01*
X106457157Y-67926812D01*
X106284081Y-67715919D01*
X106264684Y-67700000D01*
X106284081Y-67684081D01*
X106457157Y-67473188D01*
X106585764Y-67232581D01*
X106664960Y-66971507D01*
X106691701Y-66700000D01*
X106664960Y-66428493D01*
X106585764Y-66167419D01*
X106457157Y-65926812D01*
X106378028Y-65830393D01*
X106461714Y-65761714D01*
X106666031Y-65512752D01*
X106817852Y-65228715D01*
X106911343Y-64920516D01*
X106942911Y-64600000D01*
X106911343Y-64279484D01*
X106817852Y-63971285D01*
X106666031Y-63687248D01*
X106461714Y-63438286D01*
X106212752Y-63233969D01*
X105928715Y-63082148D01*
X105620516Y-62988657D01*
X105380322Y-62965000D01*
X104219678Y-62965000D01*
X103979484Y-62988657D01*
X103671285Y-63082148D01*
X103387248Y-63233969D01*
X103138286Y-63438286D01*
X102933969Y-63687248D01*
X102782148Y-63971285D01*
X102688657Y-64279484D01*
X102657089Y-64600000D01*
X88960000Y-64600000D01*
X88960000Y-57450000D01*
X97811928Y-57450000D01*
X97811928Y-58950000D01*
X97828992Y-59123254D01*
X97879528Y-59289850D01*
X97961595Y-59443386D01*
X98072038Y-59577962D01*
X98206614Y-59688405D01*
X98360150Y-59770472D01*
X98526746Y-59821008D01*
X98700000Y-59838072D01*
X99900000Y-59838072D01*
X100073254Y-59821008D01*
X100239850Y-59770472D01*
X100393386Y-59688405D01*
X100527962Y-59577962D01*
X100638405Y-59443386D01*
X100720472Y-59289850D01*
X100771008Y-59123254D01*
X100788072Y-58950000D01*
X100788072Y-57450000D01*
X100786595Y-57435000D01*
X101021637Y-57435000D01*
X101260236Y-57387540D01*
X101484992Y-57294443D01*
X101687267Y-57159287D01*
X101859287Y-56987267D01*
X101994443Y-56784992D01*
X102087540Y-56560236D01*
X102135000Y-56321637D01*
X102135000Y-56078363D01*
X102087540Y-55839764D01*
X101994443Y-55615008D01*
X101859287Y-55412733D01*
X101687267Y-55240713D01*
X101484992Y-55105557D01*
X101260236Y-55012460D01*
X101021637Y-54965000D01*
X100778363Y-54965000D01*
X100539764Y-55012460D01*
X100315008Y-55105557D01*
X100112733Y-55240713D01*
X99940713Y-55412733D01*
X99805557Y-55615008D01*
X99712460Y-55839764D01*
X99665000Y-56078363D01*
X99665000Y-56321637D01*
X99712460Y-56560236D01*
X99713161Y-56561928D01*
X98700000Y-56561928D01*
X98526746Y-56578992D01*
X98360150Y-56629528D01*
X98206614Y-56711595D01*
X98072038Y-56822038D01*
X97961595Y-56956614D01*
X97879528Y-57110150D01*
X97828992Y-57276746D01*
X97811928Y-57450000D01*
X88960000Y-57450000D01*
X88960000Y-47360000D01*
X107140000Y-47360000D01*
X107140001Y-91240000D01*
%TA.AperFunction,Conductor*%
D17*
G36*
X107140001Y-91240000D02*
G01*
X99849681Y-91240000D01*
X100042095Y-91160299D01*
X100293505Y-90992312D01*
X100507312Y-90778505D01*
X100675299Y-90527095D01*
X100791011Y-90247743D01*
X100850000Y-89951184D01*
X100850000Y-89648816D01*
X100791011Y-89352257D01*
X100675299Y-89072905D01*
X100507312Y-88821495D01*
X100293505Y-88607688D01*
X100042095Y-88439701D01*
X99762743Y-88323989D01*
X99466184Y-88265000D01*
X99163816Y-88265000D01*
X98867257Y-88323989D01*
X98587905Y-88439701D01*
X98336495Y-88607688D01*
X98122688Y-88821495D01*
X97954701Y-89072905D01*
X97838989Y-89352257D01*
X97780000Y-89648816D01*
X97780000Y-89951184D01*
X97838989Y-90247743D01*
X97954701Y-90527095D01*
X98122688Y-90778505D01*
X98336495Y-90992312D01*
X98587905Y-91160299D01*
X98780319Y-91240000D01*
X88960000Y-91240000D01*
X88960000Y-82648816D01*
X97780000Y-82648816D01*
X97780000Y-82951184D01*
X97838989Y-83247743D01*
X97954701Y-83527095D01*
X98122688Y-83778505D01*
X98336495Y-83992312D01*
X98587905Y-84160299D01*
X98867257Y-84276011D01*
X99163816Y-84335000D01*
X99466184Y-84335000D01*
X99762743Y-84276011D01*
X100042095Y-84160299D01*
X100293505Y-83992312D01*
X100507312Y-83778505D01*
X100675299Y-83527095D01*
X100791011Y-83247743D01*
X100850000Y-82951184D01*
X100850000Y-82648816D01*
X100791011Y-82352257D01*
X100675299Y-82072905D01*
X100507312Y-81821495D01*
X100293505Y-81607688D01*
X100042095Y-81439701D01*
X99762743Y-81323989D01*
X99466184Y-81265000D01*
X99163816Y-81265000D01*
X98867257Y-81323989D01*
X98587905Y-81439701D01*
X98336495Y-81607688D01*
X98122688Y-81821495D01*
X97954701Y-82072905D01*
X97838989Y-82352257D01*
X97780000Y-82648816D01*
X88960000Y-82648816D01*
X88960000Y-75648816D01*
X97780000Y-75648816D01*
X97780000Y-75951184D01*
X97838989Y-76247743D01*
X97954701Y-76527095D01*
X98122688Y-76778505D01*
X98336495Y-76992312D01*
X98587905Y-77160299D01*
X98867257Y-77276011D01*
X99163816Y-77335000D01*
X99466184Y-77335000D01*
X99762743Y-77276011D01*
X100042095Y-77160299D01*
X100293505Y-76992312D01*
X100507312Y-76778505D01*
X100675299Y-76527095D01*
X100791011Y-76247743D01*
X100850000Y-75951184D01*
X100850000Y-75648816D01*
X100791011Y-75352257D01*
X100675299Y-75072905D01*
X100507312Y-74821495D01*
X100293505Y-74607688D01*
X100042095Y-74439701D01*
X99762743Y-74323989D01*
X99466184Y-74265000D01*
X99163816Y-74265000D01*
X98867257Y-74323989D01*
X98587905Y-74439701D01*
X98336495Y-74607688D01*
X98122688Y-74821495D01*
X97954701Y-75072905D01*
X97838989Y-75352257D01*
X97780000Y-75648816D01*
X88960000Y-75648816D01*
X88960000Y-68648816D01*
X97780000Y-68648816D01*
X97780000Y-68951184D01*
X97838989Y-69247743D01*
X97954701Y-69527095D01*
X98122688Y-69778505D01*
X98336495Y-69992312D01*
X98587905Y-70160299D01*
X98867257Y-70276011D01*
X99163816Y-70335000D01*
X99466184Y-70335000D01*
X99762743Y-70276011D01*
X100042095Y-70160299D01*
X100293505Y-69992312D01*
X100507312Y-69778505D01*
X100675299Y-69527095D01*
X100791011Y-69247743D01*
X100850000Y-68951184D01*
X100850000Y-68648816D01*
X100791011Y-68352257D01*
X100675299Y-68072905D01*
X100507312Y-67821495D01*
X100293505Y-67607688D01*
X100042095Y-67439701D01*
X99762743Y-67323989D01*
X99466184Y-67265000D01*
X99163816Y-67265000D01*
X98867257Y-67323989D01*
X98587905Y-67439701D01*
X98336495Y-67607688D01*
X98122688Y-67821495D01*
X97954701Y-68072905D01*
X97838989Y-68352257D01*
X97780000Y-68648816D01*
X88960000Y-68648816D01*
X88960000Y-64600000D01*
X102657089Y-64600000D01*
X102688657Y-64920516D01*
X102782148Y-65228715D01*
X102933969Y-65512752D01*
X103138286Y-65761714D01*
X103221972Y-65830393D01*
X103142843Y-65926812D01*
X103014236Y-66167419D01*
X102935040Y-66428493D01*
X102908299Y-66700000D01*
X102935040Y-66971507D01*
X103014236Y-67232581D01*
X103142843Y-67473188D01*
X103315919Y-67684081D01*
X103335316Y-67700000D01*
X103315919Y-67715919D01*
X103142843Y-67926812D01*
X103014236Y-68167419D01*
X102935040Y-68428493D01*
X102908299Y-68700000D01*
X102935040Y-68971507D01*
X103014236Y-69232581D01*
X103138940Y-69465886D01*
X103098815Y-69498815D01*
X103019463Y-69595506D01*
X102960498Y-69705820D01*
X102924188Y-69825518D01*
X102911928Y-69950000D01*
X102911928Y-71450000D01*
X102924188Y-71574482D01*
X102960498Y-71694180D01*
X103012529Y-71791522D01*
X102933969Y-71887248D01*
X102782148Y-72171285D01*
X102688657Y-72479484D01*
X102657089Y-72800000D01*
X102688657Y-73120516D01*
X102782148Y-73428715D01*
X102933969Y-73712752D01*
X103138286Y-73961714D01*
X103387248Y-74166031D01*
X103671285Y-74317852D01*
X103979484Y-74411343D01*
X104219678Y-74435000D01*
X105380322Y-74435000D01*
X105620516Y-74411343D01*
X105928715Y-74317852D01*
X106212752Y-74166031D01*
X106461714Y-73961714D01*
X106666031Y-73712752D01*
X106817852Y-73428715D01*
X106911343Y-73120516D01*
X106942911Y-72800000D01*
X106911343Y-72479484D01*
X106817852Y-72171285D01*
X106666031Y-71887248D01*
X106587471Y-71791522D01*
X106639502Y-71694180D01*
X106675812Y-71574482D01*
X106688072Y-71450000D01*
X106688072Y-69950000D01*
X106675812Y-69825518D01*
X106639502Y-69705820D01*
X106580537Y-69595506D01*
X106501185Y-69498815D01*
X106461060Y-69465886D01*
X106585764Y-69232581D01*
X106664960Y-68971507D01*
X106691701Y-68700000D01*
X106664960Y-68428493D01*
X106585764Y-68167419D01*
X106457157Y-67926812D01*
X106284081Y-67715919D01*
X106264684Y-67700000D01*
X106284081Y-67684081D01*
X106457157Y-67473188D01*
X106585764Y-67232581D01*
X106664960Y-66971507D01*
X106691701Y-66700000D01*
X106664960Y-66428493D01*
X106585764Y-66167419D01*
X106457157Y-65926812D01*
X106378028Y-65830393D01*
X106461714Y-65761714D01*
X106666031Y-65512752D01*
X106817852Y-65228715D01*
X106911343Y-64920516D01*
X106942911Y-64600000D01*
X106911343Y-64279484D01*
X106817852Y-63971285D01*
X106666031Y-63687248D01*
X106461714Y-63438286D01*
X106212752Y-63233969D01*
X105928715Y-63082148D01*
X105620516Y-62988657D01*
X105380322Y-62965000D01*
X104219678Y-62965000D01*
X103979484Y-62988657D01*
X103671285Y-63082148D01*
X103387248Y-63233969D01*
X103138286Y-63438286D01*
X102933969Y-63687248D01*
X102782148Y-63971285D01*
X102688657Y-64279484D01*
X102657089Y-64600000D01*
X88960000Y-64600000D01*
X88960000Y-57450000D01*
X97811928Y-57450000D01*
X97811928Y-58950000D01*
X97828992Y-59123254D01*
X97879528Y-59289850D01*
X97961595Y-59443386D01*
X98072038Y-59577962D01*
X98206614Y-59688405D01*
X98360150Y-59770472D01*
X98526746Y-59821008D01*
X98700000Y-59838072D01*
X99900000Y-59838072D01*
X100073254Y-59821008D01*
X100239850Y-59770472D01*
X100393386Y-59688405D01*
X100527962Y-59577962D01*
X100638405Y-59443386D01*
X100720472Y-59289850D01*
X100771008Y-59123254D01*
X100788072Y-58950000D01*
X100788072Y-57450000D01*
X100786595Y-57435000D01*
X101021637Y-57435000D01*
X101260236Y-57387540D01*
X101484992Y-57294443D01*
X101687267Y-57159287D01*
X101859287Y-56987267D01*
X101994443Y-56784992D01*
X102087540Y-56560236D01*
X102135000Y-56321637D01*
X102135000Y-56078363D01*
X102087540Y-55839764D01*
X101994443Y-55615008D01*
X101859287Y-55412733D01*
X101687267Y-55240713D01*
X101484992Y-55105557D01*
X101260236Y-55012460D01*
X101021637Y-54965000D01*
X100778363Y-54965000D01*
X100539764Y-55012460D01*
X100315008Y-55105557D01*
X100112733Y-55240713D01*
X99940713Y-55412733D01*
X99805557Y-55615008D01*
X99712460Y-55839764D01*
X99665000Y-56078363D01*
X99665000Y-56321637D01*
X99712460Y-56560236D01*
X99713161Y-56561928D01*
X98700000Y-56561928D01*
X98526746Y-56578992D01*
X98360150Y-56629528D01*
X98206614Y-56711595D01*
X98072038Y-56822038D01*
X97961595Y-56956614D01*
X97879528Y-57110150D01*
X97828992Y-57276746D01*
X97811928Y-57450000D01*
X88960000Y-57450000D01*
X88960000Y-47360000D01*
X107140000Y-47360000D01*
X107140001Y-91240000D01*
G37*
%TD.AperFunction*%
%TD*%
D16*
%TO.N,Net-(D1-Pad1)*%
X126640001Y-91240000D02*
X119349681Y-91240000D01*
X119542095Y-91160299D01*
X119793505Y-90992312D01*
X120007312Y-90778505D01*
X120175299Y-90527095D01*
X120291011Y-90247743D01*
X120350000Y-89951184D01*
X120350000Y-89648816D01*
X120291011Y-89352257D01*
X120175299Y-89072905D01*
X120007312Y-88821495D01*
X119793505Y-88607688D01*
X119542095Y-88439701D01*
X119262743Y-88323989D01*
X118966184Y-88265000D01*
X118663816Y-88265000D01*
X118367257Y-88323989D01*
X118087905Y-88439701D01*
X117836495Y-88607688D01*
X117622688Y-88821495D01*
X117454701Y-89072905D01*
X117338989Y-89352257D01*
X117280000Y-89648816D01*
X117280000Y-89951184D01*
X117338989Y-90247743D01*
X117454701Y-90527095D01*
X117622688Y-90778505D01*
X117836495Y-90992312D01*
X118087905Y-91160299D01*
X118280319Y-91240000D01*
X108460000Y-91240000D01*
X108460000Y-82648816D01*
X117280000Y-82648816D01*
X117280000Y-82951184D01*
X117338989Y-83247743D01*
X117454701Y-83527095D01*
X117622688Y-83778505D01*
X117836495Y-83992312D01*
X118087905Y-84160299D01*
X118367257Y-84276011D01*
X118663816Y-84335000D01*
X118966184Y-84335000D01*
X119262743Y-84276011D01*
X119542095Y-84160299D01*
X119793505Y-83992312D01*
X120007312Y-83778505D01*
X120175299Y-83527095D01*
X120291011Y-83247743D01*
X120350000Y-82951184D01*
X120350000Y-82648816D01*
X120291011Y-82352257D01*
X120175299Y-82072905D01*
X120007312Y-81821495D01*
X119793505Y-81607688D01*
X119542095Y-81439701D01*
X119262743Y-81323989D01*
X118966184Y-81265000D01*
X118663816Y-81265000D01*
X118367257Y-81323989D01*
X118087905Y-81439701D01*
X117836495Y-81607688D01*
X117622688Y-81821495D01*
X117454701Y-82072905D01*
X117338989Y-82352257D01*
X117280000Y-82648816D01*
X108460000Y-82648816D01*
X108460000Y-75648816D01*
X117280000Y-75648816D01*
X117280000Y-75951184D01*
X117338989Y-76247743D01*
X117454701Y-76527095D01*
X117622688Y-76778505D01*
X117836495Y-76992312D01*
X118087905Y-77160299D01*
X118367257Y-77276011D01*
X118663816Y-77335000D01*
X118966184Y-77335000D01*
X119262743Y-77276011D01*
X119542095Y-77160299D01*
X119793505Y-76992312D01*
X120007312Y-76778505D01*
X120175299Y-76527095D01*
X120291011Y-76247743D01*
X120350000Y-75951184D01*
X120350000Y-75648816D01*
X120291011Y-75352257D01*
X120175299Y-75072905D01*
X120007312Y-74821495D01*
X119793505Y-74607688D01*
X119542095Y-74439701D01*
X119262743Y-74323989D01*
X118966184Y-74265000D01*
X118663816Y-74265000D01*
X118367257Y-74323989D01*
X118087905Y-74439701D01*
X117836495Y-74607688D01*
X117622688Y-74821495D01*
X117454701Y-75072905D01*
X117338989Y-75352257D01*
X117280000Y-75648816D01*
X108460000Y-75648816D01*
X108460000Y-68648816D01*
X117280000Y-68648816D01*
X117280000Y-68951184D01*
X117338989Y-69247743D01*
X117454701Y-69527095D01*
X117622688Y-69778505D01*
X117836495Y-69992312D01*
X118087905Y-70160299D01*
X118367257Y-70276011D01*
X118663816Y-70335000D01*
X118966184Y-70335000D01*
X119262743Y-70276011D01*
X119542095Y-70160299D01*
X119793505Y-69992312D01*
X120007312Y-69778505D01*
X120175299Y-69527095D01*
X120291011Y-69247743D01*
X120350000Y-68951184D01*
X120350000Y-68648816D01*
X120291011Y-68352257D01*
X120175299Y-68072905D01*
X120007312Y-67821495D01*
X119793505Y-67607688D01*
X119542095Y-67439701D01*
X119262743Y-67323989D01*
X118966184Y-67265000D01*
X118663816Y-67265000D01*
X118367257Y-67323989D01*
X118087905Y-67439701D01*
X117836495Y-67607688D01*
X117622688Y-67821495D01*
X117454701Y-68072905D01*
X117338989Y-68352257D01*
X117280000Y-68648816D01*
X108460000Y-68648816D01*
X108460000Y-64600000D01*
X122157089Y-64600000D01*
X122188657Y-64920516D01*
X122282148Y-65228715D01*
X122433969Y-65512752D01*
X122638286Y-65761714D01*
X122721972Y-65830393D01*
X122642843Y-65926812D01*
X122514236Y-66167419D01*
X122435040Y-66428493D01*
X122408299Y-66700000D01*
X122435040Y-66971507D01*
X122514236Y-67232581D01*
X122642843Y-67473188D01*
X122815919Y-67684081D01*
X122835316Y-67700000D01*
X122815919Y-67715919D01*
X122642843Y-67926812D01*
X122514236Y-68167419D01*
X122435040Y-68428493D01*
X122408299Y-68700000D01*
X122435040Y-68971507D01*
X122514236Y-69232581D01*
X122638940Y-69465886D01*
X122598815Y-69498815D01*
X122519463Y-69595506D01*
X122460498Y-69705820D01*
X122424188Y-69825518D01*
X122411928Y-69950000D01*
X122411928Y-71450000D01*
X122424188Y-71574482D01*
X122460498Y-71694180D01*
X122512529Y-71791522D01*
X122433969Y-71887248D01*
X122282148Y-72171285D01*
X122188657Y-72479484D01*
X122157089Y-72800000D01*
X122188657Y-73120516D01*
X122282148Y-73428715D01*
X122433969Y-73712752D01*
X122638286Y-73961714D01*
X122887248Y-74166031D01*
X123171285Y-74317852D01*
X123479484Y-74411343D01*
X123719678Y-74435000D01*
X124880322Y-74435000D01*
X125120516Y-74411343D01*
X125428715Y-74317852D01*
X125712752Y-74166031D01*
X125961714Y-73961714D01*
X126166031Y-73712752D01*
X126317852Y-73428715D01*
X126411343Y-73120516D01*
X126442911Y-72800000D01*
X126411343Y-72479484D01*
X126317852Y-72171285D01*
X126166031Y-71887248D01*
X126087471Y-71791522D01*
X126139502Y-71694180D01*
X126175812Y-71574482D01*
X126188072Y-71450000D01*
X126188072Y-69950000D01*
X126175812Y-69825518D01*
X126139502Y-69705820D01*
X126080537Y-69595506D01*
X126001185Y-69498815D01*
X125961060Y-69465886D01*
X126085764Y-69232581D01*
X126164960Y-68971507D01*
X126191701Y-68700000D01*
X126164960Y-68428493D01*
X126085764Y-68167419D01*
X125957157Y-67926812D01*
X125784081Y-67715919D01*
X125764684Y-67700000D01*
X125784081Y-67684081D01*
X125957157Y-67473188D01*
X126085764Y-67232581D01*
X126164960Y-66971507D01*
X126191701Y-66700000D01*
X126164960Y-66428493D01*
X126085764Y-66167419D01*
X125957157Y-65926812D01*
X125878028Y-65830393D01*
X125961714Y-65761714D01*
X126166031Y-65512752D01*
X126317852Y-65228715D01*
X126411343Y-64920516D01*
X126442911Y-64600000D01*
X126411343Y-64279484D01*
X126317852Y-63971285D01*
X126166031Y-63687248D01*
X125961714Y-63438286D01*
X125712752Y-63233969D01*
X125428715Y-63082148D01*
X125120516Y-62988657D01*
X124880322Y-62965000D01*
X123719678Y-62965000D01*
X123479484Y-62988657D01*
X123171285Y-63082148D01*
X122887248Y-63233969D01*
X122638286Y-63438286D01*
X122433969Y-63687248D01*
X122282148Y-63971285D01*
X122188657Y-64279484D01*
X122157089Y-64600000D01*
X108460000Y-64600000D01*
X108460000Y-57450000D01*
X117311928Y-57450000D01*
X117311928Y-58950000D01*
X117328992Y-59123254D01*
X117379528Y-59289850D01*
X117461595Y-59443386D01*
X117572038Y-59577962D01*
X117706614Y-59688405D01*
X117860150Y-59770472D01*
X118026746Y-59821008D01*
X118200000Y-59838072D01*
X119400000Y-59838072D01*
X119573254Y-59821008D01*
X119739850Y-59770472D01*
X119893386Y-59688405D01*
X120027962Y-59577962D01*
X120138405Y-59443386D01*
X120220472Y-59289850D01*
X120271008Y-59123254D01*
X120288072Y-58950000D01*
X120288072Y-57450000D01*
X120286595Y-57435000D01*
X120521637Y-57435000D01*
X120760236Y-57387540D01*
X120984992Y-57294443D01*
X121187267Y-57159287D01*
X121359287Y-56987267D01*
X121494443Y-56784992D01*
X121587540Y-56560236D01*
X121635000Y-56321637D01*
X121635000Y-56078363D01*
X121587540Y-55839764D01*
X121494443Y-55615008D01*
X121359287Y-55412733D01*
X121187267Y-55240713D01*
X120984992Y-55105557D01*
X120760236Y-55012460D01*
X120521637Y-54965000D01*
X120278363Y-54965000D01*
X120039764Y-55012460D01*
X119815008Y-55105557D01*
X119612733Y-55240713D01*
X119440713Y-55412733D01*
X119305557Y-55615008D01*
X119212460Y-55839764D01*
X119165000Y-56078363D01*
X119165000Y-56321637D01*
X119212460Y-56560236D01*
X119213161Y-56561928D01*
X118200000Y-56561928D01*
X118026746Y-56578992D01*
X117860150Y-56629528D01*
X117706614Y-56711595D01*
X117572038Y-56822038D01*
X117461595Y-56956614D01*
X117379528Y-57110150D01*
X117328992Y-57276746D01*
X117311928Y-57450000D01*
X108460000Y-57450000D01*
X108460000Y-47360000D01*
X126640000Y-47360000D01*
X126640001Y-91240000D01*
%TA.AperFunction,Conductor*%
D17*
G36*
X126640001Y-91240000D02*
G01*
X119349681Y-91240000D01*
X119542095Y-91160299D01*
X119793505Y-90992312D01*
X120007312Y-90778505D01*
X120175299Y-90527095D01*
X120291011Y-90247743D01*
X120350000Y-89951184D01*
X120350000Y-89648816D01*
X120291011Y-89352257D01*
X120175299Y-89072905D01*
X120007312Y-88821495D01*
X119793505Y-88607688D01*
X119542095Y-88439701D01*
X119262743Y-88323989D01*
X118966184Y-88265000D01*
X118663816Y-88265000D01*
X118367257Y-88323989D01*
X118087905Y-88439701D01*
X117836495Y-88607688D01*
X117622688Y-88821495D01*
X117454701Y-89072905D01*
X117338989Y-89352257D01*
X117280000Y-89648816D01*
X117280000Y-89951184D01*
X117338989Y-90247743D01*
X117454701Y-90527095D01*
X117622688Y-90778505D01*
X117836495Y-90992312D01*
X118087905Y-91160299D01*
X118280319Y-91240000D01*
X108460000Y-91240000D01*
X108460000Y-82648816D01*
X117280000Y-82648816D01*
X117280000Y-82951184D01*
X117338989Y-83247743D01*
X117454701Y-83527095D01*
X117622688Y-83778505D01*
X117836495Y-83992312D01*
X118087905Y-84160299D01*
X118367257Y-84276011D01*
X118663816Y-84335000D01*
X118966184Y-84335000D01*
X119262743Y-84276011D01*
X119542095Y-84160299D01*
X119793505Y-83992312D01*
X120007312Y-83778505D01*
X120175299Y-83527095D01*
X120291011Y-83247743D01*
X120350000Y-82951184D01*
X120350000Y-82648816D01*
X120291011Y-82352257D01*
X120175299Y-82072905D01*
X120007312Y-81821495D01*
X119793505Y-81607688D01*
X119542095Y-81439701D01*
X119262743Y-81323989D01*
X118966184Y-81265000D01*
X118663816Y-81265000D01*
X118367257Y-81323989D01*
X118087905Y-81439701D01*
X117836495Y-81607688D01*
X117622688Y-81821495D01*
X117454701Y-82072905D01*
X117338989Y-82352257D01*
X117280000Y-82648816D01*
X108460000Y-82648816D01*
X108460000Y-75648816D01*
X117280000Y-75648816D01*
X117280000Y-75951184D01*
X117338989Y-76247743D01*
X117454701Y-76527095D01*
X117622688Y-76778505D01*
X117836495Y-76992312D01*
X118087905Y-77160299D01*
X118367257Y-77276011D01*
X118663816Y-77335000D01*
X118966184Y-77335000D01*
X119262743Y-77276011D01*
X119542095Y-77160299D01*
X119793505Y-76992312D01*
X120007312Y-76778505D01*
X120175299Y-76527095D01*
X120291011Y-76247743D01*
X120350000Y-75951184D01*
X120350000Y-75648816D01*
X120291011Y-75352257D01*
X120175299Y-75072905D01*
X120007312Y-74821495D01*
X119793505Y-74607688D01*
X119542095Y-74439701D01*
X119262743Y-74323989D01*
X118966184Y-74265000D01*
X118663816Y-74265000D01*
X118367257Y-74323989D01*
X118087905Y-74439701D01*
X117836495Y-74607688D01*
X117622688Y-74821495D01*
X117454701Y-75072905D01*
X117338989Y-75352257D01*
X117280000Y-75648816D01*
X108460000Y-75648816D01*
X108460000Y-68648816D01*
X117280000Y-68648816D01*
X117280000Y-68951184D01*
X117338989Y-69247743D01*
X117454701Y-69527095D01*
X117622688Y-69778505D01*
X117836495Y-69992312D01*
X118087905Y-70160299D01*
X118367257Y-70276011D01*
X118663816Y-70335000D01*
X118966184Y-70335000D01*
X119262743Y-70276011D01*
X119542095Y-70160299D01*
X119793505Y-69992312D01*
X120007312Y-69778505D01*
X120175299Y-69527095D01*
X120291011Y-69247743D01*
X120350000Y-68951184D01*
X120350000Y-68648816D01*
X120291011Y-68352257D01*
X120175299Y-68072905D01*
X120007312Y-67821495D01*
X119793505Y-67607688D01*
X119542095Y-67439701D01*
X119262743Y-67323989D01*
X118966184Y-67265000D01*
X118663816Y-67265000D01*
X118367257Y-67323989D01*
X118087905Y-67439701D01*
X117836495Y-67607688D01*
X117622688Y-67821495D01*
X117454701Y-68072905D01*
X117338989Y-68352257D01*
X117280000Y-68648816D01*
X108460000Y-68648816D01*
X108460000Y-64600000D01*
X122157089Y-64600000D01*
X122188657Y-64920516D01*
X122282148Y-65228715D01*
X122433969Y-65512752D01*
X122638286Y-65761714D01*
X122721972Y-65830393D01*
X122642843Y-65926812D01*
X122514236Y-66167419D01*
X122435040Y-66428493D01*
X122408299Y-66700000D01*
X122435040Y-66971507D01*
X122514236Y-67232581D01*
X122642843Y-67473188D01*
X122815919Y-67684081D01*
X122835316Y-67700000D01*
X122815919Y-67715919D01*
X122642843Y-67926812D01*
X122514236Y-68167419D01*
X122435040Y-68428493D01*
X122408299Y-68700000D01*
X122435040Y-68971507D01*
X122514236Y-69232581D01*
X122638940Y-69465886D01*
X122598815Y-69498815D01*
X122519463Y-69595506D01*
X122460498Y-69705820D01*
X122424188Y-69825518D01*
X122411928Y-69950000D01*
X122411928Y-71450000D01*
X122424188Y-71574482D01*
X122460498Y-71694180D01*
X122512529Y-71791522D01*
X122433969Y-71887248D01*
X122282148Y-72171285D01*
X122188657Y-72479484D01*
X122157089Y-72800000D01*
X122188657Y-73120516D01*
X122282148Y-73428715D01*
X122433969Y-73712752D01*
X122638286Y-73961714D01*
X122887248Y-74166031D01*
X123171285Y-74317852D01*
X123479484Y-74411343D01*
X123719678Y-74435000D01*
X124880322Y-74435000D01*
X125120516Y-74411343D01*
X125428715Y-74317852D01*
X125712752Y-74166031D01*
X125961714Y-73961714D01*
X126166031Y-73712752D01*
X126317852Y-73428715D01*
X126411343Y-73120516D01*
X126442911Y-72800000D01*
X126411343Y-72479484D01*
X126317852Y-72171285D01*
X126166031Y-71887248D01*
X126087471Y-71791522D01*
X126139502Y-71694180D01*
X126175812Y-71574482D01*
X126188072Y-71450000D01*
X126188072Y-69950000D01*
X126175812Y-69825518D01*
X126139502Y-69705820D01*
X126080537Y-69595506D01*
X126001185Y-69498815D01*
X125961060Y-69465886D01*
X126085764Y-69232581D01*
X126164960Y-68971507D01*
X126191701Y-68700000D01*
X126164960Y-68428493D01*
X126085764Y-68167419D01*
X125957157Y-67926812D01*
X125784081Y-67715919D01*
X125764684Y-67700000D01*
X125784081Y-67684081D01*
X125957157Y-67473188D01*
X126085764Y-67232581D01*
X126164960Y-66971507D01*
X126191701Y-66700000D01*
X126164960Y-66428493D01*
X126085764Y-66167419D01*
X125957157Y-65926812D01*
X125878028Y-65830393D01*
X125961714Y-65761714D01*
X126166031Y-65512752D01*
X126317852Y-65228715D01*
X126411343Y-64920516D01*
X126442911Y-64600000D01*
X126411343Y-64279484D01*
X126317852Y-63971285D01*
X126166031Y-63687248D01*
X125961714Y-63438286D01*
X125712752Y-63233969D01*
X125428715Y-63082148D01*
X125120516Y-62988657D01*
X124880322Y-62965000D01*
X123719678Y-62965000D01*
X123479484Y-62988657D01*
X123171285Y-63082148D01*
X122887248Y-63233969D01*
X122638286Y-63438286D01*
X122433969Y-63687248D01*
X122282148Y-63971285D01*
X122188657Y-64279484D01*
X122157089Y-64600000D01*
X108460000Y-64600000D01*
X108460000Y-57450000D01*
X117311928Y-57450000D01*
X117311928Y-58950000D01*
X117328992Y-59123254D01*
X117379528Y-59289850D01*
X117461595Y-59443386D01*
X117572038Y-59577962D01*
X117706614Y-59688405D01*
X117860150Y-59770472D01*
X118026746Y-59821008D01*
X118200000Y-59838072D01*
X119400000Y-59838072D01*
X119573254Y-59821008D01*
X119739850Y-59770472D01*
X119893386Y-59688405D01*
X120027962Y-59577962D01*
X120138405Y-59443386D01*
X120220472Y-59289850D01*
X120271008Y-59123254D01*
X120288072Y-58950000D01*
X120288072Y-57450000D01*
X120286595Y-57435000D01*
X120521637Y-57435000D01*
X120760236Y-57387540D01*
X120984992Y-57294443D01*
X121187267Y-57159287D01*
X121359287Y-56987267D01*
X121494443Y-56784992D01*
X121587540Y-56560236D01*
X121635000Y-56321637D01*
X121635000Y-56078363D01*
X121587540Y-55839764D01*
X121494443Y-55615008D01*
X121359287Y-55412733D01*
X121187267Y-55240713D01*
X120984992Y-55105557D01*
X120760236Y-55012460D01*
X120521637Y-54965000D01*
X120278363Y-54965000D01*
X120039764Y-55012460D01*
X119815008Y-55105557D01*
X119612733Y-55240713D01*
X119440713Y-55412733D01*
X119305557Y-55615008D01*
X119212460Y-55839764D01*
X119165000Y-56078363D01*
X119165000Y-56321637D01*
X119212460Y-56560236D01*
X119213161Y-56561928D01*
X118200000Y-56561928D01*
X118026746Y-56578992D01*
X117860150Y-56629528D01*
X117706614Y-56711595D01*
X117572038Y-56822038D01*
X117461595Y-56956614D01*
X117379528Y-57110150D01*
X117328992Y-57276746D01*
X117311928Y-57450000D01*
X108460000Y-57450000D01*
X108460000Y-47360000D01*
X126640000Y-47360000D01*
X126640001Y-91240000D01*
G37*
%TD.AperFunction*%
%TD*%
D16*
%TO.N,Net-(D1-Pad1)*%
X146140001Y-91240000D02*
X138849681Y-91240000D01*
X139042095Y-91160299D01*
X139293505Y-90992312D01*
X139507312Y-90778505D01*
X139675299Y-90527095D01*
X139791011Y-90247743D01*
X139850000Y-89951184D01*
X139850000Y-89648816D01*
X139791011Y-89352257D01*
X139675299Y-89072905D01*
X139507312Y-88821495D01*
X139293505Y-88607688D01*
X139042095Y-88439701D01*
X138762743Y-88323989D01*
X138466184Y-88265000D01*
X138163816Y-88265000D01*
X137867257Y-88323989D01*
X137587905Y-88439701D01*
X137336495Y-88607688D01*
X137122688Y-88821495D01*
X136954701Y-89072905D01*
X136838989Y-89352257D01*
X136780000Y-89648816D01*
X136780000Y-89951184D01*
X136838989Y-90247743D01*
X136954701Y-90527095D01*
X137122688Y-90778505D01*
X137336495Y-90992312D01*
X137587905Y-91160299D01*
X137780319Y-91240000D01*
X127960000Y-91240000D01*
X127960000Y-82648816D01*
X136780000Y-82648816D01*
X136780000Y-82951184D01*
X136838989Y-83247743D01*
X136954701Y-83527095D01*
X137122688Y-83778505D01*
X137336495Y-83992312D01*
X137587905Y-84160299D01*
X137867257Y-84276011D01*
X138163816Y-84335000D01*
X138466184Y-84335000D01*
X138762743Y-84276011D01*
X139042095Y-84160299D01*
X139293505Y-83992312D01*
X139507312Y-83778505D01*
X139675299Y-83527095D01*
X139791011Y-83247743D01*
X139850000Y-82951184D01*
X139850000Y-82648816D01*
X139791011Y-82352257D01*
X139675299Y-82072905D01*
X139507312Y-81821495D01*
X139293505Y-81607688D01*
X139042095Y-81439701D01*
X138762743Y-81323989D01*
X138466184Y-81265000D01*
X138163816Y-81265000D01*
X137867257Y-81323989D01*
X137587905Y-81439701D01*
X137336495Y-81607688D01*
X137122688Y-81821495D01*
X136954701Y-82072905D01*
X136838989Y-82352257D01*
X136780000Y-82648816D01*
X127960000Y-82648816D01*
X127960000Y-75648816D01*
X136780000Y-75648816D01*
X136780000Y-75951184D01*
X136838989Y-76247743D01*
X136954701Y-76527095D01*
X137122688Y-76778505D01*
X137336495Y-76992312D01*
X137587905Y-77160299D01*
X137867257Y-77276011D01*
X138163816Y-77335000D01*
X138466184Y-77335000D01*
X138762743Y-77276011D01*
X139042095Y-77160299D01*
X139293505Y-76992312D01*
X139507312Y-76778505D01*
X139675299Y-76527095D01*
X139791011Y-76247743D01*
X139850000Y-75951184D01*
X139850000Y-75648816D01*
X139791011Y-75352257D01*
X139675299Y-75072905D01*
X139507312Y-74821495D01*
X139293505Y-74607688D01*
X139042095Y-74439701D01*
X138762743Y-74323989D01*
X138466184Y-74265000D01*
X138163816Y-74265000D01*
X137867257Y-74323989D01*
X137587905Y-74439701D01*
X137336495Y-74607688D01*
X137122688Y-74821495D01*
X136954701Y-75072905D01*
X136838989Y-75352257D01*
X136780000Y-75648816D01*
X127960000Y-75648816D01*
X127960000Y-68648816D01*
X136780000Y-68648816D01*
X136780000Y-68951184D01*
X136838989Y-69247743D01*
X136954701Y-69527095D01*
X137122688Y-69778505D01*
X137336495Y-69992312D01*
X137587905Y-70160299D01*
X137867257Y-70276011D01*
X138163816Y-70335000D01*
X138466184Y-70335000D01*
X138762743Y-70276011D01*
X139042095Y-70160299D01*
X139293505Y-69992312D01*
X139507312Y-69778505D01*
X139675299Y-69527095D01*
X139791011Y-69247743D01*
X139850000Y-68951184D01*
X139850000Y-68648816D01*
X139791011Y-68352257D01*
X139675299Y-68072905D01*
X139507312Y-67821495D01*
X139293505Y-67607688D01*
X139042095Y-67439701D01*
X138762743Y-67323989D01*
X138466184Y-67265000D01*
X138163816Y-67265000D01*
X137867257Y-67323989D01*
X137587905Y-67439701D01*
X137336495Y-67607688D01*
X137122688Y-67821495D01*
X136954701Y-68072905D01*
X136838989Y-68352257D01*
X136780000Y-68648816D01*
X127960000Y-68648816D01*
X127960000Y-64600000D01*
X141657089Y-64600000D01*
X141688657Y-64920516D01*
X141782148Y-65228715D01*
X141933969Y-65512752D01*
X142138286Y-65761714D01*
X142221972Y-65830393D01*
X142142843Y-65926812D01*
X142014236Y-66167419D01*
X141935040Y-66428493D01*
X141908299Y-66700000D01*
X141935040Y-66971507D01*
X142014236Y-67232581D01*
X142142843Y-67473188D01*
X142315919Y-67684081D01*
X142335316Y-67700000D01*
X142315919Y-67715919D01*
X142142843Y-67926812D01*
X142014236Y-68167419D01*
X141935040Y-68428493D01*
X141908299Y-68700000D01*
X141935040Y-68971507D01*
X142014236Y-69232581D01*
X142138940Y-69465886D01*
X142098815Y-69498815D01*
X142019463Y-69595506D01*
X141960498Y-69705820D01*
X141924188Y-69825518D01*
X141911928Y-69950000D01*
X141911928Y-71450000D01*
X141924188Y-71574482D01*
X141960498Y-71694180D01*
X142012529Y-71791522D01*
X141933969Y-71887248D01*
X141782148Y-72171285D01*
X141688657Y-72479484D01*
X141657089Y-72800000D01*
X141688657Y-73120516D01*
X141782148Y-73428715D01*
X141933969Y-73712752D01*
X142138286Y-73961714D01*
X142387248Y-74166031D01*
X142671285Y-74317852D01*
X142979484Y-74411343D01*
X143219678Y-74435000D01*
X144380322Y-74435000D01*
X144620516Y-74411343D01*
X144928715Y-74317852D01*
X145212752Y-74166031D01*
X145461714Y-73961714D01*
X145666031Y-73712752D01*
X145817852Y-73428715D01*
X145911343Y-73120516D01*
X145942911Y-72800000D01*
X145911343Y-72479484D01*
X145817852Y-72171285D01*
X145666031Y-71887248D01*
X145587471Y-71791522D01*
X145639502Y-71694180D01*
X145675812Y-71574482D01*
X145688072Y-71450000D01*
X145688072Y-69950000D01*
X145675812Y-69825518D01*
X145639502Y-69705820D01*
X145580537Y-69595506D01*
X145501185Y-69498815D01*
X145461060Y-69465886D01*
X145585764Y-69232581D01*
X145664960Y-68971507D01*
X145691701Y-68700000D01*
X145664960Y-68428493D01*
X145585764Y-68167419D01*
X145457157Y-67926812D01*
X145284081Y-67715919D01*
X145264684Y-67700000D01*
X145284081Y-67684081D01*
X145457157Y-67473188D01*
X145585764Y-67232581D01*
X145664960Y-66971507D01*
X145691701Y-66700000D01*
X145664960Y-66428493D01*
X145585764Y-66167419D01*
X145457157Y-65926812D01*
X145378028Y-65830393D01*
X145461714Y-65761714D01*
X145666031Y-65512752D01*
X145817852Y-65228715D01*
X145911343Y-64920516D01*
X145942911Y-64600000D01*
X145911343Y-64279484D01*
X145817852Y-63971285D01*
X145666031Y-63687248D01*
X145461714Y-63438286D01*
X145212752Y-63233969D01*
X144928715Y-63082148D01*
X144620516Y-62988657D01*
X144380322Y-62965000D01*
X143219678Y-62965000D01*
X142979484Y-62988657D01*
X142671285Y-63082148D01*
X142387248Y-63233969D01*
X142138286Y-63438286D01*
X141933969Y-63687248D01*
X141782148Y-63971285D01*
X141688657Y-64279484D01*
X141657089Y-64600000D01*
X127960000Y-64600000D01*
X127960000Y-57450000D01*
X136811928Y-57450000D01*
X136811928Y-58950000D01*
X136828992Y-59123254D01*
X136879528Y-59289850D01*
X136961595Y-59443386D01*
X137072038Y-59577962D01*
X137206614Y-59688405D01*
X137360150Y-59770472D01*
X137526746Y-59821008D01*
X137700000Y-59838072D01*
X138900000Y-59838072D01*
X139073254Y-59821008D01*
X139239850Y-59770472D01*
X139393386Y-59688405D01*
X139527962Y-59577962D01*
X139638405Y-59443386D01*
X139720472Y-59289850D01*
X139771008Y-59123254D01*
X139788072Y-58950000D01*
X139788072Y-57450000D01*
X139786595Y-57435000D01*
X140021637Y-57435000D01*
X140260236Y-57387540D01*
X140484992Y-57294443D01*
X140687267Y-57159287D01*
X140859287Y-56987267D01*
X140994443Y-56784992D01*
X141087540Y-56560236D01*
X141135000Y-56321637D01*
X141135000Y-56078363D01*
X141087540Y-55839764D01*
X140994443Y-55615008D01*
X140859287Y-55412733D01*
X140687267Y-55240713D01*
X140484992Y-55105557D01*
X140260236Y-55012460D01*
X140021637Y-54965000D01*
X139778363Y-54965000D01*
X139539764Y-55012460D01*
X139315008Y-55105557D01*
X139112733Y-55240713D01*
X138940713Y-55412733D01*
X138805557Y-55615008D01*
X138712460Y-55839764D01*
X138665000Y-56078363D01*
X138665000Y-56321637D01*
X138712460Y-56560236D01*
X138713161Y-56561928D01*
X137700000Y-56561928D01*
X137526746Y-56578992D01*
X137360150Y-56629528D01*
X137206614Y-56711595D01*
X137072038Y-56822038D01*
X136961595Y-56956614D01*
X136879528Y-57110150D01*
X136828992Y-57276746D01*
X136811928Y-57450000D01*
X127960000Y-57450000D01*
X127960000Y-47360000D01*
X146140000Y-47360000D01*
X146140001Y-91240000D01*
%TA.AperFunction,Conductor*%
D17*
G36*
X146140001Y-91240000D02*
G01*
X138849681Y-91240000D01*
X139042095Y-91160299D01*
X139293505Y-90992312D01*
X139507312Y-90778505D01*
X139675299Y-90527095D01*
X139791011Y-90247743D01*
X139850000Y-89951184D01*
X139850000Y-89648816D01*
X139791011Y-89352257D01*
X139675299Y-89072905D01*
X139507312Y-88821495D01*
X139293505Y-88607688D01*
X139042095Y-88439701D01*
X138762743Y-88323989D01*
X138466184Y-88265000D01*
X138163816Y-88265000D01*
X137867257Y-88323989D01*
X137587905Y-88439701D01*
X137336495Y-88607688D01*
X137122688Y-88821495D01*
X136954701Y-89072905D01*
X136838989Y-89352257D01*
X136780000Y-89648816D01*
X136780000Y-89951184D01*
X136838989Y-90247743D01*
X136954701Y-90527095D01*
X137122688Y-90778505D01*
X137336495Y-90992312D01*
X137587905Y-91160299D01*
X137780319Y-91240000D01*
X127960000Y-91240000D01*
X127960000Y-82648816D01*
X136780000Y-82648816D01*
X136780000Y-82951184D01*
X136838989Y-83247743D01*
X136954701Y-83527095D01*
X137122688Y-83778505D01*
X137336495Y-83992312D01*
X137587905Y-84160299D01*
X137867257Y-84276011D01*
X138163816Y-84335000D01*
X138466184Y-84335000D01*
X138762743Y-84276011D01*
X139042095Y-84160299D01*
X139293505Y-83992312D01*
X139507312Y-83778505D01*
X139675299Y-83527095D01*
X139791011Y-83247743D01*
X139850000Y-82951184D01*
X139850000Y-82648816D01*
X139791011Y-82352257D01*
X139675299Y-82072905D01*
X139507312Y-81821495D01*
X139293505Y-81607688D01*
X139042095Y-81439701D01*
X138762743Y-81323989D01*
X138466184Y-81265000D01*
X138163816Y-81265000D01*
X137867257Y-81323989D01*
X137587905Y-81439701D01*
X137336495Y-81607688D01*
X137122688Y-81821495D01*
X136954701Y-82072905D01*
X136838989Y-82352257D01*
X136780000Y-82648816D01*
X127960000Y-82648816D01*
X127960000Y-75648816D01*
X136780000Y-75648816D01*
X136780000Y-75951184D01*
X136838989Y-76247743D01*
X136954701Y-76527095D01*
X137122688Y-76778505D01*
X137336495Y-76992312D01*
X137587905Y-77160299D01*
X137867257Y-77276011D01*
X138163816Y-77335000D01*
X138466184Y-77335000D01*
X138762743Y-77276011D01*
X139042095Y-77160299D01*
X139293505Y-76992312D01*
X139507312Y-76778505D01*
X139675299Y-76527095D01*
X139791011Y-76247743D01*
X139850000Y-75951184D01*
X139850000Y-75648816D01*
X139791011Y-75352257D01*
X139675299Y-75072905D01*
X139507312Y-74821495D01*
X139293505Y-74607688D01*
X139042095Y-74439701D01*
X138762743Y-74323989D01*
X138466184Y-74265000D01*
X138163816Y-74265000D01*
X137867257Y-74323989D01*
X137587905Y-74439701D01*
X137336495Y-74607688D01*
X137122688Y-74821495D01*
X136954701Y-75072905D01*
X136838989Y-75352257D01*
X136780000Y-75648816D01*
X127960000Y-75648816D01*
X127960000Y-68648816D01*
X136780000Y-68648816D01*
X136780000Y-68951184D01*
X136838989Y-69247743D01*
X136954701Y-69527095D01*
X137122688Y-69778505D01*
X137336495Y-69992312D01*
X137587905Y-70160299D01*
X137867257Y-70276011D01*
X138163816Y-70335000D01*
X138466184Y-70335000D01*
X138762743Y-70276011D01*
X139042095Y-70160299D01*
X139293505Y-69992312D01*
X139507312Y-69778505D01*
X139675299Y-69527095D01*
X139791011Y-69247743D01*
X139850000Y-68951184D01*
X139850000Y-68648816D01*
X139791011Y-68352257D01*
X139675299Y-68072905D01*
X139507312Y-67821495D01*
X139293505Y-67607688D01*
X139042095Y-67439701D01*
X138762743Y-67323989D01*
X138466184Y-67265000D01*
X138163816Y-67265000D01*
X137867257Y-67323989D01*
X137587905Y-67439701D01*
X137336495Y-67607688D01*
X137122688Y-67821495D01*
X136954701Y-68072905D01*
X136838989Y-68352257D01*
X136780000Y-68648816D01*
X127960000Y-68648816D01*
X127960000Y-64600000D01*
X141657089Y-64600000D01*
X141688657Y-64920516D01*
X141782148Y-65228715D01*
X141933969Y-65512752D01*
X142138286Y-65761714D01*
X142221972Y-65830393D01*
X142142843Y-65926812D01*
X142014236Y-66167419D01*
X141935040Y-66428493D01*
X141908299Y-66700000D01*
X141935040Y-66971507D01*
X142014236Y-67232581D01*
X142142843Y-67473188D01*
X142315919Y-67684081D01*
X142335316Y-67700000D01*
X142315919Y-67715919D01*
X142142843Y-67926812D01*
X142014236Y-68167419D01*
X141935040Y-68428493D01*
X141908299Y-68700000D01*
X141935040Y-68971507D01*
X142014236Y-69232581D01*
X142138940Y-69465886D01*
X142098815Y-69498815D01*
X142019463Y-69595506D01*
X141960498Y-69705820D01*
X141924188Y-69825518D01*
X141911928Y-69950000D01*
X141911928Y-71450000D01*
X141924188Y-71574482D01*
X141960498Y-71694180D01*
X142012529Y-71791522D01*
X141933969Y-71887248D01*
X141782148Y-72171285D01*
X141688657Y-72479484D01*
X141657089Y-72800000D01*
X141688657Y-73120516D01*
X141782148Y-73428715D01*
X141933969Y-73712752D01*
X142138286Y-73961714D01*
X142387248Y-74166031D01*
X142671285Y-74317852D01*
X142979484Y-74411343D01*
X143219678Y-74435000D01*
X144380322Y-74435000D01*
X144620516Y-74411343D01*
X144928715Y-74317852D01*
X145212752Y-74166031D01*
X145461714Y-73961714D01*
X145666031Y-73712752D01*
X145817852Y-73428715D01*
X145911343Y-73120516D01*
X145942911Y-72800000D01*
X145911343Y-72479484D01*
X145817852Y-72171285D01*
X145666031Y-71887248D01*
X145587471Y-71791522D01*
X145639502Y-71694180D01*
X145675812Y-71574482D01*
X145688072Y-71450000D01*
X145688072Y-69950000D01*
X145675812Y-69825518D01*
X145639502Y-69705820D01*
X145580537Y-69595506D01*
X145501185Y-69498815D01*
X145461060Y-69465886D01*
X145585764Y-69232581D01*
X145664960Y-68971507D01*
X145691701Y-68700000D01*
X145664960Y-68428493D01*
X145585764Y-68167419D01*
X145457157Y-67926812D01*
X145284081Y-67715919D01*
X145264684Y-67700000D01*
X145284081Y-67684081D01*
X145457157Y-67473188D01*
X145585764Y-67232581D01*
X145664960Y-66971507D01*
X145691701Y-66700000D01*
X145664960Y-66428493D01*
X145585764Y-66167419D01*
X145457157Y-65926812D01*
X145378028Y-65830393D01*
X145461714Y-65761714D01*
X145666031Y-65512752D01*
X145817852Y-65228715D01*
X145911343Y-64920516D01*
X145942911Y-64600000D01*
X145911343Y-64279484D01*
X145817852Y-63971285D01*
X145666031Y-63687248D01*
X145461714Y-63438286D01*
X145212752Y-63233969D01*
X144928715Y-63082148D01*
X144620516Y-62988657D01*
X144380322Y-62965000D01*
X143219678Y-62965000D01*
X142979484Y-62988657D01*
X142671285Y-63082148D01*
X142387248Y-63233969D01*
X142138286Y-63438286D01*
X141933969Y-63687248D01*
X141782148Y-63971285D01*
X141688657Y-64279484D01*
X141657089Y-64600000D01*
X127960000Y-64600000D01*
X127960000Y-57450000D01*
X136811928Y-57450000D01*
X136811928Y-58950000D01*
X136828992Y-59123254D01*
X136879528Y-59289850D01*
X136961595Y-59443386D01*
X137072038Y-59577962D01*
X137206614Y-59688405D01*
X137360150Y-59770472D01*
X137526746Y-59821008D01*
X137700000Y-59838072D01*
X138900000Y-59838072D01*
X139073254Y-59821008D01*
X139239850Y-59770472D01*
X139393386Y-59688405D01*
X139527962Y-59577962D01*
X139638405Y-59443386D01*
X139720472Y-59289850D01*
X139771008Y-59123254D01*
X139788072Y-58950000D01*
X139788072Y-57450000D01*
X139786595Y-57435000D01*
X140021637Y-57435000D01*
X140260236Y-57387540D01*
X140484992Y-57294443D01*
X140687267Y-57159287D01*
X140859287Y-56987267D01*
X140994443Y-56784992D01*
X141087540Y-56560236D01*
X141135000Y-56321637D01*
X141135000Y-56078363D01*
X141087540Y-55839764D01*
X140994443Y-55615008D01*
X140859287Y-55412733D01*
X140687267Y-55240713D01*
X140484992Y-55105557D01*
X140260236Y-55012460D01*
X140021637Y-54965000D01*
X139778363Y-54965000D01*
X139539764Y-55012460D01*
X139315008Y-55105557D01*
X139112733Y-55240713D01*
X138940713Y-55412733D01*
X138805557Y-55615008D01*
X138712460Y-55839764D01*
X138665000Y-56078363D01*
X138665000Y-56321637D01*
X138712460Y-56560236D01*
X138713161Y-56561928D01*
X137700000Y-56561928D01*
X137526746Y-56578992D01*
X137360150Y-56629528D01*
X137206614Y-56711595D01*
X137072038Y-56822038D01*
X136961595Y-56956614D01*
X136879528Y-57110150D01*
X136828992Y-57276746D01*
X136811928Y-57450000D01*
X127960000Y-57450000D01*
X127960000Y-47360000D01*
X146140000Y-47360000D01*
X146140001Y-91240000D01*
G37*
%TD.AperFunction*%
%TD*%
D16*
%TO.N,Net-(D1-Pad1)*%
X165640001Y-91240000D02*
X158349681Y-91240000D01*
X158542095Y-91160299D01*
X158793505Y-90992312D01*
X159007312Y-90778505D01*
X159175299Y-90527095D01*
X159291011Y-90247743D01*
X159350000Y-89951184D01*
X159350000Y-89648816D01*
X159291011Y-89352257D01*
X159175299Y-89072905D01*
X159007312Y-88821495D01*
X158793505Y-88607688D01*
X158542095Y-88439701D01*
X158262743Y-88323989D01*
X157966184Y-88265000D01*
X157663816Y-88265000D01*
X157367257Y-88323989D01*
X157087905Y-88439701D01*
X156836495Y-88607688D01*
X156622688Y-88821495D01*
X156454701Y-89072905D01*
X156338989Y-89352257D01*
X156280000Y-89648816D01*
X156280000Y-89951184D01*
X156338989Y-90247743D01*
X156454701Y-90527095D01*
X156622688Y-90778505D01*
X156836495Y-90992312D01*
X157087905Y-91160299D01*
X157280319Y-91240000D01*
X147460000Y-91240000D01*
X147460000Y-82648816D01*
X156280000Y-82648816D01*
X156280000Y-82951184D01*
X156338989Y-83247743D01*
X156454701Y-83527095D01*
X156622688Y-83778505D01*
X156836495Y-83992312D01*
X157087905Y-84160299D01*
X157367257Y-84276011D01*
X157663816Y-84335000D01*
X157966184Y-84335000D01*
X158262743Y-84276011D01*
X158542095Y-84160299D01*
X158793505Y-83992312D01*
X159007312Y-83778505D01*
X159175299Y-83527095D01*
X159291011Y-83247743D01*
X159350000Y-82951184D01*
X159350000Y-82648816D01*
X159291011Y-82352257D01*
X159175299Y-82072905D01*
X159007312Y-81821495D01*
X158793505Y-81607688D01*
X158542095Y-81439701D01*
X158262743Y-81323989D01*
X157966184Y-81265000D01*
X157663816Y-81265000D01*
X157367257Y-81323989D01*
X157087905Y-81439701D01*
X156836495Y-81607688D01*
X156622688Y-81821495D01*
X156454701Y-82072905D01*
X156338989Y-82352257D01*
X156280000Y-82648816D01*
X147460000Y-82648816D01*
X147460000Y-75648816D01*
X156280000Y-75648816D01*
X156280000Y-75951184D01*
X156338989Y-76247743D01*
X156454701Y-76527095D01*
X156622688Y-76778505D01*
X156836495Y-76992312D01*
X157087905Y-77160299D01*
X157367257Y-77276011D01*
X157663816Y-77335000D01*
X157966184Y-77335000D01*
X158262743Y-77276011D01*
X158542095Y-77160299D01*
X158793505Y-76992312D01*
X159007312Y-76778505D01*
X159175299Y-76527095D01*
X159291011Y-76247743D01*
X159350000Y-75951184D01*
X159350000Y-75648816D01*
X159291011Y-75352257D01*
X159175299Y-75072905D01*
X159007312Y-74821495D01*
X158793505Y-74607688D01*
X158542095Y-74439701D01*
X158262743Y-74323989D01*
X157966184Y-74265000D01*
X157663816Y-74265000D01*
X157367257Y-74323989D01*
X157087905Y-74439701D01*
X156836495Y-74607688D01*
X156622688Y-74821495D01*
X156454701Y-75072905D01*
X156338989Y-75352257D01*
X156280000Y-75648816D01*
X147460000Y-75648816D01*
X147460000Y-68648816D01*
X156280000Y-68648816D01*
X156280000Y-68951184D01*
X156338989Y-69247743D01*
X156454701Y-69527095D01*
X156622688Y-69778505D01*
X156836495Y-69992312D01*
X157087905Y-70160299D01*
X157367257Y-70276011D01*
X157663816Y-70335000D01*
X157966184Y-70335000D01*
X158262743Y-70276011D01*
X158542095Y-70160299D01*
X158793505Y-69992312D01*
X159007312Y-69778505D01*
X159175299Y-69527095D01*
X159291011Y-69247743D01*
X159350000Y-68951184D01*
X159350000Y-68648816D01*
X159291011Y-68352257D01*
X159175299Y-68072905D01*
X159007312Y-67821495D01*
X158793505Y-67607688D01*
X158542095Y-67439701D01*
X158262743Y-67323989D01*
X157966184Y-67265000D01*
X157663816Y-67265000D01*
X157367257Y-67323989D01*
X157087905Y-67439701D01*
X156836495Y-67607688D01*
X156622688Y-67821495D01*
X156454701Y-68072905D01*
X156338989Y-68352257D01*
X156280000Y-68648816D01*
X147460000Y-68648816D01*
X147460000Y-64600000D01*
X161157089Y-64600000D01*
X161188657Y-64920516D01*
X161282148Y-65228715D01*
X161433969Y-65512752D01*
X161638286Y-65761714D01*
X161721972Y-65830393D01*
X161642843Y-65926812D01*
X161514236Y-66167419D01*
X161435040Y-66428493D01*
X161408299Y-66700000D01*
X161435040Y-66971507D01*
X161514236Y-67232581D01*
X161642843Y-67473188D01*
X161815919Y-67684081D01*
X161835316Y-67700000D01*
X161815919Y-67715919D01*
X161642843Y-67926812D01*
X161514236Y-68167419D01*
X161435040Y-68428493D01*
X161408299Y-68700000D01*
X161435040Y-68971507D01*
X161514236Y-69232581D01*
X161638940Y-69465886D01*
X161598815Y-69498815D01*
X161519463Y-69595506D01*
X161460498Y-69705820D01*
X161424188Y-69825518D01*
X161411928Y-69950000D01*
X161411928Y-71450000D01*
X161424188Y-71574482D01*
X161460498Y-71694180D01*
X161512529Y-71791522D01*
X161433969Y-71887248D01*
X161282148Y-72171285D01*
X161188657Y-72479484D01*
X161157089Y-72800000D01*
X161188657Y-73120516D01*
X161282148Y-73428715D01*
X161433969Y-73712752D01*
X161638286Y-73961714D01*
X161887248Y-74166031D01*
X162171285Y-74317852D01*
X162479484Y-74411343D01*
X162719678Y-74435000D01*
X163880322Y-74435000D01*
X164120516Y-74411343D01*
X164428715Y-74317852D01*
X164712752Y-74166031D01*
X164961714Y-73961714D01*
X165166031Y-73712752D01*
X165317852Y-73428715D01*
X165411343Y-73120516D01*
X165442911Y-72800000D01*
X165411343Y-72479484D01*
X165317852Y-72171285D01*
X165166031Y-71887248D01*
X165087471Y-71791522D01*
X165139502Y-71694180D01*
X165175812Y-71574482D01*
X165188072Y-71450000D01*
X165188072Y-69950000D01*
X165175812Y-69825518D01*
X165139502Y-69705820D01*
X165080537Y-69595506D01*
X165001185Y-69498815D01*
X164961060Y-69465886D01*
X165085764Y-69232581D01*
X165164960Y-68971507D01*
X165191701Y-68700000D01*
X165164960Y-68428493D01*
X165085764Y-68167419D01*
X164957157Y-67926812D01*
X164784081Y-67715919D01*
X164764684Y-67700000D01*
X164784081Y-67684081D01*
X164957157Y-67473188D01*
X165085764Y-67232581D01*
X165164960Y-66971507D01*
X165191701Y-66700000D01*
X165164960Y-66428493D01*
X165085764Y-66167419D01*
X164957157Y-65926812D01*
X164878028Y-65830393D01*
X164961714Y-65761714D01*
X165166031Y-65512752D01*
X165317852Y-65228715D01*
X165411343Y-64920516D01*
X165442911Y-64600000D01*
X165411343Y-64279484D01*
X165317852Y-63971285D01*
X165166031Y-63687248D01*
X164961714Y-63438286D01*
X164712752Y-63233969D01*
X164428715Y-63082148D01*
X164120516Y-62988657D01*
X163880322Y-62965000D01*
X162719678Y-62965000D01*
X162479484Y-62988657D01*
X162171285Y-63082148D01*
X161887248Y-63233969D01*
X161638286Y-63438286D01*
X161433969Y-63687248D01*
X161282148Y-63971285D01*
X161188657Y-64279484D01*
X161157089Y-64600000D01*
X147460000Y-64600000D01*
X147460000Y-57450000D01*
X156311928Y-57450000D01*
X156311928Y-58950000D01*
X156328992Y-59123254D01*
X156379528Y-59289850D01*
X156461595Y-59443386D01*
X156572038Y-59577962D01*
X156706614Y-59688405D01*
X156860150Y-59770472D01*
X157026746Y-59821008D01*
X157200000Y-59838072D01*
X158400000Y-59838072D01*
X158573254Y-59821008D01*
X158739850Y-59770472D01*
X158893386Y-59688405D01*
X159027962Y-59577962D01*
X159138405Y-59443386D01*
X159220472Y-59289850D01*
X159271008Y-59123254D01*
X159288072Y-58950000D01*
X159288072Y-57450000D01*
X159286595Y-57435000D01*
X159521637Y-57435000D01*
X159760236Y-57387540D01*
X159984992Y-57294443D01*
X160187267Y-57159287D01*
X160359287Y-56987267D01*
X160494443Y-56784992D01*
X160587540Y-56560236D01*
X160635000Y-56321637D01*
X160635000Y-56078363D01*
X160587540Y-55839764D01*
X160494443Y-55615008D01*
X160359287Y-55412733D01*
X160187267Y-55240713D01*
X159984992Y-55105557D01*
X159760236Y-55012460D01*
X159521637Y-54965000D01*
X159278363Y-54965000D01*
X159039764Y-55012460D01*
X158815008Y-55105557D01*
X158612733Y-55240713D01*
X158440713Y-55412733D01*
X158305557Y-55615008D01*
X158212460Y-55839764D01*
X158165000Y-56078363D01*
X158165000Y-56321637D01*
X158212460Y-56560236D01*
X158213161Y-56561928D01*
X157200000Y-56561928D01*
X157026746Y-56578992D01*
X156860150Y-56629528D01*
X156706614Y-56711595D01*
X156572038Y-56822038D01*
X156461595Y-56956614D01*
X156379528Y-57110150D01*
X156328992Y-57276746D01*
X156311928Y-57450000D01*
X147460000Y-57450000D01*
X147460000Y-47360000D01*
X165640000Y-47360000D01*
X165640001Y-91240000D01*
%TA.AperFunction,Conductor*%
D17*
G36*
X165640001Y-91240000D02*
G01*
X158349681Y-91240000D01*
X158542095Y-91160299D01*
X158793505Y-90992312D01*
X159007312Y-90778505D01*
X159175299Y-90527095D01*
X159291011Y-90247743D01*
X159350000Y-89951184D01*
X159350000Y-89648816D01*
X159291011Y-89352257D01*
X159175299Y-89072905D01*
X159007312Y-88821495D01*
X158793505Y-88607688D01*
X158542095Y-88439701D01*
X158262743Y-88323989D01*
X157966184Y-88265000D01*
X157663816Y-88265000D01*
X157367257Y-88323989D01*
X157087905Y-88439701D01*
X156836495Y-88607688D01*
X156622688Y-88821495D01*
X156454701Y-89072905D01*
X156338989Y-89352257D01*
X156280000Y-89648816D01*
X156280000Y-89951184D01*
X156338989Y-90247743D01*
X156454701Y-90527095D01*
X156622688Y-90778505D01*
X156836495Y-90992312D01*
X157087905Y-91160299D01*
X157280319Y-91240000D01*
X147460000Y-91240000D01*
X147460000Y-82648816D01*
X156280000Y-82648816D01*
X156280000Y-82951184D01*
X156338989Y-83247743D01*
X156454701Y-83527095D01*
X156622688Y-83778505D01*
X156836495Y-83992312D01*
X157087905Y-84160299D01*
X157367257Y-84276011D01*
X157663816Y-84335000D01*
X157966184Y-84335000D01*
X158262743Y-84276011D01*
X158542095Y-84160299D01*
X158793505Y-83992312D01*
X159007312Y-83778505D01*
X159175299Y-83527095D01*
X159291011Y-83247743D01*
X159350000Y-82951184D01*
X159350000Y-82648816D01*
X159291011Y-82352257D01*
X159175299Y-82072905D01*
X159007312Y-81821495D01*
X158793505Y-81607688D01*
X158542095Y-81439701D01*
X158262743Y-81323989D01*
X157966184Y-81265000D01*
X157663816Y-81265000D01*
X157367257Y-81323989D01*
X157087905Y-81439701D01*
X156836495Y-81607688D01*
X156622688Y-81821495D01*
X156454701Y-82072905D01*
X156338989Y-82352257D01*
X156280000Y-82648816D01*
X147460000Y-82648816D01*
X147460000Y-75648816D01*
X156280000Y-75648816D01*
X156280000Y-75951184D01*
X156338989Y-76247743D01*
X156454701Y-76527095D01*
X156622688Y-76778505D01*
X156836495Y-76992312D01*
X157087905Y-77160299D01*
X157367257Y-77276011D01*
X157663816Y-77335000D01*
X157966184Y-77335000D01*
X158262743Y-77276011D01*
X158542095Y-77160299D01*
X158793505Y-76992312D01*
X159007312Y-76778505D01*
X159175299Y-76527095D01*
X159291011Y-76247743D01*
X159350000Y-75951184D01*
X159350000Y-75648816D01*
X159291011Y-75352257D01*
X159175299Y-75072905D01*
X159007312Y-74821495D01*
X158793505Y-74607688D01*
X158542095Y-74439701D01*
X158262743Y-74323989D01*
X157966184Y-74265000D01*
X157663816Y-74265000D01*
X157367257Y-74323989D01*
X157087905Y-74439701D01*
X156836495Y-74607688D01*
X156622688Y-74821495D01*
X156454701Y-75072905D01*
X156338989Y-75352257D01*
X156280000Y-75648816D01*
X147460000Y-75648816D01*
X147460000Y-68648816D01*
X156280000Y-68648816D01*
X156280000Y-68951184D01*
X156338989Y-69247743D01*
X156454701Y-69527095D01*
X156622688Y-69778505D01*
X156836495Y-69992312D01*
X157087905Y-70160299D01*
X157367257Y-70276011D01*
X157663816Y-70335000D01*
X157966184Y-70335000D01*
X158262743Y-70276011D01*
X158542095Y-70160299D01*
X158793505Y-69992312D01*
X159007312Y-69778505D01*
X159175299Y-69527095D01*
X159291011Y-69247743D01*
X159350000Y-68951184D01*
X159350000Y-68648816D01*
X159291011Y-68352257D01*
X159175299Y-68072905D01*
X159007312Y-67821495D01*
X158793505Y-67607688D01*
X158542095Y-67439701D01*
X158262743Y-67323989D01*
X157966184Y-67265000D01*
X157663816Y-67265000D01*
X157367257Y-67323989D01*
X157087905Y-67439701D01*
X156836495Y-67607688D01*
X156622688Y-67821495D01*
X156454701Y-68072905D01*
X156338989Y-68352257D01*
X156280000Y-68648816D01*
X147460000Y-68648816D01*
X147460000Y-64600000D01*
X161157089Y-64600000D01*
X161188657Y-64920516D01*
X161282148Y-65228715D01*
X161433969Y-65512752D01*
X161638286Y-65761714D01*
X161721972Y-65830393D01*
X161642843Y-65926812D01*
X161514236Y-66167419D01*
X161435040Y-66428493D01*
X161408299Y-66700000D01*
X161435040Y-66971507D01*
X161514236Y-67232581D01*
X161642843Y-67473188D01*
X161815919Y-67684081D01*
X161835316Y-67700000D01*
X161815919Y-67715919D01*
X161642843Y-67926812D01*
X161514236Y-68167419D01*
X161435040Y-68428493D01*
X161408299Y-68700000D01*
X161435040Y-68971507D01*
X161514236Y-69232581D01*
X161638940Y-69465886D01*
X161598815Y-69498815D01*
X161519463Y-69595506D01*
X161460498Y-69705820D01*
X161424188Y-69825518D01*
X161411928Y-69950000D01*
X161411928Y-71450000D01*
X161424188Y-71574482D01*
X161460498Y-71694180D01*
X161512529Y-71791522D01*
X161433969Y-71887248D01*
X161282148Y-72171285D01*
X161188657Y-72479484D01*
X161157089Y-72800000D01*
X161188657Y-73120516D01*
X161282148Y-73428715D01*
X161433969Y-73712752D01*
X161638286Y-73961714D01*
X161887248Y-74166031D01*
X162171285Y-74317852D01*
X162479484Y-74411343D01*
X162719678Y-74435000D01*
X163880322Y-74435000D01*
X164120516Y-74411343D01*
X164428715Y-74317852D01*
X164712752Y-74166031D01*
X164961714Y-73961714D01*
X165166031Y-73712752D01*
X165317852Y-73428715D01*
X165411343Y-73120516D01*
X165442911Y-72800000D01*
X165411343Y-72479484D01*
X165317852Y-72171285D01*
X165166031Y-71887248D01*
X165087471Y-71791522D01*
X165139502Y-71694180D01*
X165175812Y-71574482D01*
X165188072Y-71450000D01*
X165188072Y-69950000D01*
X165175812Y-69825518D01*
X165139502Y-69705820D01*
X165080537Y-69595506D01*
X165001185Y-69498815D01*
X164961060Y-69465886D01*
X165085764Y-69232581D01*
X165164960Y-68971507D01*
X165191701Y-68700000D01*
X165164960Y-68428493D01*
X165085764Y-68167419D01*
X164957157Y-67926812D01*
X164784081Y-67715919D01*
X164764684Y-67700000D01*
X164784081Y-67684081D01*
X164957157Y-67473188D01*
X165085764Y-67232581D01*
X165164960Y-66971507D01*
X165191701Y-66700000D01*
X165164960Y-66428493D01*
X165085764Y-66167419D01*
X164957157Y-65926812D01*
X164878028Y-65830393D01*
X164961714Y-65761714D01*
X165166031Y-65512752D01*
X165317852Y-65228715D01*
X165411343Y-64920516D01*
X165442911Y-64600000D01*
X165411343Y-64279484D01*
X165317852Y-63971285D01*
X165166031Y-63687248D01*
X164961714Y-63438286D01*
X164712752Y-63233969D01*
X164428715Y-63082148D01*
X164120516Y-62988657D01*
X163880322Y-62965000D01*
X162719678Y-62965000D01*
X162479484Y-62988657D01*
X162171285Y-63082148D01*
X161887248Y-63233969D01*
X161638286Y-63438286D01*
X161433969Y-63687248D01*
X161282148Y-63971285D01*
X161188657Y-64279484D01*
X161157089Y-64600000D01*
X147460000Y-64600000D01*
X147460000Y-57450000D01*
X156311928Y-57450000D01*
X156311928Y-58950000D01*
X156328992Y-59123254D01*
X156379528Y-59289850D01*
X156461595Y-59443386D01*
X156572038Y-59577962D01*
X156706614Y-59688405D01*
X156860150Y-59770472D01*
X157026746Y-59821008D01*
X157200000Y-59838072D01*
X158400000Y-59838072D01*
X158573254Y-59821008D01*
X158739850Y-59770472D01*
X158893386Y-59688405D01*
X159027962Y-59577962D01*
X159138405Y-59443386D01*
X159220472Y-59289850D01*
X159271008Y-59123254D01*
X159288072Y-58950000D01*
X159288072Y-57450000D01*
X159286595Y-57435000D01*
X159521637Y-57435000D01*
X159760236Y-57387540D01*
X159984992Y-57294443D01*
X160187267Y-57159287D01*
X160359287Y-56987267D01*
X160494443Y-56784992D01*
X160587540Y-56560236D01*
X160635000Y-56321637D01*
X160635000Y-56078363D01*
X160587540Y-55839764D01*
X160494443Y-55615008D01*
X160359287Y-55412733D01*
X160187267Y-55240713D01*
X159984992Y-55105557D01*
X159760236Y-55012460D01*
X159521637Y-54965000D01*
X159278363Y-54965000D01*
X159039764Y-55012460D01*
X158815008Y-55105557D01*
X158612733Y-55240713D01*
X158440713Y-55412733D01*
X158305557Y-55615008D01*
X158212460Y-55839764D01*
X158165000Y-56078363D01*
X158165000Y-56321637D01*
X158212460Y-56560236D01*
X158213161Y-56561928D01*
X157200000Y-56561928D01*
X157026746Y-56578992D01*
X156860150Y-56629528D01*
X156706614Y-56711595D01*
X156572038Y-56822038D01*
X156461595Y-56956614D01*
X156379528Y-57110150D01*
X156328992Y-57276746D01*
X156311928Y-57450000D01*
X147460000Y-57450000D01*
X147460000Y-47360000D01*
X165640000Y-47360000D01*
X165640001Y-91240000D01*
G37*
%TD.AperFunction*%
%TD*%
D16*
%TO.N,Net-(D1-Pad1)*%
X185140001Y-91240000D02*
X177849681Y-91240000D01*
X178042095Y-91160299D01*
X178293505Y-90992312D01*
X178507312Y-90778505D01*
X178675299Y-90527095D01*
X178791011Y-90247743D01*
X178850000Y-89951184D01*
X178850000Y-89648816D01*
X178791011Y-89352257D01*
X178675299Y-89072905D01*
X178507312Y-88821495D01*
X178293505Y-88607688D01*
X178042095Y-88439701D01*
X177762743Y-88323989D01*
X177466184Y-88265000D01*
X177163816Y-88265000D01*
X176867257Y-88323989D01*
X176587905Y-88439701D01*
X176336495Y-88607688D01*
X176122688Y-88821495D01*
X175954701Y-89072905D01*
X175838989Y-89352257D01*
X175780000Y-89648816D01*
X175780000Y-89951184D01*
X175838989Y-90247743D01*
X175954701Y-90527095D01*
X176122688Y-90778505D01*
X176336495Y-90992312D01*
X176587905Y-91160299D01*
X176780319Y-91240000D01*
X166960000Y-91240000D01*
X166960000Y-82648816D01*
X175780000Y-82648816D01*
X175780000Y-82951184D01*
X175838989Y-83247743D01*
X175954701Y-83527095D01*
X176122688Y-83778505D01*
X176336495Y-83992312D01*
X176587905Y-84160299D01*
X176867257Y-84276011D01*
X177163816Y-84335000D01*
X177466184Y-84335000D01*
X177762743Y-84276011D01*
X178042095Y-84160299D01*
X178293505Y-83992312D01*
X178507312Y-83778505D01*
X178675299Y-83527095D01*
X178791011Y-83247743D01*
X178850000Y-82951184D01*
X178850000Y-82648816D01*
X178791011Y-82352257D01*
X178675299Y-82072905D01*
X178507312Y-81821495D01*
X178293505Y-81607688D01*
X178042095Y-81439701D01*
X177762743Y-81323989D01*
X177466184Y-81265000D01*
X177163816Y-81265000D01*
X176867257Y-81323989D01*
X176587905Y-81439701D01*
X176336495Y-81607688D01*
X176122688Y-81821495D01*
X175954701Y-82072905D01*
X175838989Y-82352257D01*
X175780000Y-82648816D01*
X166960000Y-82648816D01*
X166960000Y-75648816D01*
X175780000Y-75648816D01*
X175780000Y-75951184D01*
X175838989Y-76247743D01*
X175954701Y-76527095D01*
X176122688Y-76778505D01*
X176336495Y-76992312D01*
X176587905Y-77160299D01*
X176867257Y-77276011D01*
X177163816Y-77335000D01*
X177466184Y-77335000D01*
X177762743Y-77276011D01*
X178042095Y-77160299D01*
X178293505Y-76992312D01*
X178507312Y-76778505D01*
X178675299Y-76527095D01*
X178791011Y-76247743D01*
X178850000Y-75951184D01*
X178850000Y-75648816D01*
X178791011Y-75352257D01*
X178675299Y-75072905D01*
X178507312Y-74821495D01*
X178293505Y-74607688D01*
X178042095Y-74439701D01*
X177762743Y-74323989D01*
X177466184Y-74265000D01*
X177163816Y-74265000D01*
X176867257Y-74323989D01*
X176587905Y-74439701D01*
X176336495Y-74607688D01*
X176122688Y-74821495D01*
X175954701Y-75072905D01*
X175838989Y-75352257D01*
X175780000Y-75648816D01*
X166960000Y-75648816D01*
X166960000Y-68648816D01*
X175780000Y-68648816D01*
X175780000Y-68951184D01*
X175838989Y-69247743D01*
X175954701Y-69527095D01*
X176122688Y-69778505D01*
X176336495Y-69992312D01*
X176587905Y-70160299D01*
X176867257Y-70276011D01*
X177163816Y-70335000D01*
X177466184Y-70335000D01*
X177762743Y-70276011D01*
X178042095Y-70160299D01*
X178293505Y-69992312D01*
X178507312Y-69778505D01*
X178675299Y-69527095D01*
X178791011Y-69247743D01*
X178850000Y-68951184D01*
X178850000Y-68648816D01*
X178791011Y-68352257D01*
X178675299Y-68072905D01*
X178507312Y-67821495D01*
X178293505Y-67607688D01*
X178042095Y-67439701D01*
X177762743Y-67323989D01*
X177466184Y-67265000D01*
X177163816Y-67265000D01*
X176867257Y-67323989D01*
X176587905Y-67439701D01*
X176336495Y-67607688D01*
X176122688Y-67821495D01*
X175954701Y-68072905D01*
X175838989Y-68352257D01*
X175780000Y-68648816D01*
X166960000Y-68648816D01*
X166960000Y-64600000D01*
X180657089Y-64600000D01*
X180688657Y-64920516D01*
X180782148Y-65228715D01*
X180933969Y-65512752D01*
X181138286Y-65761714D01*
X181221972Y-65830393D01*
X181142843Y-65926812D01*
X181014236Y-66167419D01*
X180935040Y-66428493D01*
X180908299Y-66700000D01*
X180935040Y-66971507D01*
X181014236Y-67232581D01*
X181142843Y-67473188D01*
X181315919Y-67684081D01*
X181335316Y-67700000D01*
X181315919Y-67715919D01*
X181142843Y-67926812D01*
X181014236Y-68167419D01*
X180935040Y-68428493D01*
X180908299Y-68700000D01*
X180935040Y-68971507D01*
X181014236Y-69232581D01*
X181138940Y-69465886D01*
X181098815Y-69498815D01*
X181019463Y-69595506D01*
X180960498Y-69705820D01*
X180924188Y-69825518D01*
X180911928Y-69950000D01*
X180911928Y-71450000D01*
X180924188Y-71574482D01*
X180960498Y-71694180D01*
X181012529Y-71791522D01*
X180933969Y-71887248D01*
X180782148Y-72171285D01*
X180688657Y-72479484D01*
X180657089Y-72800000D01*
X180688657Y-73120516D01*
X180782148Y-73428715D01*
X180933969Y-73712752D01*
X181138286Y-73961714D01*
X181387248Y-74166031D01*
X181671285Y-74317852D01*
X181979484Y-74411343D01*
X182219678Y-74435000D01*
X183380322Y-74435000D01*
X183620516Y-74411343D01*
X183928715Y-74317852D01*
X184212752Y-74166031D01*
X184461714Y-73961714D01*
X184666031Y-73712752D01*
X184817852Y-73428715D01*
X184911343Y-73120516D01*
X184942911Y-72800000D01*
X184911343Y-72479484D01*
X184817852Y-72171285D01*
X184666031Y-71887248D01*
X184587471Y-71791522D01*
X184639502Y-71694180D01*
X184675812Y-71574482D01*
X184688072Y-71450000D01*
X184688072Y-69950000D01*
X184675812Y-69825518D01*
X184639502Y-69705820D01*
X184580537Y-69595506D01*
X184501185Y-69498815D01*
X184461060Y-69465886D01*
X184585764Y-69232581D01*
X184664960Y-68971507D01*
X184691701Y-68700000D01*
X184664960Y-68428493D01*
X184585764Y-68167419D01*
X184457157Y-67926812D01*
X184284081Y-67715919D01*
X184264684Y-67700000D01*
X184284081Y-67684081D01*
X184457157Y-67473188D01*
X184585764Y-67232581D01*
X184664960Y-66971507D01*
X184691701Y-66700000D01*
X184664960Y-66428493D01*
X184585764Y-66167419D01*
X184457157Y-65926812D01*
X184378028Y-65830393D01*
X184461714Y-65761714D01*
X184666031Y-65512752D01*
X184817852Y-65228715D01*
X184911343Y-64920516D01*
X184942911Y-64600000D01*
X184911343Y-64279484D01*
X184817852Y-63971285D01*
X184666031Y-63687248D01*
X184461714Y-63438286D01*
X184212752Y-63233969D01*
X183928715Y-63082148D01*
X183620516Y-62988657D01*
X183380322Y-62965000D01*
X182219678Y-62965000D01*
X181979484Y-62988657D01*
X181671285Y-63082148D01*
X181387248Y-63233969D01*
X181138286Y-63438286D01*
X180933969Y-63687248D01*
X180782148Y-63971285D01*
X180688657Y-64279484D01*
X180657089Y-64600000D01*
X166960000Y-64600000D01*
X166960000Y-57450000D01*
X175811928Y-57450000D01*
X175811928Y-58950000D01*
X175828992Y-59123254D01*
X175879528Y-59289850D01*
X175961595Y-59443386D01*
X176072038Y-59577962D01*
X176206614Y-59688405D01*
X176360150Y-59770472D01*
X176526746Y-59821008D01*
X176700000Y-59838072D01*
X177900000Y-59838072D01*
X178073254Y-59821008D01*
X178239850Y-59770472D01*
X178393386Y-59688405D01*
X178527962Y-59577962D01*
X178638405Y-59443386D01*
X178720472Y-59289850D01*
X178771008Y-59123254D01*
X178788072Y-58950000D01*
X178788072Y-57450000D01*
X178786595Y-57435000D01*
X179021637Y-57435000D01*
X179260236Y-57387540D01*
X179484992Y-57294443D01*
X179687267Y-57159287D01*
X179859287Y-56987267D01*
X179994443Y-56784992D01*
X180087540Y-56560236D01*
X180135000Y-56321637D01*
X180135000Y-56078363D01*
X180087540Y-55839764D01*
X179994443Y-55615008D01*
X179859287Y-55412733D01*
X179687267Y-55240713D01*
X179484992Y-55105557D01*
X179260236Y-55012460D01*
X179021637Y-54965000D01*
X178778363Y-54965000D01*
X178539764Y-55012460D01*
X178315008Y-55105557D01*
X178112733Y-55240713D01*
X177940713Y-55412733D01*
X177805557Y-55615008D01*
X177712460Y-55839764D01*
X177665000Y-56078363D01*
X177665000Y-56321637D01*
X177712460Y-56560236D01*
X177713161Y-56561928D01*
X176700000Y-56561928D01*
X176526746Y-56578992D01*
X176360150Y-56629528D01*
X176206614Y-56711595D01*
X176072038Y-56822038D01*
X175961595Y-56956614D01*
X175879528Y-57110150D01*
X175828992Y-57276746D01*
X175811928Y-57450000D01*
X166960000Y-57450000D01*
X166960000Y-47360000D01*
X185140000Y-47360000D01*
X185140001Y-91240000D01*
%TA.AperFunction,Conductor*%
D17*
G36*
X185140001Y-91240000D02*
G01*
X177849681Y-91240000D01*
X178042095Y-91160299D01*
X178293505Y-90992312D01*
X178507312Y-90778505D01*
X178675299Y-90527095D01*
X178791011Y-90247743D01*
X178850000Y-89951184D01*
X178850000Y-89648816D01*
X178791011Y-89352257D01*
X178675299Y-89072905D01*
X178507312Y-88821495D01*
X178293505Y-88607688D01*
X178042095Y-88439701D01*
X177762743Y-88323989D01*
X177466184Y-88265000D01*
X177163816Y-88265000D01*
X176867257Y-88323989D01*
X176587905Y-88439701D01*
X176336495Y-88607688D01*
X176122688Y-88821495D01*
X175954701Y-89072905D01*
X175838989Y-89352257D01*
X175780000Y-89648816D01*
X175780000Y-89951184D01*
X175838989Y-90247743D01*
X175954701Y-90527095D01*
X176122688Y-90778505D01*
X176336495Y-90992312D01*
X176587905Y-91160299D01*
X176780319Y-91240000D01*
X166960000Y-91240000D01*
X166960000Y-82648816D01*
X175780000Y-82648816D01*
X175780000Y-82951184D01*
X175838989Y-83247743D01*
X175954701Y-83527095D01*
X176122688Y-83778505D01*
X176336495Y-83992312D01*
X176587905Y-84160299D01*
X176867257Y-84276011D01*
X177163816Y-84335000D01*
X177466184Y-84335000D01*
X177762743Y-84276011D01*
X178042095Y-84160299D01*
X178293505Y-83992312D01*
X178507312Y-83778505D01*
X178675299Y-83527095D01*
X178791011Y-83247743D01*
X178850000Y-82951184D01*
X178850000Y-82648816D01*
X178791011Y-82352257D01*
X178675299Y-82072905D01*
X178507312Y-81821495D01*
X178293505Y-81607688D01*
X178042095Y-81439701D01*
X177762743Y-81323989D01*
X177466184Y-81265000D01*
X177163816Y-81265000D01*
X176867257Y-81323989D01*
X176587905Y-81439701D01*
X176336495Y-81607688D01*
X176122688Y-81821495D01*
X175954701Y-82072905D01*
X175838989Y-82352257D01*
X175780000Y-82648816D01*
X166960000Y-82648816D01*
X166960000Y-75648816D01*
X175780000Y-75648816D01*
X175780000Y-75951184D01*
X175838989Y-76247743D01*
X175954701Y-76527095D01*
X176122688Y-76778505D01*
X176336495Y-76992312D01*
X176587905Y-77160299D01*
X176867257Y-77276011D01*
X177163816Y-77335000D01*
X177466184Y-77335000D01*
X177762743Y-77276011D01*
X178042095Y-77160299D01*
X178293505Y-76992312D01*
X178507312Y-76778505D01*
X178675299Y-76527095D01*
X178791011Y-76247743D01*
X178850000Y-75951184D01*
X178850000Y-75648816D01*
X178791011Y-75352257D01*
X178675299Y-75072905D01*
X178507312Y-74821495D01*
X178293505Y-74607688D01*
X178042095Y-74439701D01*
X177762743Y-74323989D01*
X177466184Y-74265000D01*
X177163816Y-74265000D01*
X176867257Y-74323989D01*
X176587905Y-74439701D01*
X176336495Y-74607688D01*
X176122688Y-74821495D01*
X175954701Y-75072905D01*
X175838989Y-75352257D01*
X175780000Y-75648816D01*
X166960000Y-75648816D01*
X166960000Y-68648816D01*
X175780000Y-68648816D01*
X175780000Y-68951184D01*
X175838989Y-69247743D01*
X175954701Y-69527095D01*
X176122688Y-69778505D01*
X176336495Y-69992312D01*
X176587905Y-70160299D01*
X176867257Y-70276011D01*
X177163816Y-70335000D01*
X177466184Y-70335000D01*
X177762743Y-70276011D01*
X178042095Y-70160299D01*
X178293505Y-69992312D01*
X178507312Y-69778505D01*
X178675299Y-69527095D01*
X178791011Y-69247743D01*
X178850000Y-68951184D01*
X178850000Y-68648816D01*
X178791011Y-68352257D01*
X178675299Y-68072905D01*
X178507312Y-67821495D01*
X178293505Y-67607688D01*
X178042095Y-67439701D01*
X177762743Y-67323989D01*
X177466184Y-67265000D01*
X177163816Y-67265000D01*
X176867257Y-67323989D01*
X176587905Y-67439701D01*
X176336495Y-67607688D01*
X176122688Y-67821495D01*
X175954701Y-68072905D01*
X175838989Y-68352257D01*
X175780000Y-68648816D01*
X166960000Y-68648816D01*
X166960000Y-64600000D01*
X180657089Y-64600000D01*
X180688657Y-64920516D01*
X180782148Y-65228715D01*
X180933969Y-65512752D01*
X181138286Y-65761714D01*
X181221972Y-65830393D01*
X181142843Y-65926812D01*
X181014236Y-66167419D01*
X180935040Y-66428493D01*
X180908299Y-66700000D01*
X180935040Y-66971507D01*
X181014236Y-67232581D01*
X181142843Y-67473188D01*
X181315919Y-67684081D01*
X181335316Y-67700000D01*
X181315919Y-67715919D01*
X181142843Y-67926812D01*
X181014236Y-68167419D01*
X180935040Y-68428493D01*
X180908299Y-68700000D01*
X180935040Y-68971507D01*
X181014236Y-69232581D01*
X181138940Y-69465886D01*
X181098815Y-69498815D01*
X181019463Y-69595506D01*
X180960498Y-69705820D01*
X180924188Y-69825518D01*
X180911928Y-69950000D01*
X180911928Y-71450000D01*
X180924188Y-71574482D01*
X180960498Y-71694180D01*
X181012529Y-71791522D01*
X180933969Y-71887248D01*
X180782148Y-72171285D01*
X180688657Y-72479484D01*
X180657089Y-72800000D01*
X180688657Y-73120516D01*
X180782148Y-73428715D01*
X180933969Y-73712752D01*
X181138286Y-73961714D01*
X181387248Y-74166031D01*
X181671285Y-74317852D01*
X181979484Y-74411343D01*
X182219678Y-74435000D01*
X183380322Y-74435000D01*
X183620516Y-74411343D01*
X183928715Y-74317852D01*
X184212752Y-74166031D01*
X184461714Y-73961714D01*
X184666031Y-73712752D01*
X184817852Y-73428715D01*
X184911343Y-73120516D01*
X184942911Y-72800000D01*
X184911343Y-72479484D01*
X184817852Y-72171285D01*
X184666031Y-71887248D01*
X184587471Y-71791522D01*
X184639502Y-71694180D01*
X184675812Y-71574482D01*
X184688072Y-71450000D01*
X184688072Y-69950000D01*
X184675812Y-69825518D01*
X184639502Y-69705820D01*
X184580537Y-69595506D01*
X184501185Y-69498815D01*
X184461060Y-69465886D01*
X184585764Y-69232581D01*
X184664960Y-68971507D01*
X184691701Y-68700000D01*
X184664960Y-68428493D01*
X184585764Y-68167419D01*
X184457157Y-67926812D01*
X184284081Y-67715919D01*
X184264684Y-67700000D01*
X184284081Y-67684081D01*
X184457157Y-67473188D01*
X184585764Y-67232581D01*
X184664960Y-66971507D01*
X184691701Y-66700000D01*
X184664960Y-66428493D01*
X184585764Y-66167419D01*
X184457157Y-65926812D01*
X184378028Y-65830393D01*
X184461714Y-65761714D01*
X184666031Y-65512752D01*
X184817852Y-65228715D01*
X184911343Y-64920516D01*
X184942911Y-64600000D01*
X184911343Y-64279484D01*
X184817852Y-63971285D01*
X184666031Y-63687248D01*
X184461714Y-63438286D01*
X184212752Y-63233969D01*
X183928715Y-63082148D01*
X183620516Y-62988657D01*
X183380322Y-62965000D01*
X182219678Y-62965000D01*
X181979484Y-62988657D01*
X181671285Y-63082148D01*
X181387248Y-63233969D01*
X181138286Y-63438286D01*
X180933969Y-63687248D01*
X180782148Y-63971285D01*
X180688657Y-64279484D01*
X180657089Y-64600000D01*
X166960000Y-64600000D01*
X166960000Y-57450000D01*
X175811928Y-57450000D01*
X175811928Y-58950000D01*
X175828992Y-59123254D01*
X175879528Y-59289850D01*
X175961595Y-59443386D01*
X176072038Y-59577962D01*
X176206614Y-59688405D01*
X176360150Y-59770472D01*
X176526746Y-59821008D01*
X176700000Y-59838072D01*
X177900000Y-59838072D01*
X178073254Y-59821008D01*
X178239850Y-59770472D01*
X178393386Y-59688405D01*
X178527962Y-59577962D01*
X178638405Y-59443386D01*
X178720472Y-59289850D01*
X178771008Y-59123254D01*
X178788072Y-58950000D01*
X178788072Y-57450000D01*
X178786595Y-57435000D01*
X179021637Y-57435000D01*
X179260236Y-57387540D01*
X179484992Y-57294443D01*
X179687267Y-57159287D01*
X179859287Y-56987267D01*
X179994443Y-56784992D01*
X180087540Y-56560236D01*
X180135000Y-56321637D01*
X180135000Y-56078363D01*
X180087540Y-55839764D01*
X179994443Y-55615008D01*
X179859287Y-55412733D01*
X179687267Y-55240713D01*
X179484992Y-55105557D01*
X179260236Y-55012460D01*
X179021637Y-54965000D01*
X178778363Y-54965000D01*
X178539764Y-55012460D01*
X178315008Y-55105557D01*
X178112733Y-55240713D01*
X177940713Y-55412733D01*
X177805557Y-55615008D01*
X177712460Y-55839764D01*
X177665000Y-56078363D01*
X177665000Y-56321637D01*
X177712460Y-56560236D01*
X177713161Y-56561928D01*
X176700000Y-56561928D01*
X176526746Y-56578992D01*
X176360150Y-56629528D01*
X176206614Y-56711595D01*
X176072038Y-56822038D01*
X175961595Y-56956614D01*
X175879528Y-57110150D01*
X175828992Y-57276746D01*
X175811928Y-57450000D01*
X166960000Y-57450000D01*
X166960000Y-47360000D01*
X185140000Y-47360000D01*
X185140001Y-91240000D01*
G37*
%TD.AperFunction*%
%TD*%
D16*
%TO.N,Net-(D1-Pad1)*%
X107140001Y-136440000D02*
X99849681Y-136440000D01*
X100042095Y-136360299D01*
X100293505Y-136192312D01*
X100507312Y-135978505D01*
X100675299Y-135727095D01*
X100791011Y-135447743D01*
X100850000Y-135151184D01*
X100850000Y-134848816D01*
X100791011Y-134552257D01*
X100675299Y-134272905D01*
X100507312Y-134021495D01*
X100293505Y-133807688D01*
X100042095Y-133639701D01*
X99762743Y-133523989D01*
X99466184Y-133465000D01*
X99163816Y-133465000D01*
X98867257Y-133523989D01*
X98587905Y-133639701D01*
X98336495Y-133807688D01*
X98122688Y-134021495D01*
X97954701Y-134272905D01*
X97838989Y-134552257D01*
X97780000Y-134848816D01*
X97780000Y-135151184D01*
X97838989Y-135447743D01*
X97954701Y-135727095D01*
X98122688Y-135978505D01*
X98336495Y-136192312D01*
X98587905Y-136360299D01*
X98780319Y-136440000D01*
X88960000Y-136440000D01*
X88960000Y-127848816D01*
X97780000Y-127848816D01*
X97780000Y-128151184D01*
X97838989Y-128447743D01*
X97954701Y-128727095D01*
X98122688Y-128978505D01*
X98336495Y-129192312D01*
X98587905Y-129360299D01*
X98867257Y-129476011D01*
X99163816Y-129535000D01*
X99466184Y-129535000D01*
X99762743Y-129476011D01*
X100042095Y-129360299D01*
X100293505Y-129192312D01*
X100507312Y-128978505D01*
X100675299Y-128727095D01*
X100791011Y-128447743D01*
X100850000Y-128151184D01*
X100850000Y-127848816D01*
X100791011Y-127552257D01*
X100675299Y-127272905D01*
X100507312Y-127021495D01*
X100293505Y-126807688D01*
X100042095Y-126639701D01*
X99762743Y-126523989D01*
X99466184Y-126465000D01*
X99163816Y-126465000D01*
X98867257Y-126523989D01*
X98587905Y-126639701D01*
X98336495Y-126807688D01*
X98122688Y-127021495D01*
X97954701Y-127272905D01*
X97838989Y-127552257D01*
X97780000Y-127848816D01*
X88960000Y-127848816D01*
X88960000Y-120848816D01*
X97780000Y-120848816D01*
X97780000Y-121151184D01*
X97838989Y-121447743D01*
X97954701Y-121727095D01*
X98122688Y-121978505D01*
X98336495Y-122192312D01*
X98587905Y-122360299D01*
X98867257Y-122476011D01*
X99163816Y-122535000D01*
X99466184Y-122535000D01*
X99762743Y-122476011D01*
X100042095Y-122360299D01*
X100293505Y-122192312D01*
X100507312Y-121978505D01*
X100675299Y-121727095D01*
X100791011Y-121447743D01*
X100850000Y-121151184D01*
X100850000Y-120848816D01*
X100791011Y-120552257D01*
X100675299Y-120272905D01*
X100507312Y-120021495D01*
X100293505Y-119807688D01*
X100042095Y-119639701D01*
X99762743Y-119523989D01*
X99466184Y-119465000D01*
X99163816Y-119465000D01*
X98867257Y-119523989D01*
X98587905Y-119639701D01*
X98336495Y-119807688D01*
X98122688Y-120021495D01*
X97954701Y-120272905D01*
X97838989Y-120552257D01*
X97780000Y-120848816D01*
X88960000Y-120848816D01*
X88960000Y-113848816D01*
X97780000Y-113848816D01*
X97780000Y-114151184D01*
X97838989Y-114447743D01*
X97954701Y-114727095D01*
X98122688Y-114978505D01*
X98336495Y-115192312D01*
X98587905Y-115360299D01*
X98867257Y-115476011D01*
X99163816Y-115535000D01*
X99466184Y-115535000D01*
X99762743Y-115476011D01*
X100042095Y-115360299D01*
X100293505Y-115192312D01*
X100507312Y-114978505D01*
X100675299Y-114727095D01*
X100791011Y-114447743D01*
X100850000Y-114151184D01*
X100850000Y-113848816D01*
X100791011Y-113552257D01*
X100675299Y-113272905D01*
X100507312Y-113021495D01*
X100293505Y-112807688D01*
X100042095Y-112639701D01*
X99762743Y-112523989D01*
X99466184Y-112465000D01*
X99163816Y-112465000D01*
X98867257Y-112523989D01*
X98587905Y-112639701D01*
X98336495Y-112807688D01*
X98122688Y-113021495D01*
X97954701Y-113272905D01*
X97838989Y-113552257D01*
X97780000Y-113848816D01*
X88960000Y-113848816D01*
X88960000Y-109800000D01*
X102657089Y-109800000D01*
X102688657Y-110120516D01*
X102782148Y-110428715D01*
X102933969Y-110712752D01*
X103138286Y-110961714D01*
X103221972Y-111030393D01*
X103142843Y-111126812D01*
X103014236Y-111367419D01*
X102935040Y-111628493D01*
X102908299Y-111900000D01*
X102935040Y-112171507D01*
X103014236Y-112432581D01*
X103142843Y-112673188D01*
X103315919Y-112884081D01*
X103335316Y-112900000D01*
X103315919Y-112915919D01*
X103142843Y-113126812D01*
X103014236Y-113367419D01*
X102935040Y-113628493D01*
X102908299Y-113900000D01*
X102935040Y-114171507D01*
X103014236Y-114432581D01*
X103138940Y-114665886D01*
X103098815Y-114698815D01*
X103019463Y-114795506D01*
X102960498Y-114905820D01*
X102924188Y-115025518D01*
X102911928Y-115150000D01*
X102911928Y-116650000D01*
X102924188Y-116774482D01*
X102960498Y-116894180D01*
X103012529Y-116991522D01*
X102933969Y-117087248D01*
X102782148Y-117371285D01*
X102688657Y-117679484D01*
X102657089Y-118000000D01*
X102688657Y-118320516D01*
X102782148Y-118628715D01*
X102933969Y-118912752D01*
X103138286Y-119161714D01*
X103387248Y-119366031D01*
X103671285Y-119517852D01*
X103979484Y-119611343D01*
X104219678Y-119635000D01*
X105380322Y-119635000D01*
X105620516Y-119611343D01*
X105928715Y-119517852D01*
X106212752Y-119366031D01*
X106461714Y-119161714D01*
X106666031Y-118912752D01*
X106817852Y-118628715D01*
X106911343Y-118320516D01*
X106942911Y-118000000D01*
X106911343Y-117679484D01*
X106817852Y-117371285D01*
X106666031Y-117087248D01*
X106587471Y-116991522D01*
X106639502Y-116894180D01*
X106675812Y-116774482D01*
X106688072Y-116650000D01*
X106688072Y-115150000D01*
X106675812Y-115025518D01*
X106639502Y-114905820D01*
X106580537Y-114795506D01*
X106501185Y-114698815D01*
X106461060Y-114665886D01*
X106585764Y-114432581D01*
X106664960Y-114171507D01*
X106691701Y-113900000D01*
X106664960Y-113628493D01*
X106585764Y-113367419D01*
X106457157Y-113126812D01*
X106284081Y-112915919D01*
X106264684Y-112900000D01*
X106284081Y-112884081D01*
X106457157Y-112673188D01*
X106585764Y-112432581D01*
X106664960Y-112171507D01*
X106691701Y-111900000D01*
X106664960Y-111628493D01*
X106585764Y-111367419D01*
X106457157Y-111126812D01*
X106378028Y-111030393D01*
X106461714Y-110961714D01*
X106666031Y-110712752D01*
X106817852Y-110428715D01*
X106911343Y-110120516D01*
X106942911Y-109800000D01*
X106911343Y-109479484D01*
X106817852Y-109171285D01*
X106666031Y-108887248D01*
X106461714Y-108638286D01*
X106212752Y-108433969D01*
X105928715Y-108282148D01*
X105620516Y-108188657D01*
X105380322Y-108165000D01*
X104219678Y-108165000D01*
X103979484Y-108188657D01*
X103671285Y-108282148D01*
X103387248Y-108433969D01*
X103138286Y-108638286D01*
X102933969Y-108887248D01*
X102782148Y-109171285D01*
X102688657Y-109479484D01*
X102657089Y-109800000D01*
X88960000Y-109800000D01*
X88960000Y-102650000D01*
X97811928Y-102650000D01*
X97811928Y-104150000D01*
X97828992Y-104323254D01*
X97879528Y-104489850D01*
X97961595Y-104643386D01*
X98072038Y-104777962D01*
X98206614Y-104888405D01*
X98360150Y-104970472D01*
X98526746Y-105021008D01*
X98700000Y-105038072D01*
X99900000Y-105038072D01*
X100073254Y-105021008D01*
X100239850Y-104970472D01*
X100393386Y-104888405D01*
X100527962Y-104777962D01*
X100638405Y-104643386D01*
X100720472Y-104489850D01*
X100771008Y-104323254D01*
X100788072Y-104150000D01*
X100788072Y-102650000D01*
X100786595Y-102635000D01*
X101021637Y-102635000D01*
X101260236Y-102587540D01*
X101484992Y-102494443D01*
X101687267Y-102359287D01*
X101859287Y-102187267D01*
X101994443Y-101984992D01*
X102087540Y-101760236D01*
X102135000Y-101521637D01*
X102135000Y-101278363D01*
X102087540Y-101039764D01*
X101994443Y-100815008D01*
X101859287Y-100612733D01*
X101687267Y-100440713D01*
X101484992Y-100305557D01*
X101260236Y-100212460D01*
X101021637Y-100165000D01*
X100778363Y-100165000D01*
X100539764Y-100212460D01*
X100315008Y-100305557D01*
X100112733Y-100440713D01*
X99940713Y-100612733D01*
X99805557Y-100815008D01*
X99712460Y-101039764D01*
X99665000Y-101278363D01*
X99665000Y-101521637D01*
X99712460Y-101760236D01*
X99713161Y-101761928D01*
X98700000Y-101761928D01*
X98526746Y-101778992D01*
X98360150Y-101829528D01*
X98206614Y-101911595D01*
X98072038Y-102022038D01*
X97961595Y-102156614D01*
X97879528Y-102310150D01*
X97828992Y-102476746D01*
X97811928Y-102650000D01*
X88960000Y-102650000D01*
X88960000Y-92560000D01*
X107140000Y-92560000D01*
X107140001Y-136440000D01*
%TA.AperFunction,Conductor*%
D17*
G36*
X107140001Y-136440000D02*
G01*
X99849681Y-136440000D01*
X100042095Y-136360299D01*
X100293505Y-136192312D01*
X100507312Y-135978505D01*
X100675299Y-135727095D01*
X100791011Y-135447743D01*
X100850000Y-135151184D01*
X100850000Y-134848816D01*
X100791011Y-134552257D01*
X100675299Y-134272905D01*
X100507312Y-134021495D01*
X100293505Y-133807688D01*
X100042095Y-133639701D01*
X99762743Y-133523989D01*
X99466184Y-133465000D01*
X99163816Y-133465000D01*
X98867257Y-133523989D01*
X98587905Y-133639701D01*
X98336495Y-133807688D01*
X98122688Y-134021495D01*
X97954701Y-134272905D01*
X97838989Y-134552257D01*
X97780000Y-134848816D01*
X97780000Y-135151184D01*
X97838989Y-135447743D01*
X97954701Y-135727095D01*
X98122688Y-135978505D01*
X98336495Y-136192312D01*
X98587905Y-136360299D01*
X98780319Y-136440000D01*
X88960000Y-136440000D01*
X88960000Y-127848816D01*
X97780000Y-127848816D01*
X97780000Y-128151184D01*
X97838989Y-128447743D01*
X97954701Y-128727095D01*
X98122688Y-128978505D01*
X98336495Y-129192312D01*
X98587905Y-129360299D01*
X98867257Y-129476011D01*
X99163816Y-129535000D01*
X99466184Y-129535000D01*
X99762743Y-129476011D01*
X100042095Y-129360299D01*
X100293505Y-129192312D01*
X100507312Y-128978505D01*
X100675299Y-128727095D01*
X100791011Y-128447743D01*
X100850000Y-128151184D01*
X100850000Y-127848816D01*
X100791011Y-127552257D01*
X100675299Y-127272905D01*
X100507312Y-127021495D01*
X100293505Y-126807688D01*
X100042095Y-126639701D01*
X99762743Y-126523989D01*
X99466184Y-126465000D01*
X99163816Y-126465000D01*
X98867257Y-126523989D01*
X98587905Y-126639701D01*
X98336495Y-126807688D01*
X98122688Y-127021495D01*
X97954701Y-127272905D01*
X97838989Y-127552257D01*
X97780000Y-127848816D01*
X88960000Y-127848816D01*
X88960000Y-120848816D01*
X97780000Y-120848816D01*
X97780000Y-121151184D01*
X97838989Y-121447743D01*
X97954701Y-121727095D01*
X98122688Y-121978505D01*
X98336495Y-122192312D01*
X98587905Y-122360299D01*
X98867257Y-122476011D01*
X99163816Y-122535000D01*
X99466184Y-122535000D01*
X99762743Y-122476011D01*
X100042095Y-122360299D01*
X100293505Y-122192312D01*
X100507312Y-121978505D01*
X100675299Y-121727095D01*
X100791011Y-121447743D01*
X100850000Y-121151184D01*
X100850000Y-120848816D01*
X100791011Y-120552257D01*
X100675299Y-120272905D01*
X100507312Y-120021495D01*
X100293505Y-119807688D01*
X100042095Y-119639701D01*
X99762743Y-119523989D01*
X99466184Y-119465000D01*
X99163816Y-119465000D01*
X98867257Y-119523989D01*
X98587905Y-119639701D01*
X98336495Y-119807688D01*
X98122688Y-120021495D01*
X97954701Y-120272905D01*
X97838989Y-120552257D01*
X97780000Y-120848816D01*
X88960000Y-120848816D01*
X88960000Y-113848816D01*
X97780000Y-113848816D01*
X97780000Y-114151184D01*
X97838989Y-114447743D01*
X97954701Y-114727095D01*
X98122688Y-114978505D01*
X98336495Y-115192312D01*
X98587905Y-115360299D01*
X98867257Y-115476011D01*
X99163816Y-115535000D01*
X99466184Y-115535000D01*
X99762743Y-115476011D01*
X100042095Y-115360299D01*
X100293505Y-115192312D01*
X100507312Y-114978505D01*
X100675299Y-114727095D01*
X100791011Y-114447743D01*
X100850000Y-114151184D01*
X100850000Y-113848816D01*
X100791011Y-113552257D01*
X100675299Y-113272905D01*
X100507312Y-113021495D01*
X100293505Y-112807688D01*
X100042095Y-112639701D01*
X99762743Y-112523989D01*
X99466184Y-112465000D01*
X99163816Y-112465000D01*
X98867257Y-112523989D01*
X98587905Y-112639701D01*
X98336495Y-112807688D01*
X98122688Y-113021495D01*
X97954701Y-113272905D01*
X97838989Y-113552257D01*
X97780000Y-113848816D01*
X88960000Y-113848816D01*
X88960000Y-109800000D01*
X102657089Y-109800000D01*
X102688657Y-110120516D01*
X102782148Y-110428715D01*
X102933969Y-110712752D01*
X103138286Y-110961714D01*
X103221972Y-111030393D01*
X103142843Y-111126812D01*
X103014236Y-111367419D01*
X102935040Y-111628493D01*
X102908299Y-111900000D01*
X102935040Y-112171507D01*
X103014236Y-112432581D01*
X103142843Y-112673188D01*
X103315919Y-112884081D01*
X103335316Y-112900000D01*
X103315919Y-112915919D01*
X103142843Y-113126812D01*
X103014236Y-113367419D01*
X102935040Y-113628493D01*
X102908299Y-113900000D01*
X102935040Y-114171507D01*
X103014236Y-114432581D01*
X103138940Y-114665886D01*
X103098815Y-114698815D01*
X103019463Y-114795506D01*
X102960498Y-114905820D01*
X102924188Y-115025518D01*
X102911928Y-115150000D01*
X102911928Y-116650000D01*
X102924188Y-116774482D01*
X102960498Y-116894180D01*
X103012529Y-116991522D01*
X102933969Y-117087248D01*
X102782148Y-117371285D01*
X102688657Y-117679484D01*
X102657089Y-118000000D01*
X102688657Y-118320516D01*
X102782148Y-118628715D01*
X102933969Y-118912752D01*
X103138286Y-119161714D01*
X103387248Y-119366031D01*
X103671285Y-119517852D01*
X103979484Y-119611343D01*
X104219678Y-119635000D01*
X105380322Y-119635000D01*
X105620516Y-119611343D01*
X105928715Y-119517852D01*
X106212752Y-119366031D01*
X106461714Y-119161714D01*
X106666031Y-118912752D01*
X106817852Y-118628715D01*
X106911343Y-118320516D01*
X106942911Y-118000000D01*
X106911343Y-117679484D01*
X106817852Y-117371285D01*
X106666031Y-117087248D01*
X106587471Y-116991522D01*
X106639502Y-116894180D01*
X106675812Y-116774482D01*
X106688072Y-116650000D01*
X106688072Y-115150000D01*
X106675812Y-115025518D01*
X106639502Y-114905820D01*
X106580537Y-114795506D01*
X106501185Y-114698815D01*
X106461060Y-114665886D01*
X106585764Y-114432581D01*
X106664960Y-114171507D01*
X106691701Y-113900000D01*
X106664960Y-113628493D01*
X106585764Y-113367419D01*
X106457157Y-113126812D01*
X106284081Y-112915919D01*
X106264684Y-112900000D01*
X106284081Y-112884081D01*
X106457157Y-112673188D01*
X106585764Y-112432581D01*
X106664960Y-112171507D01*
X106691701Y-111900000D01*
X106664960Y-111628493D01*
X106585764Y-111367419D01*
X106457157Y-111126812D01*
X106378028Y-111030393D01*
X106461714Y-110961714D01*
X106666031Y-110712752D01*
X106817852Y-110428715D01*
X106911343Y-110120516D01*
X106942911Y-109800000D01*
X106911343Y-109479484D01*
X106817852Y-109171285D01*
X106666031Y-108887248D01*
X106461714Y-108638286D01*
X106212752Y-108433969D01*
X105928715Y-108282148D01*
X105620516Y-108188657D01*
X105380322Y-108165000D01*
X104219678Y-108165000D01*
X103979484Y-108188657D01*
X103671285Y-108282148D01*
X103387248Y-108433969D01*
X103138286Y-108638286D01*
X102933969Y-108887248D01*
X102782148Y-109171285D01*
X102688657Y-109479484D01*
X102657089Y-109800000D01*
X88960000Y-109800000D01*
X88960000Y-102650000D01*
X97811928Y-102650000D01*
X97811928Y-104150000D01*
X97828992Y-104323254D01*
X97879528Y-104489850D01*
X97961595Y-104643386D01*
X98072038Y-104777962D01*
X98206614Y-104888405D01*
X98360150Y-104970472D01*
X98526746Y-105021008D01*
X98700000Y-105038072D01*
X99900000Y-105038072D01*
X100073254Y-105021008D01*
X100239850Y-104970472D01*
X100393386Y-104888405D01*
X100527962Y-104777962D01*
X100638405Y-104643386D01*
X100720472Y-104489850D01*
X100771008Y-104323254D01*
X100788072Y-104150000D01*
X100788072Y-102650000D01*
X100786595Y-102635000D01*
X101021637Y-102635000D01*
X101260236Y-102587540D01*
X101484992Y-102494443D01*
X101687267Y-102359287D01*
X101859287Y-102187267D01*
X101994443Y-101984992D01*
X102087540Y-101760236D01*
X102135000Y-101521637D01*
X102135000Y-101278363D01*
X102087540Y-101039764D01*
X101994443Y-100815008D01*
X101859287Y-100612733D01*
X101687267Y-100440713D01*
X101484992Y-100305557D01*
X101260236Y-100212460D01*
X101021637Y-100165000D01*
X100778363Y-100165000D01*
X100539764Y-100212460D01*
X100315008Y-100305557D01*
X100112733Y-100440713D01*
X99940713Y-100612733D01*
X99805557Y-100815008D01*
X99712460Y-101039764D01*
X99665000Y-101278363D01*
X99665000Y-101521637D01*
X99712460Y-101760236D01*
X99713161Y-101761928D01*
X98700000Y-101761928D01*
X98526746Y-101778992D01*
X98360150Y-101829528D01*
X98206614Y-101911595D01*
X98072038Y-102022038D01*
X97961595Y-102156614D01*
X97879528Y-102310150D01*
X97828992Y-102476746D01*
X97811928Y-102650000D01*
X88960000Y-102650000D01*
X88960000Y-92560000D01*
X107140000Y-92560000D01*
X107140001Y-136440000D01*
G37*
%TD.AperFunction*%
%TD*%
D16*
%TO.N,Net-(D1-Pad1)*%
X126640001Y-136440000D02*
X119349681Y-136440000D01*
X119542095Y-136360299D01*
X119793505Y-136192312D01*
X120007312Y-135978505D01*
X120175299Y-135727095D01*
X120291011Y-135447743D01*
X120350000Y-135151184D01*
X120350000Y-134848816D01*
X120291011Y-134552257D01*
X120175299Y-134272905D01*
X120007312Y-134021495D01*
X119793505Y-133807688D01*
X119542095Y-133639701D01*
X119262743Y-133523989D01*
X118966184Y-133465000D01*
X118663816Y-133465000D01*
X118367257Y-133523989D01*
X118087905Y-133639701D01*
X117836495Y-133807688D01*
X117622688Y-134021495D01*
X117454701Y-134272905D01*
X117338989Y-134552257D01*
X117280000Y-134848816D01*
X117280000Y-135151184D01*
X117338989Y-135447743D01*
X117454701Y-135727095D01*
X117622688Y-135978505D01*
X117836495Y-136192312D01*
X118087905Y-136360299D01*
X118280319Y-136440000D01*
X108460000Y-136440000D01*
X108460000Y-127848816D01*
X117280000Y-127848816D01*
X117280000Y-128151184D01*
X117338989Y-128447743D01*
X117454701Y-128727095D01*
X117622688Y-128978505D01*
X117836495Y-129192312D01*
X118087905Y-129360299D01*
X118367257Y-129476011D01*
X118663816Y-129535000D01*
X118966184Y-129535000D01*
X119262743Y-129476011D01*
X119542095Y-129360299D01*
X119793505Y-129192312D01*
X120007312Y-128978505D01*
X120175299Y-128727095D01*
X120291011Y-128447743D01*
X120350000Y-128151184D01*
X120350000Y-127848816D01*
X120291011Y-127552257D01*
X120175299Y-127272905D01*
X120007312Y-127021495D01*
X119793505Y-126807688D01*
X119542095Y-126639701D01*
X119262743Y-126523989D01*
X118966184Y-126465000D01*
X118663816Y-126465000D01*
X118367257Y-126523989D01*
X118087905Y-126639701D01*
X117836495Y-126807688D01*
X117622688Y-127021495D01*
X117454701Y-127272905D01*
X117338989Y-127552257D01*
X117280000Y-127848816D01*
X108460000Y-127848816D01*
X108460000Y-120848816D01*
X117280000Y-120848816D01*
X117280000Y-121151184D01*
X117338989Y-121447743D01*
X117454701Y-121727095D01*
X117622688Y-121978505D01*
X117836495Y-122192312D01*
X118087905Y-122360299D01*
X118367257Y-122476011D01*
X118663816Y-122535000D01*
X118966184Y-122535000D01*
X119262743Y-122476011D01*
X119542095Y-122360299D01*
X119793505Y-122192312D01*
X120007312Y-121978505D01*
X120175299Y-121727095D01*
X120291011Y-121447743D01*
X120350000Y-121151184D01*
X120350000Y-120848816D01*
X120291011Y-120552257D01*
X120175299Y-120272905D01*
X120007312Y-120021495D01*
X119793505Y-119807688D01*
X119542095Y-119639701D01*
X119262743Y-119523989D01*
X118966184Y-119465000D01*
X118663816Y-119465000D01*
X118367257Y-119523989D01*
X118087905Y-119639701D01*
X117836495Y-119807688D01*
X117622688Y-120021495D01*
X117454701Y-120272905D01*
X117338989Y-120552257D01*
X117280000Y-120848816D01*
X108460000Y-120848816D01*
X108460000Y-113848816D01*
X117280000Y-113848816D01*
X117280000Y-114151184D01*
X117338989Y-114447743D01*
X117454701Y-114727095D01*
X117622688Y-114978505D01*
X117836495Y-115192312D01*
X118087905Y-115360299D01*
X118367257Y-115476011D01*
X118663816Y-115535000D01*
X118966184Y-115535000D01*
X119262743Y-115476011D01*
X119542095Y-115360299D01*
X119793505Y-115192312D01*
X120007312Y-114978505D01*
X120175299Y-114727095D01*
X120291011Y-114447743D01*
X120350000Y-114151184D01*
X120350000Y-113848816D01*
X120291011Y-113552257D01*
X120175299Y-113272905D01*
X120007312Y-113021495D01*
X119793505Y-112807688D01*
X119542095Y-112639701D01*
X119262743Y-112523989D01*
X118966184Y-112465000D01*
X118663816Y-112465000D01*
X118367257Y-112523989D01*
X118087905Y-112639701D01*
X117836495Y-112807688D01*
X117622688Y-113021495D01*
X117454701Y-113272905D01*
X117338989Y-113552257D01*
X117280000Y-113848816D01*
X108460000Y-113848816D01*
X108460000Y-109800000D01*
X122157089Y-109800000D01*
X122188657Y-110120516D01*
X122282148Y-110428715D01*
X122433969Y-110712752D01*
X122638286Y-110961714D01*
X122721972Y-111030393D01*
X122642843Y-111126812D01*
X122514236Y-111367419D01*
X122435040Y-111628493D01*
X122408299Y-111900000D01*
X122435040Y-112171507D01*
X122514236Y-112432581D01*
X122642843Y-112673188D01*
X122815919Y-112884081D01*
X122835316Y-112900000D01*
X122815919Y-112915919D01*
X122642843Y-113126812D01*
X122514236Y-113367419D01*
X122435040Y-113628493D01*
X122408299Y-113900000D01*
X122435040Y-114171507D01*
X122514236Y-114432581D01*
X122638940Y-114665886D01*
X122598815Y-114698815D01*
X122519463Y-114795506D01*
X122460498Y-114905820D01*
X122424188Y-115025518D01*
X122411928Y-115150000D01*
X122411928Y-116650000D01*
X122424188Y-116774482D01*
X122460498Y-116894180D01*
X122512529Y-116991522D01*
X122433969Y-117087248D01*
X122282148Y-117371285D01*
X122188657Y-117679484D01*
X122157089Y-118000000D01*
X122188657Y-118320516D01*
X122282148Y-118628715D01*
X122433969Y-118912752D01*
X122638286Y-119161714D01*
X122887248Y-119366031D01*
X123171285Y-119517852D01*
X123479484Y-119611343D01*
X123719678Y-119635000D01*
X124880322Y-119635000D01*
X125120516Y-119611343D01*
X125428715Y-119517852D01*
X125712752Y-119366031D01*
X125961714Y-119161714D01*
X126166031Y-118912752D01*
X126317852Y-118628715D01*
X126411343Y-118320516D01*
X126442911Y-118000000D01*
X126411343Y-117679484D01*
X126317852Y-117371285D01*
X126166031Y-117087248D01*
X126087471Y-116991522D01*
X126139502Y-116894180D01*
X126175812Y-116774482D01*
X126188072Y-116650000D01*
X126188072Y-115150000D01*
X126175812Y-115025518D01*
X126139502Y-114905820D01*
X126080537Y-114795506D01*
X126001185Y-114698815D01*
X125961060Y-114665886D01*
X126085764Y-114432581D01*
X126164960Y-114171507D01*
X126191701Y-113900000D01*
X126164960Y-113628493D01*
X126085764Y-113367419D01*
X125957157Y-113126812D01*
X125784081Y-112915919D01*
X125764684Y-112900000D01*
X125784081Y-112884081D01*
X125957157Y-112673188D01*
X126085764Y-112432581D01*
X126164960Y-112171507D01*
X126191701Y-111900000D01*
X126164960Y-111628493D01*
X126085764Y-111367419D01*
X125957157Y-111126812D01*
X125878028Y-111030393D01*
X125961714Y-110961714D01*
X126166031Y-110712752D01*
X126317852Y-110428715D01*
X126411343Y-110120516D01*
X126442911Y-109800000D01*
X126411343Y-109479484D01*
X126317852Y-109171285D01*
X126166031Y-108887248D01*
X125961714Y-108638286D01*
X125712752Y-108433969D01*
X125428715Y-108282148D01*
X125120516Y-108188657D01*
X124880322Y-108165000D01*
X123719678Y-108165000D01*
X123479484Y-108188657D01*
X123171285Y-108282148D01*
X122887248Y-108433969D01*
X122638286Y-108638286D01*
X122433969Y-108887248D01*
X122282148Y-109171285D01*
X122188657Y-109479484D01*
X122157089Y-109800000D01*
X108460000Y-109800000D01*
X108460000Y-102650000D01*
X117311928Y-102650000D01*
X117311928Y-104150000D01*
X117328992Y-104323254D01*
X117379528Y-104489850D01*
X117461595Y-104643386D01*
X117572038Y-104777962D01*
X117706614Y-104888405D01*
X117860150Y-104970472D01*
X118026746Y-105021008D01*
X118200000Y-105038072D01*
X119400000Y-105038072D01*
X119573254Y-105021008D01*
X119739850Y-104970472D01*
X119893386Y-104888405D01*
X120027962Y-104777962D01*
X120138405Y-104643386D01*
X120220472Y-104489850D01*
X120271008Y-104323254D01*
X120288072Y-104150000D01*
X120288072Y-102650000D01*
X120286595Y-102635000D01*
X120521637Y-102635000D01*
X120760236Y-102587540D01*
X120984992Y-102494443D01*
X121187267Y-102359287D01*
X121359287Y-102187267D01*
X121494443Y-101984992D01*
X121587540Y-101760236D01*
X121635000Y-101521637D01*
X121635000Y-101278363D01*
X121587540Y-101039764D01*
X121494443Y-100815008D01*
X121359287Y-100612733D01*
X121187267Y-100440713D01*
X120984992Y-100305557D01*
X120760236Y-100212460D01*
X120521637Y-100165000D01*
X120278363Y-100165000D01*
X120039764Y-100212460D01*
X119815008Y-100305557D01*
X119612733Y-100440713D01*
X119440713Y-100612733D01*
X119305557Y-100815008D01*
X119212460Y-101039764D01*
X119165000Y-101278363D01*
X119165000Y-101521637D01*
X119212460Y-101760236D01*
X119213161Y-101761928D01*
X118200000Y-101761928D01*
X118026746Y-101778992D01*
X117860150Y-101829528D01*
X117706614Y-101911595D01*
X117572038Y-102022038D01*
X117461595Y-102156614D01*
X117379528Y-102310150D01*
X117328992Y-102476746D01*
X117311928Y-102650000D01*
X108460000Y-102650000D01*
X108460000Y-92560000D01*
X126640000Y-92560000D01*
X126640001Y-136440000D01*
%TA.AperFunction,Conductor*%
D17*
G36*
X126640001Y-136440000D02*
G01*
X119349681Y-136440000D01*
X119542095Y-136360299D01*
X119793505Y-136192312D01*
X120007312Y-135978505D01*
X120175299Y-135727095D01*
X120291011Y-135447743D01*
X120350000Y-135151184D01*
X120350000Y-134848816D01*
X120291011Y-134552257D01*
X120175299Y-134272905D01*
X120007312Y-134021495D01*
X119793505Y-133807688D01*
X119542095Y-133639701D01*
X119262743Y-133523989D01*
X118966184Y-133465000D01*
X118663816Y-133465000D01*
X118367257Y-133523989D01*
X118087905Y-133639701D01*
X117836495Y-133807688D01*
X117622688Y-134021495D01*
X117454701Y-134272905D01*
X117338989Y-134552257D01*
X117280000Y-134848816D01*
X117280000Y-135151184D01*
X117338989Y-135447743D01*
X117454701Y-135727095D01*
X117622688Y-135978505D01*
X117836495Y-136192312D01*
X118087905Y-136360299D01*
X118280319Y-136440000D01*
X108460000Y-136440000D01*
X108460000Y-127848816D01*
X117280000Y-127848816D01*
X117280000Y-128151184D01*
X117338989Y-128447743D01*
X117454701Y-128727095D01*
X117622688Y-128978505D01*
X117836495Y-129192312D01*
X118087905Y-129360299D01*
X118367257Y-129476011D01*
X118663816Y-129535000D01*
X118966184Y-129535000D01*
X119262743Y-129476011D01*
X119542095Y-129360299D01*
X119793505Y-129192312D01*
X120007312Y-128978505D01*
X120175299Y-128727095D01*
X120291011Y-128447743D01*
X120350000Y-128151184D01*
X120350000Y-127848816D01*
X120291011Y-127552257D01*
X120175299Y-127272905D01*
X120007312Y-127021495D01*
X119793505Y-126807688D01*
X119542095Y-126639701D01*
X119262743Y-126523989D01*
X118966184Y-126465000D01*
X118663816Y-126465000D01*
X118367257Y-126523989D01*
X118087905Y-126639701D01*
X117836495Y-126807688D01*
X117622688Y-127021495D01*
X117454701Y-127272905D01*
X117338989Y-127552257D01*
X117280000Y-127848816D01*
X108460000Y-127848816D01*
X108460000Y-120848816D01*
X117280000Y-120848816D01*
X117280000Y-121151184D01*
X117338989Y-121447743D01*
X117454701Y-121727095D01*
X117622688Y-121978505D01*
X117836495Y-122192312D01*
X118087905Y-122360299D01*
X118367257Y-122476011D01*
X118663816Y-122535000D01*
X118966184Y-122535000D01*
X119262743Y-122476011D01*
X119542095Y-122360299D01*
X119793505Y-122192312D01*
X120007312Y-121978505D01*
X120175299Y-121727095D01*
X120291011Y-121447743D01*
X120350000Y-121151184D01*
X120350000Y-120848816D01*
X120291011Y-120552257D01*
X120175299Y-120272905D01*
X120007312Y-120021495D01*
X119793505Y-119807688D01*
X119542095Y-119639701D01*
X119262743Y-119523989D01*
X118966184Y-119465000D01*
X118663816Y-119465000D01*
X118367257Y-119523989D01*
X118087905Y-119639701D01*
X117836495Y-119807688D01*
X117622688Y-120021495D01*
X117454701Y-120272905D01*
X117338989Y-120552257D01*
X117280000Y-120848816D01*
X108460000Y-120848816D01*
X108460000Y-113848816D01*
X117280000Y-113848816D01*
X117280000Y-114151184D01*
X117338989Y-114447743D01*
X117454701Y-114727095D01*
X117622688Y-114978505D01*
X117836495Y-115192312D01*
X118087905Y-115360299D01*
X118367257Y-115476011D01*
X118663816Y-115535000D01*
X118966184Y-115535000D01*
X119262743Y-115476011D01*
X119542095Y-115360299D01*
X119793505Y-115192312D01*
X120007312Y-114978505D01*
X120175299Y-114727095D01*
X120291011Y-114447743D01*
X120350000Y-114151184D01*
X120350000Y-113848816D01*
X120291011Y-113552257D01*
X120175299Y-113272905D01*
X120007312Y-113021495D01*
X119793505Y-112807688D01*
X119542095Y-112639701D01*
X119262743Y-112523989D01*
X118966184Y-112465000D01*
X118663816Y-112465000D01*
X118367257Y-112523989D01*
X118087905Y-112639701D01*
X117836495Y-112807688D01*
X117622688Y-113021495D01*
X117454701Y-113272905D01*
X117338989Y-113552257D01*
X117280000Y-113848816D01*
X108460000Y-113848816D01*
X108460000Y-109800000D01*
X122157089Y-109800000D01*
X122188657Y-110120516D01*
X122282148Y-110428715D01*
X122433969Y-110712752D01*
X122638286Y-110961714D01*
X122721972Y-111030393D01*
X122642843Y-111126812D01*
X122514236Y-111367419D01*
X122435040Y-111628493D01*
X122408299Y-111900000D01*
X122435040Y-112171507D01*
X122514236Y-112432581D01*
X122642843Y-112673188D01*
X122815919Y-112884081D01*
X122835316Y-112900000D01*
X122815919Y-112915919D01*
X122642843Y-113126812D01*
X122514236Y-113367419D01*
X122435040Y-113628493D01*
X122408299Y-113900000D01*
X122435040Y-114171507D01*
X122514236Y-114432581D01*
X122638940Y-114665886D01*
X122598815Y-114698815D01*
X122519463Y-114795506D01*
X122460498Y-114905820D01*
X122424188Y-115025518D01*
X122411928Y-115150000D01*
X122411928Y-116650000D01*
X122424188Y-116774482D01*
X122460498Y-116894180D01*
X122512529Y-116991522D01*
X122433969Y-117087248D01*
X122282148Y-117371285D01*
X122188657Y-117679484D01*
X122157089Y-118000000D01*
X122188657Y-118320516D01*
X122282148Y-118628715D01*
X122433969Y-118912752D01*
X122638286Y-119161714D01*
X122887248Y-119366031D01*
X123171285Y-119517852D01*
X123479484Y-119611343D01*
X123719678Y-119635000D01*
X124880322Y-119635000D01*
X125120516Y-119611343D01*
X125428715Y-119517852D01*
X125712752Y-119366031D01*
X125961714Y-119161714D01*
X126166031Y-118912752D01*
X126317852Y-118628715D01*
X126411343Y-118320516D01*
X126442911Y-118000000D01*
X126411343Y-117679484D01*
X126317852Y-117371285D01*
X126166031Y-117087248D01*
X126087471Y-116991522D01*
X126139502Y-116894180D01*
X126175812Y-116774482D01*
X126188072Y-116650000D01*
X126188072Y-115150000D01*
X126175812Y-115025518D01*
X126139502Y-114905820D01*
X126080537Y-114795506D01*
X126001185Y-114698815D01*
X125961060Y-114665886D01*
X126085764Y-114432581D01*
X126164960Y-114171507D01*
X126191701Y-113900000D01*
X126164960Y-113628493D01*
X126085764Y-113367419D01*
X125957157Y-113126812D01*
X125784081Y-112915919D01*
X125764684Y-112900000D01*
X125784081Y-112884081D01*
X125957157Y-112673188D01*
X126085764Y-112432581D01*
X126164960Y-112171507D01*
X126191701Y-111900000D01*
X126164960Y-111628493D01*
X126085764Y-111367419D01*
X125957157Y-111126812D01*
X125878028Y-111030393D01*
X125961714Y-110961714D01*
X126166031Y-110712752D01*
X126317852Y-110428715D01*
X126411343Y-110120516D01*
X126442911Y-109800000D01*
X126411343Y-109479484D01*
X126317852Y-109171285D01*
X126166031Y-108887248D01*
X125961714Y-108638286D01*
X125712752Y-108433969D01*
X125428715Y-108282148D01*
X125120516Y-108188657D01*
X124880322Y-108165000D01*
X123719678Y-108165000D01*
X123479484Y-108188657D01*
X123171285Y-108282148D01*
X122887248Y-108433969D01*
X122638286Y-108638286D01*
X122433969Y-108887248D01*
X122282148Y-109171285D01*
X122188657Y-109479484D01*
X122157089Y-109800000D01*
X108460000Y-109800000D01*
X108460000Y-102650000D01*
X117311928Y-102650000D01*
X117311928Y-104150000D01*
X117328992Y-104323254D01*
X117379528Y-104489850D01*
X117461595Y-104643386D01*
X117572038Y-104777962D01*
X117706614Y-104888405D01*
X117860150Y-104970472D01*
X118026746Y-105021008D01*
X118200000Y-105038072D01*
X119400000Y-105038072D01*
X119573254Y-105021008D01*
X119739850Y-104970472D01*
X119893386Y-104888405D01*
X120027962Y-104777962D01*
X120138405Y-104643386D01*
X120220472Y-104489850D01*
X120271008Y-104323254D01*
X120288072Y-104150000D01*
X120288072Y-102650000D01*
X120286595Y-102635000D01*
X120521637Y-102635000D01*
X120760236Y-102587540D01*
X120984992Y-102494443D01*
X121187267Y-102359287D01*
X121359287Y-102187267D01*
X121494443Y-101984992D01*
X121587540Y-101760236D01*
X121635000Y-101521637D01*
X121635000Y-101278363D01*
X121587540Y-101039764D01*
X121494443Y-100815008D01*
X121359287Y-100612733D01*
X121187267Y-100440713D01*
X120984992Y-100305557D01*
X120760236Y-100212460D01*
X120521637Y-100165000D01*
X120278363Y-100165000D01*
X120039764Y-100212460D01*
X119815008Y-100305557D01*
X119612733Y-100440713D01*
X119440713Y-100612733D01*
X119305557Y-100815008D01*
X119212460Y-101039764D01*
X119165000Y-101278363D01*
X119165000Y-101521637D01*
X119212460Y-101760236D01*
X119213161Y-101761928D01*
X118200000Y-101761928D01*
X118026746Y-101778992D01*
X117860150Y-101829528D01*
X117706614Y-101911595D01*
X117572038Y-102022038D01*
X117461595Y-102156614D01*
X117379528Y-102310150D01*
X117328992Y-102476746D01*
X117311928Y-102650000D01*
X108460000Y-102650000D01*
X108460000Y-92560000D01*
X126640000Y-92560000D01*
X126640001Y-136440000D01*
G37*
%TD.AperFunction*%
%TD*%
D16*
%TO.N,Net-(D1-Pad1)*%
X146140001Y-136440000D02*
X138849681Y-136440000D01*
X139042095Y-136360299D01*
X139293505Y-136192312D01*
X139507312Y-135978505D01*
X139675299Y-135727095D01*
X139791011Y-135447743D01*
X139850000Y-135151184D01*
X139850000Y-134848816D01*
X139791011Y-134552257D01*
X139675299Y-134272905D01*
X139507312Y-134021495D01*
X139293505Y-133807688D01*
X139042095Y-133639701D01*
X138762743Y-133523989D01*
X138466184Y-133465000D01*
X138163816Y-133465000D01*
X137867257Y-133523989D01*
X137587905Y-133639701D01*
X137336495Y-133807688D01*
X137122688Y-134021495D01*
X136954701Y-134272905D01*
X136838989Y-134552257D01*
X136780000Y-134848816D01*
X136780000Y-135151184D01*
X136838989Y-135447743D01*
X136954701Y-135727095D01*
X137122688Y-135978505D01*
X137336495Y-136192312D01*
X137587905Y-136360299D01*
X137780319Y-136440000D01*
X127960000Y-136440000D01*
X127960000Y-127848816D01*
X136780000Y-127848816D01*
X136780000Y-128151184D01*
X136838989Y-128447743D01*
X136954701Y-128727095D01*
X137122688Y-128978505D01*
X137336495Y-129192312D01*
X137587905Y-129360299D01*
X137867257Y-129476011D01*
X138163816Y-129535000D01*
X138466184Y-129535000D01*
X138762743Y-129476011D01*
X139042095Y-129360299D01*
X139293505Y-129192312D01*
X139507312Y-128978505D01*
X139675299Y-128727095D01*
X139791011Y-128447743D01*
X139850000Y-128151184D01*
X139850000Y-127848816D01*
X139791011Y-127552257D01*
X139675299Y-127272905D01*
X139507312Y-127021495D01*
X139293505Y-126807688D01*
X139042095Y-126639701D01*
X138762743Y-126523989D01*
X138466184Y-126465000D01*
X138163816Y-126465000D01*
X137867257Y-126523989D01*
X137587905Y-126639701D01*
X137336495Y-126807688D01*
X137122688Y-127021495D01*
X136954701Y-127272905D01*
X136838989Y-127552257D01*
X136780000Y-127848816D01*
X127960000Y-127848816D01*
X127960000Y-120848816D01*
X136780000Y-120848816D01*
X136780000Y-121151184D01*
X136838989Y-121447743D01*
X136954701Y-121727095D01*
X137122688Y-121978505D01*
X137336495Y-122192312D01*
X137587905Y-122360299D01*
X137867257Y-122476011D01*
X138163816Y-122535000D01*
X138466184Y-122535000D01*
X138762743Y-122476011D01*
X139042095Y-122360299D01*
X139293505Y-122192312D01*
X139507312Y-121978505D01*
X139675299Y-121727095D01*
X139791011Y-121447743D01*
X139850000Y-121151184D01*
X139850000Y-120848816D01*
X139791011Y-120552257D01*
X139675299Y-120272905D01*
X139507312Y-120021495D01*
X139293505Y-119807688D01*
X139042095Y-119639701D01*
X138762743Y-119523989D01*
X138466184Y-119465000D01*
X138163816Y-119465000D01*
X137867257Y-119523989D01*
X137587905Y-119639701D01*
X137336495Y-119807688D01*
X137122688Y-120021495D01*
X136954701Y-120272905D01*
X136838989Y-120552257D01*
X136780000Y-120848816D01*
X127960000Y-120848816D01*
X127960000Y-113848816D01*
X136780000Y-113848816D01*
X136780000Y-114151184D01*
X136838989Y-114447743D01*
X136954701Y-114727095D01*
X137122688Y-114978505D01*
X137336495Y-115192312D01*
X137587905Y-115360299D01*
X137867257Y-115476011D01*
X138163816Y-115535000D01*
X138466184Y-115535000D01*
X138762743Y-115476011D01*
X139042095Y-115360299D01*
X139293505Y-115192312D01*
X139507312Y-114978505D01*
X139675299Y-114727095D01*
X139791011Y-114447743D01*
X139850000Y-114151184D01*
X139850000Y-113848816D01*
X139791011Y-113552257D01*
X139675299Y-113272905D01*
X139507312Y-113021495D01*
X139293505Y-112807688D01*
X139042095Y-112639701D01*
X138762743Y-112523989D01*
X138466184Y-112465000D01*
X138163816Y-112465000D01*
X137867257Y-112523989D01*
X137587905Y-112639701D01*
X137336495Y-112807688D01*
X137122688Y-113021495D01*
X136954701Y-113272905D01*
X136838989Y-113552257D01*
X136780000Y-113848816D01*
X127960000Y-113848816D01*
X127960000Y-109800000D01*
X141657089Y-109800000D01*
X141688657Y-110120516D01*
X141782148Y-110428715D01*
X141933969Y-110712752D01*
X142138286Y-110961714D01*
X142221972Y-111030393D01*
X142142843Y-111126812D01*
X142014236Y-111367419D01*
X141935040Y-111628493D01*
X141908299Y-111900000D01*
X141935040Y-112171507D01*
X142014236Y-112432581D01*
X142142843Y-112673188D01*
X142315919Y-112884081D01*
X142335316Y-112900000D01*
X142315919Y-112915919D01*
X142142843Y-113126812D01*
X142014236Y-113367419D01*
X141935040Y-113628493D01*
X141908299Y-113900000D01*
X141935040Y-114171507D01*
X142014236Y-114432581D01*
X142138940Y-114665886D01*
X142098815Y-114698815D01*
X142019463Y-114795506D01*
X141960498Y-114905820D01*
X141924188Y-115025518D01*
X141911928Y-115150000D01*
X141911928Y-116650000D01*
X141924188Y-116774482D01*
X141960498Y-116894180D01*
X142012529Y-116991522D01*
X141933969Y-117087248D01*
X141782148Y-117371285D01*
X141688657Y-117679484D01*
X141657089Y-118000000D01*
X141688657Y-118320516D01*
X141782148Y-118628715D01*
X141933969Y-118912752D01*
X142138286Y-119161714D01*
X142387248Y-119366031D01*
X142671285Y-119517852D01*
X142979484Y-119611343D01*
X143219678Y-119635000D01*
X144380322Y-119635000D01*
X144620516Y-119611343D01*
X144928715Y-119517852D01*
X145212752Y-119366031D01*
X145461714Y-119161714D01*
X145666031Y-118912752D01*
X145817852Y-118628715D01*
X145911343Y-118320516D01*
X145942911Y-118000000D01*
X145911343Y-117679484D01*
X145817852Y-117371285D01*
X145666031Y-117087248D01*
X145587471Y-116991522D01*
X145639502Y-116894180D01*
X145675812Y-116774482D01*
X145688072Y-116650000D01*
X145688072Y-115150000D01*
X145675812Y-115025518D01*
X145639502Y-114905820D01*
X145580537Y-114795506D01*
X145501185Y-114698815D01*
X145461060Y-114665886D01*
X145585764Y-114432581D01*
X145664960Y-114171507D01*
X145691701Y-113900000D01*
X145664960Y-113628493D01*
X145585764Y-113367419D01*
X145457157Y-113126812D01*
X145284081Y-112915919D01*
X145264684Y-112900000D01*
X145284081Y-112884081D01*
X145457157Y-112673188D01*
X145585764Y-112432581D01*
X145664960Y-112171507D01*
X145691701Y-111900000D01*
X145664960Y-111628493D01*
X145585764Y-111367419D01*
X145457157Y-111126812D01*
X145378028Y-111030393D01*
X145461714Y-110961714D01*
X145666031Y-110712752D01*
X145817852Y-110428715D01*
X145911343Y-110120516D01*
X145942911Y-109800000D01*
X145911343Y-109479484D01*
X145817852Y-109171285D01*
X145666031Y-108887248D01*
X145461714Y-108638286D01*
X145212752Y-108433969D01*
X144928715Y-108282148D01*
X144620516Y-108188657D01*
X144380322Y-108165000D01*
X143219678Y-108165000D01*
X142979484Y-108188657D01*
X142671285Y-108282148D01*
X142387248Y-108433969D01*
X142138286Y-108638286D01*
X141933969Y-108887248D01*
X141782148Y-109171285D01*
X141688657Y-109479484D01*
X141657089Y-109800000D01*
X127960000Y-109800000D01*
X127960000Y-102650000D01*
X136811928Y-102650000D01*
X136811928Y-104150000D01*
X136828992Y-104323254D01*
X136879528Y-104489850D01*
X136961595Y-104643386D01*
X137072038Y-104777962D01*
X137206614Y-104888405D01*
X137360150Y-104970472D01*
X137526746Y-105021008D01*
X137700000Y-105038072D01*
X138900000Y-105038072D01*
X139073254Y-105021008D01*
X139239850Y-104970472D01*
X139393386Y-104888405D01*
X139527962Y-104777962D01*
X139638405Y-104643386D01*
X139720472Y-104489850D01*
X139771008Y-104323254D01*
X139788072Y-104150000D01*
X139788072Y-102650000D01*
X139786595Y-102635000D01*
X140021637Y-102635000D01*
X140260236Y-102587540D01*
X140484992Y-102494443D01*
X140687267Y-102359287D01*
X140859287Y-102187267D01*
X140994443Y-101984992D01*
X141087540Y-101760236D01*
X141135000Y-101521637D01*
X141135000Y-101278363D01*
X141087540Y-101039764D01*
X140994443Y-100815008D01*
X140859287Y-100612733D01*
X140687267Y-100440713D01*
X140484992Y-100305557D01*
X140260236Y-100212460D01*
X140021637Y-100165000D01*
X139778363Y-100165000D01*
X139539764Y-100212460D01*
X139315008Y-100305557D01*
X139112733Y-100440713D01*
X138940713Y-100612733D01*
X138805557Y-100815008D01*
X138712460Y-101039764D01*
X138665000Y-101278363D01*
X138665000Y-101521637D01*
X138712460Y-101760236D01*
X138713161Y-101761928D01*
X137700000Y-101761928D01*
X137526746Y-101778992D01*
X137360150Y-101829528D01*
X137206614Y-101911595D01*
X137072038Y-102022038D01*
X136961595Y-102156614D01*
X136879528Y-102310150D01*
X136828992Y-102476746D01*
X136811928Y-102650000D01*
X127960000Y-102650000D01*
X127960000Y-92560000D01*
X146140000Y-92560000D01*
X146140001Y-136440000D01*
%TA.AperFunction,Conductor*%
D17*
G36*
X146140001Y-136440000D02*
G01*
X138849681Y-136440000D01*
X139042095Y-136360299D01*
X139293505Y-136192312D01*
X139507312Y-135978505D01*
X139675299Y-135727095D01*
X139791011Y-135447743D01*
X139850000Y-135151184D01*
X139850000Y-134848816D01*
X139791011Y-134552257D01*
X139675299Y-134272905D01*
X139507312Y-134021495D01*
X139293505Y-133807688D01*
X139042095Y-133639701D01*
X138762743Y-133523989D01*
X138466184Y-133465000D01*
X138163816Y-133465000D01*
X137867257Y-133523989D01*
X137587905Y-133639701D01*
X137336495Y-133807688D01*
X137122688Y-134021495D01*
X136954701Y-134272905D01*
X136838989Y-134552257D01*
X136780000Y-134848816D01*
X136780000Y-135151184D01*
X136838989Y-135447743D01*
X136954701Y-135727095D01*
X137122688Y-135978505D01*
X137336495Y-136192312D01*
X137587905Y-136360299D01*
X137780319Y-136440000D01*
X127960000Y-136440000D01*
X127960000Y-127848816D01*
X136780000Y-127848816D01*
X136780000Y-128151184D01*
X136838989Y-128447743D01*
X136954701Y-128727095D01*
X137122688Y-128978505D01*
X137336495Y-129192312D01*
X137587905Y-129360299D01*
X137867257Y-129476011D01*
X138163816Y-129535000D01*
X138466184Y-129535000D01*
X138762743Y-129476011D01*
X139042095Y-129360299D01*
X139293505Y-129192312D01*
X139507312Y-128978505D01*
X139675299Y-128727095D01*
X139791011Y-128447743D01*
X139850000Y-128151184D01*
X139850000Y-127848816D01*
X139791011Y-127552257D01*
X139675299Y-127272905D01*
X139507312Y-127021495D01*
X139293505Y-126807688D01*
X139042095Y-126639701D01*
X138762743Y-126523989D01*
X138466184Y-126465000D01*
X138163816Y-126465000D01*
X137867257Y-126523989D01*
X137587905Y-126639701D01*
X137336495Y-126807688D01*
X137122688Y-127021495D01*
X136954701Y-127272905D01*
X136838989Y-127552257D01*
X136780000Y-127848816D01*
X127960000Y-127848816D01*
X127960000Y-120848816D01*
X136780000Y-120848816D01*
X136780000Y-121151184D01*
X136838989Y-121447743D01*
X136954701Y-121727095D01*
X137122688Y-121978505D01*
X137336495Y-122192312D01*
X137587905Y-122360299D01*
X137867257Y-122476011D01*
X138163816Y-122535000D01*
X138466184Y-122535000D01*
X138762743Y-122476011D01*
X139042095Y-122360299D01*
X139293505Y-122192312D01*
X139507312Y-121978505D01*
X139675299Y-121727095D01*
X139791011Y-121447743D01*
X139850000Y-121151184D01*
X139850000Y-120848816D01*
X139791011Y-120552257D01*
X139675299Y-120272905D01*
X139507312Y-120021495D01*
X139293505Y-119807688D01*
X139042095Y-119639701D01*
X138762743Y-119523989D01*
X138466184Y-119465000D01*
X138163816Y-119465000D01*
X137867257Y-119523989D01*
X137587905Y-119639701D01*
X137336495Y-119807688D01*
X137122688Y-120021495D01*
X136954701Y-120272905D01*
X136838989Y-120552257D01*
X136780000Y-120848816D01*
X127960000Y-120848816D01*
X127960000Y-113848816D01*
X136780000Y-113848816D01*
X136780000Y-114151184D01*
X136838989Y-114447743D01*
X136954701Y-114727095D01*
X137122688Y-114978505D01*
X137336495Y-115192312D01*
X137587905Y-115360299D01*
X137867257Y-115476011D01*
X138163816Y-115535000D01*
X138466184Y-115535000D01*
X138762743Y-115476011D01*
X139042095Y-115360299D01*
X139293505Y-115192312D01*
X139507312Y-114978505D01*
X139675299Y-114727095D01*
X139791011Y-114447743D01*
X139850000Y-114151184D01*
X139850000Y-113848816D01*
X139791011Y-113552257D01*
X139675299Y-113272905D01*
X139507312Y-113021495D01*
X139293505Y-112807688D01*
X139042095Y-112639701D01*
X138762743Y-112523989D01*
X138466184Y-112465000D01*
X138163816Y-112465000D01*
X137867257Y-112523989D01*
X137587905Y-112639701D01*
X137336495Y-112807688D01*
X137122688Y-113021495D01*
X136954701Y-113272905D01*
X136838989Y-113552257D01*
X136780000Y-113848816D01*
X127960000Y-113848816D01*
X127960000Y-109800000D01*
X141657089Y-109800000D01*
X141688657Y-110120516D01*
X141782148Y-110428715D01*
X141933969Y-110712752D01*
X142138286Y-110961714D01*
X142221972Y-111030393D01*
X142142843Y-111126812D01*
X142014236Y-111367419D01*
X141935040Y-111628493D01*
X141908299Y-111900000D01*
X141935040Y-112171507D01*
X142014236Y-112432581D01*
X142142843Y-112673188D01*
X142315919Y-112884081D01*
X142335316Y-112900000D01*
X142315919Y-112915919D01*
X142142843Y-113126812D01*
X142014236Y-113367419D01*
X141935040Y-113628493D01*
X141908299Y-113900000D01*
X141935040Y-114171507D01*
X142014236Y-114432581D01*
X142138940Y-114665886D01*
X142098815Y-114698815D01*
X142019463Y-114795506D01*
X141960498Y-114905820D01*
X141924188Y-115025518D01*
X141911928Y-115150000D01*
X141911928Y-116650000D01*
X141924188Y-116774482D01*
X141960498Y-116894180D01*
X142012529Y-116991522D01*
X141933969Y-117087248D01*
X141782148Y-117371285D01*
X141688657Y-117679484D01*
X141657089Y-118000000D01*
X141688657Y-118320516D01*
X141782148Y-118628715D01*
X141933969Y-118912752D01*
X142138286Y-119161714D01*
X142387248Y-119366031D01*
X142671285Y-119517852D01*
X142979484Y-119611343D01*
X143219678Y-119635000D01*
X144380322Y-119635000D01*
X144620516Y-119611343D01*
X144928715Y-119517852D01*
X145212752Y-119366031D01*
X145461714Y-119161714D01*
X145666031Y-118912752D01*
X145817852Y-118628715D01*
X145911343Y-118320516D01*
X145942911Y-118000000D01*
X145911343Y-117679484D01*
X145817852Y-117371285D01*
X145666031Y-117087248D01*
X145587471Y-116991522D01*
X145639502Y-116894180D01*
X145675812Y-116774482D01*
X145688072Y-116650000D01*
X145688072Y-115150000D01*
X145675812Y-115025518D01*
X145639502Y-114905820D01*
X145580537Y-114795506D01*
X145501185Y-114698815D01*
X145461060Y-114665886D01*
X145585764Y-114432581D01*
X145664960Y-114171507D01*
X145691701Y-113900000D01*
X145664960Y-113628493D01*
X145585764Y-113367419D01*
X145457157Y-113126812D01*
X145284081Y-112915919D01*
X145264684Y-112900000D01*
X145284081Y-112884081D01*
X145457157Y-112673188D01*
X145585764Y-112432581D01*
X145664960Y-112171507D01*
X145691701Y-111900000D01*
X145664960Y-111628493D01*
X145585764Y-111367419D01*
X145457157Y-111126812D01*
X145378028Y-111030393D01*
X145461714Y-110961714D01*
X145666031Y-110712752D01*
X145817852Y-110428715D01*
X145911343Y-110120516D01*
X145942911Y-109800000D01*
X145911343Y-109479484D01*
X145817852Y-109171285D01*
X145666031Y-108887248D01*
X145461714Y-108638286D01*
X145212752Y-108433969D01*
X144928715Y-108282148D01*
X144620516Y-108188657D01*
X144380322Y-108165000D01*
X143219678Y-108165000D01*
X142979484Y-108188657D01*
X142671285Y-108282148D01*
X142387248Y-108433969D01*
X142138286Y-108638286D01*
X141933969Y-108887248D01*
X141782148Y-109171285D01*
X141688657Y-109479484D01*
X141657089Y-109800000D01*
X127960000Y-109800000D01*
X127960000Y-102650000D01*
X136811928Y-102650000D01*
X136811928Y-104150000D01*
X136828992Y-104323254D01*
X136879528Y-104489850D01*
X136961595Y-104643386D01*
X137072038Y-104777962D01*
X137206614Y-104888405D01*
X137360150Y-104970472D01*
X137526746Y-105021008D01*
X137700000Y-105038072D01*
X138900000Y-105038072D01*
X139073254Y-105021008D01*
X139239850Y-104970472D01*
X139393386Y-104888405D01*
X139527962Y-104777962D01*
X139638405Y-104643386D01*
X139720472Y-104489850D01*
X139771008Y-104323254D01*
X139788072Y-104150000D01*
X139788072Y-102650000D01*
X139786595Y-102635000D01*
X140021637Y-102635000D01*
X140260236Y-102587540D01*
X140484992Y-102494443D01*
X140687267Y-102359287D01*
X140859287Y-102187267D01*
X140994443Y-101984992D01*
X141087540Y-101760236D01*
X141135000Y-101521637D01*
X141135000Y-101278363D01*
X141087540Y-101039764D01*
X140994443Y-100815008D01*
X140859287Y-100612733D01*
X140687267Y-100440713D01*
X140484992Y-100305557D01*
X140260236Y-100212460D01*
X140021637Y-100165000D01*
X139778363Y-100165000D01*
X139539764Y-100212460D01*
X139315008Y-100305557D01*
X139112733Y-100440713D01*
X138940713Y-100612733D01*
X138805557Y-100815008D01*
X138712460Y-101039764D01*
X138665000Y-101278363D01*
X138665000Y-101521637D01*
X138712460Y-101760236D01*
X138713161Y-101761928D01*
X137700000Y-101761928D01*
X137526746Y-101778992D01*
X137360150Y-101829528D01*
X137206614Y-101911595D01*
X137072038Y-102022038D01*
X136961595Y-102156614D01*
X136879528Y-102310150D01*
X136828992Y-102476746D01*
X136811928Y-102650000D01*
X127960000Y-102650000D01*
X127960000Y-92560000D01*
X146140000Y-92560000D01*
X146140001Y-136440000D01*
G37*
%TD.AperFunction*%
%TD*%
D16*
%TO.N,Net-(D1-Pad1)*%
X165640001Y-136440000D02*
X158349681Y-136440000D01*
X158542095Y-136360299D01*
X158793505Y-136192312D01*
X159007312Y-135978505D01*
X159175299Y-135727095D01*
X159291011Y-135447743D01*
X159350000Y-135151184D01*
X159350000Y-134848816D01*
X159291011Y-134552257D01*
X159175299Y-134272905D01*
X159007312Y-134021495D01*
X158793505Y-133807688D01*
X158542095Y-133639701D01*
X158262743Y-133523989D01*
X157966184Y-133465000D01*
X157663816Y-133465000D01*
X157367257Y-133523989D01*
X157087905Y-133639701D01*
X156836495Y-133807688D01*
X156622688Y-134021495D01*
X156454701Y-134272905D01*
X156338989Y-134552257D01*
X156280000Y-134848816D01*
X156280000Y-135151184D01*
X156338989Y-135447743D01*
X156454701Y-135727095D01*
X156622688Y-135978505D01*
X156836495Y-136192312D01*
X157087905Y-136360299D01*
X157280319Y-136440000D01*
X147460000Y-136440000D01*
X147460000Y-127848816D01*
X156280000Y-127848816D01*
X156280000Y-128151184D01*
X156338989Y-128447743D01*
X156454701Y-128727095D01*
X156622688Y-128978505D01*
X156836495Y-129192312D01*
X157087905Y-129360299D01*
X157367257Y-129476011D01*
X157663816Y-129535000D01*
X157966184Y-129535000D01*
X158262743Y-129476011D01*
X158542095Y-129360299D01*
X158793505Y-129192312D01*
X159007312Y-128978505D01*
X159175299Y-128727095D01*
X159291011Y-128447743D01*
X159350000Y-128151184D01*
X159350000Y-127848816D01*
X159291011Y-127552257D01*
X159175299Y-127272905D01*
X159007312Y-127021495D01*
X158793505Y-126807688D01*
X158542095Y-126639701D01*
X158262743Y-126523989D01*
X157966184Y-126465000D01*
X157663816Y-126465000D01*
X157367257Y-126523989D01*
X157087905Y-126639701D01*
X156836495Y-126807688D01*
X156622688Y-127021495D01*
X156454701Y-127272905D01*
X156338989Y-127552257D01*
X156280000Y-127848816D01*
X147460000Y-127848816D01*
X147460000Y-120848816D01*
X156280000Y-120848816D01*
X156280000Y-121151184D01*
X156338989Y-121447743D01*
X156454701Y-121727095D01*
X156622688Y-121978505D01*
X156836495Y-122192312D01*
X157087905Y-122360299D01*
X157367257Y-122476011D01*
X157663816Y-122535000D01*
X157966184Y-122535000D01*
X158262743Y-122476011D01*
X158542095Y-122360299D01*
X158793505Y-122192312D01*
X159007312Y-121978505D01*
X159175299Y-121727095D01*
X159291011Y-121447743D01*
X159350000Y-121151184D01*
X159350000Y-120848816D01*
X159291011Y-120552257D01*
X159175299Y-120272905D01*
X159007312Y-120021495D01*
X158793505Y-119807688D01*
X158542095Y-119639701D01*
X158262743Y-119523989D01*
X157966184Y-119465000D01*
X157663816Y-119465000D01*
X157367257Y-119523989D01*
X157087905Y-119639701D01*
X156836495Y-119807688D01*
X156622688Y-120021495D01*
X156454701Y-120272905D01*
X156338989Y-120552257D01*
X156280000Y-120848816D01*
X147460000Y-120848816D01*
X147460000Y-113848816D01*
X156280000Y-113848816D01*
X156280000Y-114151184D01*
X156338989Y-114447743D01*
X156454701Y-114727095D01*
X156622688Y-114978505D01*
X156836495Y-115192312D01*
X157087905Y-115360299D01*
X157367257Y-115476011D01*
X157663816Y-115535000D01*
X157966184Y-115535000D01*
X158262743Y-115476011D01*
X158542095Y-115360299D01*
X158793505Y-115192312D01*
X159007312Y-114978505D01*
X159175299Y-114727095D01*
X159291011Y-114447743D01*
X159350000Y-114151184D01*
X159350000Y-113848816D01*
X159291011Y-113552257D01*
X159175299Y-113272905D01*
X159007312Y-113021495D01*
X158793505Y-112807688D01*
X158542095Y-112639701D01*
X158262743Y-112523989D01*
X157966184Y-112465000D01*
X157663816Y-112465000D01*
X157367257Y-112523989D01*
X157087905Y-112639701D01*
X156836495Y-112807688D01*
X156622688Y-113021495D01*
X156454701Y-113272905D01*
X156338989Y-113552257D01*
X156280000Y-113848816D01*
X147460000Y-113848816D01*
X147460000Y-109800000D01*
X161157089Y-109800000D01*
X161188657Y-110120516D01*
X161282148Y-110428715D01*
X161433969Y-110712752D01*
X161638286Y-110961714D01*
X161721972Y-111030393D01*
X161642843Y-111126812D01*
X161514236Y-111367419D01*
X161435040Y-111628493D01*
X161408299Y-111900000D01*
X161435040Y-112171507D01*
X161514236Y-112432581D01*
X161642843Y-112673188D01*
X161815919Y-112884081D01*
X161835316Y-112900000D01*
X161815919Y-112915919D01*
X161642843Y-113126812D01*
X161514236Y-113367419D01*
X161435040Y-113628493D01*
X161408299Y-113900000D01*
X161435040Y-114171507D01*
X161514236Y-114432581D01*
X161638940Y-114665886D01*
X161598815Y-114698815D01*
X161519463Y-114795506D01*
X161460498Y-114905820D01*
X161424188Y-115025518D01*
X161411928Y-115150000D01*
X161411928Y-116650000D01*
X161424188Y-116774482D01*
X161460498Y-116894180D01*
X161512529Y-116991522D01*
X161433969Y-117087248D01*
X161282148Y-117371285D01*
X161188657Y-117679484D01*
X161157089Y-118000000D01*
X161188657Y-118320516D01*
X161282148Y-118628715D01*
X161433969Y-118912752D01*
X161638286Y-119161714D01*
X161887248Y-119366031D01*
X162171285Y-119517852D01*
X162479484Y-119611343D01*
X162719678Y-119635000D01*
X163880322Y-119635000D01*
X164120516Y-119611343D01*
X164428715Y-119517852D01*
X164712752Y-119366031D01*
X164961714Y-119161714D01*
X165166031Y-118912752D01*
X165317852Y-118628715D01*
X165411343Y-118320516D01*
X165442911Y-118000000D01*
X165411343Y-117679484D01*
X165317852Y-117371285D01*
X165166031Y-117087248D01*
X165087471Y-116991522D01*
X165139502Y-116894180D01*
X165175812Y-116774482D01*
X165188072Y-116650000D01*
X165188072Y-115150000D01*
X165175812Y-115025518D01*
X165139502Y-114905820D01*
X165080537Y-114795506D01*
X165001185Y-114698815D01*
X164961060Y-114665886D01*
X165085764Y-114432581D01*
X165164960Y-114171507D01*
X165191701Y-113900000D01*
X165164960Y-113628493D01*
X165085764Y-113367419D01*
X164957157Y-113126812D01*
X164784081Y-112915919D01*
X164764684Y-112900000D01*
X164784081Y-112884081D01*
X164957157Y-112673188D01*
X165085764Y-112432581D01*
X165164960Y-112171507D01*
X165191701Y-111900000D01*
X165164960Y-111628493D01*
X165085764Y-111367419D01*
X164957157Y-111126812D01*
X164878028Y-111030393D01*
X164961714Y-110961714D01*
X165166031Y-110712752D01*
X165317852Y-110428715D01*
X165411343Y-110120516D01*
X165442911Y-109800000D01*
X165411343Y-109479484D01*
X165317852Y-109171285D01*
X165166031Y-108887248D01*
X164961714Y-108638286D01*
X164712752Y-108433969D01*
X164428715Y-108282148D01*
X164120516Y-108188657D01*
X163880322Y-108165000D01*
X162719678Y-108165000D01*
X162479484Y-108188657D01*
X162171285Y-108282148D01*
X161887248Y-108433969D01*
X161638286Y-108638286D01*
X161433969Y-108887248D01*
X161282148Y-109171285D01*
X161188657Y-109479484D01*
X161157089Y-109800000D01*
X147460000Y-109800000D01*
X147460000Y-102650000D01*
X156311928Y-102650000D01*
X156311928Y-104150000D01*
X156328992Y-104323254D01*
X156379528Y-104489850D01*
X156461595Y-104643386D01*
X156572038Y-104777962D01*
X156706614Y-104888405D01*
X156860150Y-104970472D01*
X157026746Y-105021008D01*
X157200000Y-105038072D01*
X158400000Y-105038072D01*
X158573254Y-105021008D01*
X158739850Y-104970472D01*
X158893386Y-104888405D01*
X159027962Y-104777962D01*
X159138405Y-104643386D01*
X159220472Y-104489850D01*
X159271008Y-104323254D01*
X159288072Y-104150000D01*
X159288072Y-102650000D01*
X159286595Y-102635000D01*
X159521637Y-102635000D01*
X159760236Y-102587540D01*
X159984992Y-102494443D01*
X160187267Y-102359287D01*
X160359287Y-102187267D01*
X160494443Y-101984992D01*
X160587540Y-101760236D01*
X160635000Y-101521637D01*
X160635000Y-101278363D01*
X160587540Y-101039764D01*
X160494443Y-100815008D01*
X160359287Y-100612733D01*
X160187267Y-100440713D01*
X159984992Y-100305557D01*
X159760236Y-100212460D01*
X159521637Y-100165000D01*
X159278363Y-100165000D01*
X159039764Y-100212460D01*
X158815008Y-100305557D01*
X158612733Y-100440713D01*
X158440713Y-100612733D01*
X158305557Y-100815008D01*
X158212460Y-101039764D01*
X158165000Y-101278363D01*
X158165000Y-101521637D01*
X158212460Y-101760236D01*
X158213161Y-101761928D01*
X157200000Y-101761928D01*
X157026746Y-101778992D01*
X156860150Y-101829528D01*
X156706614Y-101911595D01*
X156572038Y-102022038D01*
X156461595Y-102156614D01*
X156379528Y-102310150D01*
X156328992Y-102476746D01*
X156311928Y-102650000D01*
X147460000Y-102650000D01*
X147460000Y-92560000D01*
X165640000Y-92560000D01*
X165640001Y-136440000D01*
%TA.AperFunction,Conductor*%
D17*
G36*
X165640001Y-136440000D02*
G01*
X158349681Y-136440000D01*
X158542095Y-136360299D01*
X158793505Y-136192312D01*
X159007312Y-135978505D01*
X159175299Y-135727095D01*
X159291011Y-135447743D01*
X159350000Y-135151184D01*
X159350000Y-134848816D01*
X159291011Y-134552257D01*
X159175299Y-134272905D01*
X159007312Y-134021495D01*
X158793505Y-133807688D01*
X158542095Y-133639701D01*
X158262743Y-133523989D01*
X157966184Y-133465000D01*
X157663816Y-133465000D01*
X157367257Y-133523989D01*
X157087905Y-133639701D01*
X156836495Y-133807688D01*
X156622688Y-134021495D01*
X156454701Y-134272905D01*
X156338989Y-134552257D01*
X156280000Y-134848816D01*
X156280000Y-135151184D01*
X156338989Y-135447743D01*
X156454701Y-135727095D01*
X156622688Y-135978505D01*
X156836495Y-136192312D01*
X157087905Y-136360299D01*
X157280319Y-136440000D01*
X147460000Y-136440000D01*
X147460000Y-127848816D01*
X156280000Y-127848816D01*
X156280000Y-128151184D01*
X156338989Y-128447743D01*
X156454701Y-128727095D01*
X156622688Y-128978505D01*
X156836495Y-129192312D01*
X157087905Y-129360299D01*
X157367257Y-129476011D01*
X157663816Y-129535000D01*
X157966184Y-129535000D01*
X158262743Y-129476011D01*
X158542095Y-129360299D01*
X158793505Y-129192312D01*
X159007312Y-128978505D01*
X159175299Y-128727095D01*
X159291011Y-128447743D01*
X159350000Y-128151184D01*
X159350000Y-127848816D01*
X159291011Y-127552257D01*
X159175299Y-127272905D01*
X159007312Y-127021495D01*
X158793505Y-126807688D01*
X158542095Y-126639701D01*
X158262743Y-126523989D01*
X157966184Y-126465000D01*
X157663816Y-126465000D01*
X157367257Y-126523989D01*
X157087905Y-126639701D01*
X156836495Y-126807688D01*
X156622688Y-127021495D01*
X156454701Y-127272905D01*
X156338989Y-127552257D01*
X156280000Y-127848816D01*
X147460000Y-127848816D01*
X147460000Y-120848816D01*
X156280000Y-120848816D01*
X156280000Y-121151184D01*
X156338989Y-121447743D01*
X156454701Y-121727095D01*
X156622688Y-121978505D01*
X156836495Y-122192312D01*
X157087905Y-122360299D01*
X157367257Y-122476011D01*
X157663816Y-122535000D01*
X157966184Y-122535000D01*
X158262743Y-122476011D01*
X158542095Y-122360299D01*
X158793505Y-122192312D01*
X159007312Y-121978505D01*
X159175299Y-121727095D01*
X159291011Y-121447743D01*
X159350000Y-121151184D01*
X159350000Y-120848816D01*
X159291011Y-120552257D01*
X159175299Y-120272905D01*
X159007312Y-120021495D01*
X158793505Y-119807688D01*
X158542095Y-119639701D01*
X158262743Y-119523989D01*
X157966184Y-119465000D01*
X157663816Y-119465000D01*
X157367257Y-119523989D01*
X157087905Y-119639701D01*
X156836495Y-119807688D01*
X156622688Y-120021495D01*
X156454701Y-120272905D01*
X156338989Y-120552257D01*
X156280000Y-120848816D01*
X147460000Y-120848816D01*
X147460000Y-113848816D01*
X156280000Y-113848816D01*
X156280000Y-114151184D01*
X156338989Y-114447743D01*
X156454701Y-114727095D01*
X156622688Y-114978505D01*
X156836495Y-115192312D01*
X157087905Y-115360299D01*
X157367257Y-115476011D01*
X157663816Y-115535000D01*
X157966184Y-115535000D01*
X158262743Y-115476011D01*
X158542095Y-115360299D01*
X158793505Y-115192312D01*
X159007312Y-114978505D01*
X159175299Y-114727095D01*
X159291011Y-114447743D01*
X159350000Y-114151184D01*
X159350000Y-113848816D01*
X159291011Y-113552257D01*
X159175299Y-113272905D01*
X159007312Y-113021495D01*
X158793505Y-112807688D01*
X158542095Y-112639701D01*
X158262743Y-112523989D01*
X157966184Y-112465000D01*
X157663816Y-112465000D01*
X157367257Y-112523989D01*
X157087905Y-112639701D01*
X156836495Y-112807688D01*
X156622688Y-113021495D01*
X156454701Y-113272905D01*
X156338989Y-113552257D01*
X156280000Y-113848816D01*
X147460000Y-113848816D01*
X147460000Y-109800000D01*
X161157089Y-109800000D01*
X161188657Y-110120516D01*
X161282148Y-110428715D01*
X161433969Y-110712752D01*
X161638286Y-110961714D01*
X161721972Y-111030393D01*
X161642843Y-111126812D01*
X161514236Y-111367419D01*
X161435040Y-111628493D01*
X161408299Y-111900000D01*
X161435040Y-112171507D01*
X161514236Y-112432581D01*
X161642843Y-112673188D01*
X161815919Y-112884081D01*
X161835316Y-112900000D01*
X161815919Y-112915919D01*
X161642843Y-113126812D01*
X161514236Y-113367419D01*
X161435040Y-113628493D01*
X161408299Y-113900000D01*
X161435040Y-114171507D01*
X161514236Y-114432581D01*
X161638940Y-114665886D01*
X161598815Y-114698815D01*
X161519463Y-114795506D01*
X161460498Y-114905820D01*
X161424188Y-115025518D01*
X161411928Y-115150000D01*
X161411928Y-116650000D01*
X161424188Y-116774482D01*
X161460498Y-116894180D01*
X161512529Y-116991522D01*
X161433969Y-117087248D01*
X161282148Y-117371285D01*
X161188657Y-117679484D01*
X161157089Y-118000000D01*
X161188657Y-118320516D01*
X161282148Y-118628715D01*
X161433969Y-118912752D01*
X161638286Y-119161714D01*
X161887248Y-119366031D01*
X162171285Y-119517852D01*
X162479484Y-119611343D01*
X162719678Y-119635000D01*
X163880322Y-119635000D01*
X164120516Y-119611343D01*
X164428715Y-119517852D01*
X164712752Y-119366031D01*
X164961714Y-119161714D01*
X165166031Y-118912752D01*
X165317852Y-118628715D01*
X165411343Y-118320516D01*
X165442911Y-118000000D01*
X165411343Y-117679484D01*
X165317852Y-117371285D01*
X165166031Y-117087248D01*
X165087471Y-116991522D01*
X165139502Y-116894180D01*
X165175812Y-116774482D01*
X165188072Y-116650000D01*
X165188072Y-115150000D01*
X165175812Y-115025518D01*
X165139502Y-114905820D01*
X165080537Y-114795506D01*
X165001185Y-114698815D01*
X164961060Y-114665886D01*
X165085764Y-114432581D01*
X165164960Y-114171507D01*
X165191701Y-113900000D01*
X165164960Y-113628493D01*
X165085764Y-113367419D01*
X164957157Y-113126812D01*
X164784081Y-112915919D01*
X164764684Y-112900000D01*
X164784081Y-112884081D01*
X164957157Y-112673188D01*
X165085764Y-112432581D01*
X165164960Y-112171507D01*
X165191701Y-111900000D01*
X165164960Y-111628493D01*
X165085764Y-111367419D01*
X164957157Y-111126812D01*
X164878028Y-111030393D01*
X164961714Y-110961714D01*
X165166031Y-110712752D01*
X165317852Y-110428715D01*
X165411343Y-110120516D01*
X165442911Y-109800000D01*
X165411343Y-109479484D01*
X165317852Y-109171285D01*
X165166031Y-108887248D01*
X164961714Y-108638286D01*
X164712752Y-108433969D01*
X164428715Y-108282148D01*
X164120516Y-108188657D01*
X163880322Y-108165000D01*
X162719678Y-108165000D01*
X162479484Y-108188657D01*
X162171285Y-108282148D01*
X161887248Y-108433969D01*
X161638286Y-108638286D01*
X161433969Y-108887248D01*
X161282148Y-109171285D01*
X161188657Y-109479484D01*
X161157089Y-109800000D01*
X147460000Y-109800000D01*
X147460000Y-102650000D01*
X156311928Y-102650000D01*
X156311928Y-104150000D01*
X156328992Y-104323254D01*
X156379528Y-104489850D01*
X156461595Y-104643386D01*
X156572038Y-104777962D01*
X156706614Y-104888405D01*
X156860150Y-104970472D01*
X157026746Y-105021008D01*
X157200000Y-105038072D01*
X158400000Y-105038072D01*
X158573254Y-105021008D01*
X158739850Y-104970472D01*
X158893386Y-104888405D01*
X159027962Y-104777962D01*
X159138405Y-104643386D01*
X159220472Y-104489850D01*
X159271008Y-104323254D01*
X159288072Y-104150000D01*
X159288072Y-102650000D01*
X159286595Y-102635000D01*
X159521637Y-102635000D01*
X159760236Y-102587540D01*
X159984992Y-102494443D01*
X160187267Y-102359287D01*
X160359287Y-102187267D01*
X160494443Y-101984992D01*
X160587540Y-101760236D01*
X160635000Y-101521637D01*
X160635000Y-101278363D01*
X160587540Y-101039764D01*
X160494443Y-100815008D01*
X160359287Y-100612733D01*
X160187267Y-100440713D01*
X159984992Y-100305557D01*
X159760236Y-100212460D01*
X159521637Y-100165000D01*
X159278363Y-100165000D01*
X159039764Y-100212460D01*
X158815008Y-100305557D01*
X158612733Y-100440713D01*
X158440713Y-100612733D01*
X158305557Y-100815008D01*
X158212460Y-101039764D01*
X158165000Y-101278363D01*
X158165000Y-101521637D01*
X158212460Y-101760236D01*
X158213161Y-101761928D01*
X157200000Y-101761928D01*
X157026746Y-101778992D01*
X156860150Y-101829528D01*
X156706614Y-101911595D01*
X156572038Y-102022038D01*
X156461595Y-102156614D01*
X156379528Y-102310150D01*
X156328992Y-102476746D01*
X156311928Y-102650000D01*
X147460000Y-102650000D01*
X147460000Y-92560000D01*
X165640000Y-92560000D01*
X165640001Y-136440000D01*
G37*
%TD.AperFunction*%
%TD*%
D16*
%TO.N,Net-(D1-Pad1)*%
X185140001Y-136440000D02*
X177849681Y-136440000D01*
X178042095Y-136360299D01*
X178293505Y-136192312D01*
X178507312Y-135978505D01*
X178675299Y-135727095D01*
X178791011Y-135447743D01*
X178850000Y-135151184D01*
X178850000Y-134848816D01*
X178791011Y-134552257D01*
X178675299Y-134272905D01*
X178507312Y-134021495D01*
X178293505Y-133807688D01*
X178042095Y-133639701D01*
X177762743Y-133523989D01*
X177466184Y-133465000D01*
X177163816Y-133465000D01*
X176867257Y-133523989D01*
X176587905Y-133639701D01*
X176336495Y-133807688D01*
X176122688Y-134021495D01*
X175954701Y-134272905D01*
X175838989Y-134552257D01*
X175780000Y-134848816D01*
X175780000Y-135151184D01*
X175838989Y-135447743D01*
X175954701Y-135727095D01*
X176122688Y-135978505D01*
X176336495Y-136192312D01*
X176587905Y-136360299D01*
X176780319Y-136440000D01*
X166960000Y-136440000D01*
X166960000Y-127848816D01*
X175780000Y-127848816D01*
X175780000Y-128151184D01*
X175838989Y-128447743D01*
X175954701Y-128727095D01*
X176122688Y-128978505D01*
X176336495Y-129192312D01*
X176587905Y-129360299D01*
X176867257Y-129476011D01*
X177163816Y-129535000D01*
X177466184Y-129535000D01*
X177762743Y-129476011D01*
X178042095Y-129360299D01*
X178293505Y-129192312D01*
X178507312Y-128978505D01*
X178675299Y-128727095D01*
X178791011Y-128447743D01*
X178850000Y-128151184D01*
X178850000Y-127848816D01*
X178791011Y-127552257D01*
X178675299Y-127272905D01*
X178507312Y-127021495D01*
X178293505Y-126807688D01*
X178042095Y-126639701D01*
X177762743Y-126523989D01*
X177466184Y-126465000D01*
X177163816Y-126465000D01*
X176867257Y-126523989D01*
X176587905Y-126639701D01*
X176336495Y-126807688D01*
X176122688Y-127021495D01*
X175954701Y-127272905D01*
X175838989Y-127552257D01*
X175780000Y-127848816D01*
X166960000Y-127848816D01*
X166960000Y-120848816D01*
X175780000Y-120848816D01*
X175780000Y-121151184D01*
X175838989Y-121447743D01*
X175954701Y-121727095D01*
X176122688Y-121978505D01*
X176336495Y-122192312D01*
X176587905Y-122360299D01*
X176867257Y-122476011D01*
X177163816Y-122535000D01*
X177466184Y-122535000D01*
X177762743Y-122476011D01*
X178042095Y-122360299D01*
X178293505Y-122192312D01*
X178507312Y-121978505D01*
X178675299Y-121727095D01*
X178791011Y-121447743D01*
X178850000Y-121151184D01*
X178850000Y-120848816D01*
X178791011Y-120552257D01*
X178675299Y-120272905D01*
X178507312Y-120021495D01*
X178293505Y-119807688D01*
X178042095Y-119639701D01*
X177762743Y-119523989D01*
X177466184Y-119465000D01*
X177163816Y-119465000D01*
X176867257Y-119523989D01*
X176587905Y-119639701D01*
X176336495Y-119807688D01*
X176122688Y-120021495D01*
X175954701Y-120272905D01*
X175838989Y-120552257D01*
X175780000Y-120848816D01*
X166960000Y-120848816D01*
X166960000Y-113848816D01*
X175780000Y-113848816D01*
X175780000Y-114151184D01*
X175838989Y-114447743D01*
X175954701Y-114727095D01*
X176122688Y-114978505D01*
X176336495Y-115192312D01*
X176587905Y-115360299D01*
X176867257Y-115476011D01*
X177163816Y-115535000D01*
X177466184Y-115535000D01*
X177762743Y-115476011D01*
X178042095Y-115360299D01*
X178293505Y-115192312D01*
X178507312Y-114978505D01*
X178675299Y-114727095D01*
X178791011Y-114447743D01*
X178850000Y-114151184D01*
X178850000Y-113848816D01*
X178791011Y-113552257D01*
X178675299Y-113272905D01*
X178507312Y-113021495D01*
X178293505Y-112807688D01*
X178042095Y-112639701D01*
X177762743Y-112523989D01*
X177466184Y-112465000D01*
X177163816Y-112465000D01*
X176867257Y-112523989D01*
X176587905Y-112639701D01*
X176336495Y-112807688D01*
X176122688Y-113021495D01*
X175954701Y-113272905D01*
X175838989Y-113552257D01*
X175780000Y-113848816D01*
X166960000Y-113848816D01*
X166960000Y-109800000D01*
X180657089Y-109800000D01*
X180688657Y-110120516D01*
X180782148Y-110428715D01*
X180933969Y-110712752D01*
X181138286Y-110961714D01*
X181221972Y-111030393D01*
X181142843Y-111126812D01*
X181014236Y-111367419D01*
X180935040Y-111628493D01*
X180908299Y-111900000D01*
X180935040Y-112171507D01*
X181014236Y-112432581D01*
X181142843Y-112673188D01*
X181315919Y-112884081D01*
X181335316Y-112900000D01*
X181315919Y-112915919D01*
X181142843Y-113126812D01*
X181014236Y-113367419D01*
X180935040Y-113628493D01*
X180908299Y-113900000D01*
X180935040Y-114171507D01*
X181014236Y-114432581D01*
X181138940Y-114665886D01*
X181098815Y-114698815D01*
X181019463Y-114795506D01*
X180960498Y-114905820D01*
X180924188Y-115025518D01*
X180911928Y-115150000D01*
X180911928Y-116650000D01*
X180924188Y-116774482D01*
X180960498Y-116894180D01*
X181012529Y-116991522D01*
X180933969Y-117087248D01*
X180782148Y-117371285D01*
X180688657Y-117679484D01*
X180657089Y-118000000D01*
X180688657Y-118320516D01*
X180782148Y-118628715D01*
X180933969Y-118912752D01*
X181138286Y-119161714D01*
X181387248Y-119366031D01*
X181671285Y-119517852D01*
X181979484Y-119611343D01*
X182219678Y-119635000D01*
X183380322Y-119635000D01*
X183620516Y-119611343D01*
X183928715Y-119517852D01*
X184212752Y-119366031D01*
X184461714Y-119161714D01*
X184666031Y-118912752D01*
X184817852Y-118628715D01*
X184911343Y-118320516D01*
X184942911Y-118000000D01*
X184911343Y-117679484D01*
X184817852Y-117371285D01*
X184666031Y-117087248D01*
X184587471Y-116991522D01*
X184639502Y-116894180D01*
X184675812Y-116774482D01*
X184688072Y-116650000D01*
X184688072Y-115150000D01*
X184675812Y-115025518D01*
X184639502Y-114905820D01*
X184580537Y-114795506D01*
X184501185Y-114698815D01*
X184461060Y-114665886D01*
X184585764Y-114432581D01*
X184664960Y-114171507D01*
X184691701Y-113900000D01*
X184664960Y-113628493D01*
X184585764Y-113367419D01*
X184457157Y-113126812D01*
X184284081Y-112915919D01*
X184264684Y-112900000D01*
X184284081Y-112884081D01*
X184457157Y-112673188D01*
X184585764Y-112432581D01*
X184664960Y-112171507D01*
X184691701Y-111900000D01*
X184664960Y-111628493D01*
X184585764Y-111367419D01*
X184457157Y-111126812D01*
X184378028Y-111030393D01*
X184461714Y-110961714D01*
X184666031Y-110712752D01*
X184817852Y-110428715D01*
X184911343Y-110120516D01*
X184942911Y-109800000D01*
X184911343Y-109479484D01*
X184817852Y-109171285D01*
X184666031Y-108887248D01*
X184461714Y-108638286D01*
X184212752Y-108433969D01*
X183928715Y-108282148D01*
X183620516Y-108188657D01*
X183380322Y-108165000D01*
X182219678Y-108165000D01*
X181979484Y-108188657D01*
X181671285Y-108282148D01*
X181387248Y-108433969D01*
X181138286Y-108638286D01*
X180933969Y-108887248D01*
X180782148Y-109171285D01*
X180688657Y-109479484D01*
X180657089Y-109800000D01*
X166960000Y-109800000D01*
X166960000Y-102650000D01*
X175811928Y-102650000D01*
X175811928Y-104150000D01*
X175828992Y-104323254D01*
X175879528Y-104489850D01*
X175961595Y-104643386D01*
X176072038Y-104777962D01*
X176206614Y-104888405D01*
X176360150Y-104970472D01*
X176526746Y-105021008D01*
X176700000Y-105038072D01*
X177900000Y-105038072D01*
X178073254Y-105021008D01*
X178239850Y-104970472D01*
X178393386Y-104888405D01*
X178527962Y-104777962D01*
X178638405Y-104643386D01*
X178720472Y-104489850D01*
X178771008Y-104323254D01*
X178788072Y-104150000D01*
X178788072Y-102650000D01*
X178786595Y-102635000D01*
X179021637Y-102635000D01*
X179260236Y-102587540D01*
X179484992Y-102494443D01*
X179687267Y-102359287D01*
X179859287Y-102187267D01*
X179994443Y-101984992D01*
X180087540Y-101760236D01*
X180135000Y-101521637D01*
X180135000Y-101278363D01*
X180087540Y-101039764D01*
X179994443Y-100815008D01*
X179859287Y-100612733D01*
X179687267Y-100440713D01*
X179484992Y-100305557D01*
X179260236Y-100212460D01*
X179021637Y-100165000D01*
X178778363Y-100165000D01*
X178539764Y-100212460D01*
X178315008Y-100305557D01*
X178112733Y-100440713D01*
X177940713Y-100612733D01*
X177805557Y-100815008D01*
X177712460Y-101039764D01*
X177665000Y-101278363D01*
X177665000Y-101521637D01*
X177712460Y-101760236D01*
X177713161Y-101761928D01*
X176700000Y-101761928D01*
X176526746Y-101778992D01*
X176360150Y-101829528D01*
X176206614Y-101911595D01*
X176072038Y-102022038D01*
X175961595Y-102156614D01*
X175879528Y-102310150D01*
X175828992Y-102476746D01*
X175811928Y-102650000D01*
X166960000Y-102650000D01*
X166960000Y-92560000D01*
X185140000Y-92560000D01*
X185140001Y-136440000D01*
%TA.AperFunction,Conductor*%
D17*
G36*
X185140001Y-136440000D02*
G01*
X177849681Y-136440000D01*
X178042095Y-136360299D01*
X178293505Y-136192312D01*
X178507312Y-135978505D01*
X178675299Y-135727095D01*
X178791011Y-135447743D01*
X178850000Y-135151184D01*
X178850000Y-134848816D01*
X178791011Y-134552257D01*
X178675299Y-134272905D01*
X178507312Y-134021495D01*
X178293505Y-133807688D01*
X178042095Y-133639701D01*
X177762743Y-133523989D01*
X177466184Y-133465000D01*
X177163816Y-133465000D01*
X176867257Y-133523989D01*
X176587905Y-133639701D01*
X176336495Y-133807688D01*
X176122688Y-134021495D01*
X175954701Y-134272905D01*
X175838989Y-134552257D01*
X175780000Y-134848816D01*
X175780000Y-135151184D01*
X175838989Y-135447743D01*
X175954701Y-135727095D01*
X176122688Y-135978505D01*
X176336495Y-136192312D01*
X176587905Y-136360299D01*
X176780319Y-136440000D01*
X166960000Y-136440000D01*
X166960000Y-127848816D01*
X175780000Y-127848816D01*
X175780000Y-128151184D01*
X175838989Y-128447743D01*
X175954701Y-128727095D01*
X176122688Y-128978505D01*
X176336495Y-129192312D01*
X176587905Y-129360299D01*
X176867257Y-129476011D01*
X177163816Y-129535000D01*
X177466184Y-129535000D01*
X177762743Y-129476011D01*
X178042095Y-129360299D01*
X178293505Y-129192312D01*
X178507312Y-128978505D01*
X178675299Y-128727095D01*
X178791011Y-128447743D01*
X178850000Y-128151184D01*
X178850000Y-127848816D01*
X178791011Y-127552257D01*
X178675299Y-127272905D01*
X178507312Y-127021495D01*
X178293505Y-126807688D01*
X178042095Y-126639701D01*
X177762743Y-126523989D01*
X177466184Y-126465000D01*
X177163816Y-126465000D01*
X176867257Y-126523989D01*
X176587905Y-126639701D01*
X176336495Y-126807688D01*
X176122688Y-127021495D01*
X175954701Y-127272905D01*
X175838989Y-127552257D01*
X175780000Y-127848816D01*
X166960000Y-127848816D01*
X166960000Y-120848816D01*
X175780000Y-120848816D01*
X175780000Y-121151184D01*
X175838989Y-121447743D01*
X175954701Y-121727095D01*
X176122688Y-121978505D01*
X176336495Y-122192312D01*
X176587905Y-122360299D01*
X176867257Y-122476011D01*
X177163816Y-122535000D01*
X177466184Y-122535000D01*
X177762743Y-122476011D01*
X178042095Y-122360299D01*
X178293505Y-122192312D01*
X178507312Y-121978505D01*
X178675299Y-121727095D01*
X178791011Y-121447743D01*
X178850000Y-121151184D01*
X178850000Y-120848816D01*
X178791011Y-120552257D01*
X178675299Y-120272905D01*
X178507312Y-120021495D01*
X178293505Y-119807688D01*
X178042095Y-119639701D01*
X177762743Y-119523989D01*
X177466184Y-119465000D01*
X177163816Y-119465000D01*
X176867257Y-119523989D01*
X176587905Y-119639701D01*
X176336495Y-119807688D01*
X176122688Y-120021495D01*
X175954701Y-120272905D01*
X175838989Y-120552257D01*
X175780000Y-120848816D01*
X166960000Y-120848816D01*
X166960000Y-113848816D01*
X175780000Y-113848816D01*
X175780000Y-114151184D01*
X175838989Y-114447743D01*
X175954701Y-114727095D01*
X176122688Y-114978505D01*
X176336495Y-115192312D01*
X176587905Y-115360299D01*
X176867257Y-115476011D01*
X177163816Y-115535000D01*
X177466184Y-115535000D01*
X177762743Y-115476011D01*
X178042095Y-115360299D01*
X178293505Y-115192312D01*
X178507312Y-114978505D01*
X178675299Y-114727095D01*
X178791011Y-114447743D01*
X178850000Y-114151184D01*
X178850000Y-113848816D01*
X178791011Y-113552257D01*
X178675299Y-113272905D01*
X178507312Y-113021495D01*
X178293505Y-112807688D01*
X178042095Y-112639701D01*
X177762743Y-112523989D01*
X177466184Y-112465000D01*
X177163816Y-112465000D01*
X176867257Y-112523989D01*
X176587905Y-112639701D01*
X176336495Y-112807688D01*
X176122688Y-113021495D01*
X175954701Y-113272905D01*
X175838989Y-113552257D01*
X175780000Y-113848816D01*
X166960000Y-113848816D01*
X166960000Y-109800000D01*
X180657089Y-109800000D01*
X180688657Y-110120516D01*
X180782148Y-110428715D01*
X180933969Y-110712752D01*
X181138286Y-110961714D01*
X181221972Y-111030393D01*
X181142843Y-111126812D01*
X181014236Y-111367419D01*
X180935040Y-111628493D01*
X180908299Y-111900000D01*
X180935040Y-112171507D01*
X181014236Y-112432581D01*
X181142843Y-112673188D01*
X181315919Y-112884081D01*
X181335316Y-112900000D01*
X181315919Y-112915919D01*
X181142843Y-113126812D01*
X181014236Y-113367419D01*
X180935040Y-113628493D01*
X180908299Y-113900000D01*
X180935040Y-114171507D01*
X181014236Y-114432581D01*
X181138940Y-114665886D01*
X181098815Y-114698815D01*
X181019463Y-114795506D01*
X180960498Y-114905820D01*
X180924188Y-115025518D01*
X180911928Y-115150000D01*
X180911928Y-116650000D01*
X180924188Y-116774482D01*
X180960498Y-116894180D01*
X181012529Y-116991522D01*
X180933969Y-117087248D01*
X180782148Y-117371285D01*
X180688657Y-117679484D01*
X180657089Y-118000000D01*
X180688657Y-118320516D01*
X180782148Y-118628715D01*
X180933969Y-118912752D01*
X181138286Y-119161714D01*
X181387248Y-119366031D01*
X181671285Y-119517852D01*
X181979484Y-119611343D01*
X182219678Y-119635000D01*
X183380322Y-119635000D01*
X183620516Y-119611343D01*
X183928715Y-119517852D01*
X184212752Y-119366031D01*
X184461714Y-119161714D01*
X184666031Y-118912752D01*
X184817852Y-118628715D01*
X184911343Y-118320516D01*
X184942911Y-118000000D01*
X184911343Y-117679484D01*
X184817852Y-117371285D01*
X184666031Y-117087248D01*
X184587471Y-116991522D01*
X184639502Y-116894180D01*
X184675812Y-116774482D01*
X184688072Y-116650000D01*
X184688072Y-115150000D01*
X184675812Y-115025518D01*
X184639502Y-114905820D01*
X184580537Y-114795506D01*
X184501185Y-114698815D01*
X184461060Y-114665886D01*
X184585764Y-114432581D01*
X184664960Y-114171507D01*
X184691701Y-113900000D01*
X184664960Y-113628493D01*
X184585764Y-113367419D01*
X184457157Y-113126812D01*
X184284081Y-112915919D01*
X184264684Y-112900000D01*
X184284081Y-112884081D01*
X184457157Y-112673188D01*
X184585764Y-112432581D01*
X184664960Y-112171507D01*
X184691701Y-111900000D01*
X184664960Y-111628493D01*
X184585764Y-111367419D01*
X184457157Y-111126812D01*
X184378028Y-111030393D01*
X184461714Y-110961714D01*
X184666031Y-110712752D01*
X184817852Y-110428715D01*
X184911343Y-110120516D01*
X184942911Y-109800000D01*
X184911343Y-109479484D01*
X184817852Y-109171285D01*
X184666031Y-108887248D01*
X184461714Y-108638286D01*
X184212752Y-108433969D01*
X183928715Y-108282148D01*
X183620516Y-108188657D01*
X183380322Y-108165000D01*
X182219678Y-108165000D01*
X181979484Y-108188657D01*
X181671285Y-108282148D01*
X181387248Y-108433969D01*
X181138286Y-108638286D01*
X180933969Y-108887248D01*
X180782148Y-109171285D01*
X180688657Y-109479484D01*
X180657089Y-109800000D01*
X166960000Y-109800000D01*
X166960000Y-102650000D01*
X175811928Y-102650000D01*
X175811928Y-104150000D01*
X175828992Y-104323254D01*
X175879528Y-104489850D01*
X175961595Y-104643386D01*
X176072038Y-104777962D01*
X176206614Y-104888405D01*
X176360150Y-104970472D01*
X176526746Y-105021008D01*
X176700000Y-105038072D01*
X177900000Y-105038072D01*
X178073254Y-105021008D01*
X178239850Y-104970472D01*
X178393386Y-104888405D01*
X178527962Y-104777962D01*
X178638405Y-104643386D01*
X178720472Y-104489850D01*
X178771008Y-104323254D01*
X178788072Y-104150000D01*
X178788072Y-102650000D01*
X178786595Y-102635000D01*
X179021637Y-102635000D01*
X179260236Y-102587540D01*
X179484992Y-102494443D01*
X179687267Y-102359287D01*
X179859287Y-102187267D01*
X179994443Y-101984992D01*
X180087540Y-101760236D01*
X180135000Y-101521637D01*
X180135000Y-101278363D01*
X180087540Y-101039764D01*
X179994443Y-100815008D01*
X179859287Y-100612733D01*
X179687267Y-100440713D01*
X179484992Y-100305557D01*
X179260236Y-100212460D01*
X179021637Y-100165000D01*
X178778363Y-100165000D01*
X178539764Y-100212460D01*
X178315008Y-100305557D01*
X178112733Y-100440713D01*
X177940713Y-100612733D01*
X177805557Y-100815008D01*
X177712460Y-101039764D01*
X177665000Y-101278363D01*
X177665000Y-101521637D01*
X177712460Y-101760236D01*
X177713161Y-101761928D01*
X176700000Y-101761928D01*
X176526746Y-101778992D01*
X176360150Y-101829528D01*
X176206614Y-101911595D01*
X176072038Y-102022038D01*
X175961595Y-102156614D01*
X175879528Y-102310150D01*
X175828992Y-102476746D01*
X175811928Y-102650000D01*
X166960000Y-102650000D01*
X166960000Y-92560000D01*
X185140000Y-92560000D01*
X185140001Y-136440000D01*
G37*
%TD.AperFunction*%
%TD*%
M02*
