%TF.GenerationSoftware,KiCad,Pcbnew,(5.1.9)-1*%
%TF.CreationDate,2022-04-08T02:00:14+08:00*%
%TF.ProjectId,LED_panelize,4c45445f-7061-46e6-956c-697a652e6b69,rev?*%
%TF.SameCoordinates,Original*%
%TF.FileFunction,Paste,Top*%
%TF.FilePolarity,Positive*%
%FSLAX46Y46*%
G04 Gerber Fmt 4.6, Leading zero omitted, Abs format (unit mm)*
G04 Created by KiCad (PCBNEW (5.1.9)-1) date 2022-04-08 02:00:14*
%MOMM*%
%LPD*%
G01*
G04 APERTURE LIST*
G04 APERTURE END LIST*
%TO.C,R3*%
G36*
G01*
X169349998Y-114962500D02*
X170250002Y-114962500D01*
G75*
G02*
X170500000Y-115212498I0J-249998D01*
G01*
X170500000Y-115737502D01*
G75*
G02*
X170250002Y-115987500I-249998J0D01*
G01*
X169349998Y-115987500D01*
G75*
G02*
X169100000Y-115737502I0J249998D01*
G01*
X169100000Y-115212498D01*
G75*
G02*
X169349998Y-114962500I249998J0D01*
G01*
G37*
G36*
G01*
X169349998Y-116787500D02*
X170250002Y-116787500D01*
G75*
G02*
X170500000Y-117037498I0J-249998D01*
G01*
X170500000Y-117562502D01*
G75*
G02*
X170250002Y-117812500I-249998J0D01*
G01*
X169349998Y-117812500D01*
G75*
G02*
X169100000Y-117562502I0J249998D01*
G01*
X169100000Y-117037498D01*
G75*
G02*
X169349998Y-116787500I249998J0D01*
G01*
G37*
%TD*%
%TO.C,R3*%
G36*
G01*
X149849998Y-114962500D02*
X150750002Y-114962500D01*
G75*
G02*
X151000000Y-115212498I0J-249998D01*
G01*
X151000000Y-115737502D01*
G75*
G02*
X150750002Y-115987500I-249998J0D01*
G01*
X149849998Y-115987500D01*
G75*
G02*
X149600000Y-115737502I0J249998D01*
G01*
X149600000Y-115212498D01*
G75*
G02*
X149849998Y-114962500I249998J0D01*
G01*
G37*
G36*
G01*
X149849998Y-116787500D02*
X150750002Y-116787500D01*
G75*
G02*
X151000000Y-117037498I0J-249998D01*
G01*
X151000000Y-117562502D01*
G75*
G02*
X150750002Y-117812500I-249998J0D01*
G01*
X149849998Y-117812500D01*
G75*
G02*
X149600000Y-117562502I0J249998D01*
G01*
X149600000Y-117037498D01*
G75*
G02*
X149849998Y-116787500I249998J0D01*
G01*
G37*
%TD*%
%TO.C,R3*%
G36*
G01*
X130349998Y-114962500D02*
X131250002Y-114962500D01*
G75*
G02*
X131500000Y-115212498I0J-249998D01*
G01*
X131500000Y-115737502D01*
G75*
G02*
X131250002Y-115987500I-249998J0D01*
G01*
X130349998Y-115987500D01*
G75*
G02*
X130100000Y-115737502I0J249998D01*
G01*
X130100000Y-115212498D01*
G75*
G02*
X130349998Y-114962500I249998J0D01*
G01*
G37*
G36*
G01*
X130349998Y-116787500D02*
X131250002Y-116787500D01*
G75*
G02*
X131500000Y-117037498I0J-249998D01*
G01*
X131500000Y-117562502D01*
G75*
G02*
X131250002Y-117812500I-249998J0D01*
G01*
X130349998Y-117812500D01*
G75*
G02*
X130100000Y-117562502I0J249998D01*
G01*
X130100000Y-117037498D01*
G75*
G02*
X130349998Y-116787500I249998J0D01*
G01*
G37*
%TD*%
%TO.C,R3*%
G36*
G01*
X110849998Y-114962500D02*
X111750002Y-114962500D01*
G75*
G02*
X112000000Y-115212498I0J-249998D01*
G01*
X112000000Y-115737502D01*
G75*
G02*
X111750002Y-115987500I-249998J0D01*
G01*
X110849998Y-115987500D01*
G75*
G02*
X110600000Y-115737502I0J249998D01*
G01*
X110600000Y-115212498D01*
G75*
G02*
X110849998Y-114962500I249998J0D01*
G01*
G37*
G36*
G01*
X110849998Y-116787500D02*
X111750002Y-116787500D01*
G75*
G02*
X112000000Y-117037498I0J-249998D01*
G01*
X112000000Y-117562502D01*
G75*
G02*
X111750002Y-117812500I-249998J0D01*
G01*
X110849998Y-117812500D01*
G75*
G02*
X110600000Y-117562502I0J249998D01*
G01*
X110600000Y-117037498D01*
G75*
G02*
X110849998Y-116787500I249998J0D01*
G01*
G37*
%TD*%
%TO.C,R3*%
G36*
G01*
X91349998Y-114962500D02*
X92250002Y-114962500D01*
G75*
G02*
X92500000Y-115212498I0J-249998D01*
G01*
X92500000Y-115737502D01*
G75*
G02*
X92250002Y-115987500I-249998J0D01*
G01*
X91349998Y-115987500D01*
G75*
G02*
X91100000Y-115737502I0J249998D01*
G01*
X91100000Y-115212498D01*
G75*
G02*
X91349998Y-114962500I249998J0D01*
G01*
G37*
G36*
G01*
X91349998Y-116787500D02*
X92250002Y-116787500D01*
G75*
G02*
X92500000Y-117037498I0J-249998D01*
G01*
X92500000Y-117562502D01*
G75*
G02*
X92250002Y-117812500I-249998J0D01*
G01*
X91349998Y-117812500D01*
G75*
G02*
X91100000Y-117562502I0J249998D01*
G01*
X91100000Y-117037498D01*
G75*
G02*
X91349998Y-116787500I249998J0D01*
G01*
G37*
%TD*%
%TO.C,R3*%
G36*
G01*
X169349998Y-69762500D02*
X170250002Y-69762500D01*
G75*
G02*
X170500000Y-70012498I0J-249998D01*
G01*
X170500000Y-70537502D01*
G75*
G02*
X170250002Y-70787500I-249998J0D01*
G01*
X169349998Y-70787500D01*
G75*
G02*
X169100000Y-70537502I0J249998D01*
G01*
X169100000Y-70012498D01*
G75*
G02*
X169349998Y-69762500I249998J0D01*
G01*
G37*
G36*
G01*
X169349998Y-71587500D02*
X170250002Y-71587500D01*
G75*
G02*
X170500000Y-71837498I0J-249998D01*
G01*
X170500000Y-72362502D01*
G75*
G02*
X170250002Y-72612500I-249998J0D01*
G01*
X169349998Y-72612500D01*
G75*
G02*
X169100000Y-72362502I0J249998D01*
G01*
X169100000Y-71837498D01*
G75*
G02*
X169349998Y-71587500I249998J0D01*
G01*
G37*
%TD*%
%TO.C,R3*%
G36*
G01*
X149849998Y-69762500D02*
X150750002Y-69762500D01*
G75*
G02*
X151000000Y-70012498I0J-249998D01*
G01*
X151000000Y-70537502D01*
G75*
G02*
X150750002Y-70787500I-249998J0D01*
G01*
X149849998Y-70787500D01*
G75*
G02*
X149600000Y-70537502I0J249998D01*
G01*
X149600000Y-70012498D01*
G75*
G02*
X149849998Y-69762500I249998J0D01*
G01*
G37*
G36*
G01*
X149849998Y-71587500D02*
X150750002Y-71587500D01*
G75*
G02*
X151000000Y-71837498I0J-249998D01*
G01*
X151000000Y-72362502D01*
G75*
G02*
X150750002Y-72612500I-249998J0D01*
G01*
X149849998Y-72612500D01*
G75*
G02*
X149600000Y-72362502I0J249998D01*
G01*
X149600000Y-71837498D01*
G75*
G02*
X149849998Y-71587500I249998J0D01*
G01*
G37*
%TD*%
%TO.C,R3*%
G36*
G01*
X130349998Y-69762500D02*
X131250002Y-69762500D01*
G75*
G02*
X131500000Y-70012498I0J-249998D01*
G01*
X131500000Y-70537502D01*
G75*
G02*
X131250002Y-70787500I-249998J0D01*
G01*
X130349998Y-70787500D01*
G75*
G02*
X130100000Y-70537502I0J249998D01*
G01*
X130100000Y-70012498D01*
G75*
G02*
X130349998Y-69762500I249998J0D01*
G01*
G37*
G36*
G01*
X130349998Y-71587500D02*
X131250002Y-71587500D01*
G75*
G02*
X131500000Y-71837498I0J-249998D01*
G01*
X131500000Y-72362502D01*
G75*
G02*
X131250002Y-72612500I-249998J0D01*
G01*
X130349998Y-72612500D01*
G75*
G02*
X130100000Y-72362502I0J249998D01*
G01*
X130100000Y-71837498D01*
G75*
G02*
X130349998Y-71587500I249998J0D01*
G01*
G37*
%TD*%
%TO.C,R3*%
G36*
G01*
X110849998Y-69762500D02*
X111750002Y-69762500D01*
G75*
G02*
X112000000Y-70012498I0J-249998D01*
G01*
X112000000Y-70537502D01*
G75*
G02*
X111750002Y-70787500I-249998J0D01*
G01*
X110849998Y-70787500D01*
G75*
G02*
X110600000Y-70537502I0J249998D01*
G01*
X110600000Y-70012498D01*
G75*
G02*
X110849998Y-69762500I249998J0D01*
G01*
G37*
G36*
G01*
X110849998Y-71587500D02*
X111750002Y-71587500D01*
G75*
G02*
X112000000Y-71837498I0J-249998D01*
G01*
X112000000Y-72362502D01*
G75*
G02*
X111750002Y-72612500I-249998J0D01*
G01*
X110849998Y-72612500D01*
G75*
G02*
X110600000Y-72362502I0J249998D01*
G01*
X110600000Y-71837498D01*
G75*
G02*
X110849998Y-71587500I249998J0D01*
G01*
G37*
%TD*%
%TO.C,R4*%
G36*
G01*
X169349999Y-128962500D02*
X170250001Y-128962500D01*
G75*
G02*
X170500000Y-129212499I0J-249999D01*
G01*
X170500000Y-129737501D01*
G75*
G02*
X170250001Y-129987500I-249999J0D01*
G01*
X169349999Y-129987500D01*
G75*
G02*
X169100000Y-129737501I0J249999D01*
G01*
X169100000Y-129212499D01*
G75*
G02*
X169349999Y-128962500I249999J0D01*
G01*
G37*
G36*
G01*
X169349999Y-130787500D02*
X170250001Y-130787500D01*
G75*
G02*
X170500000Y-131037499I0J-249999D01*
G01*
X170500000Y-131562501D01*
G75*
G02*
X170250001Y-131812500I-249999J0D01*
G01*
X169349999Y-131812500D01*
G75*
G02*
X169100000Y-131562501I0J249999D01*
G01*
X169100000Y-131037499D01*
G75*
G02*
X169349999Y-130787500I249999J0D01*
G01*
G37*
%TD*%
%TO.C,R4*%
G36*
G01*
X149849999Y-128962500D02*
X150750001Y-128962500D01*
G75*
G02*
X151000000Y-129212499I0J-249999D01*
G01*
X151000000Y-129737501D01*
G75*
G02*
X150750001Y-129987500I-249999J0D01*
G01*
X149849999Y-129987500D01*
G75*
G02*
X149600000Y-129737501I0J249999D01*
G01*
X149600000Y-129212499D01*
G75*
G02*
X149849999Y-128962500I249999J0D01*
G01*
G37*
G36*
G01*
X149849999Y-130787500D02*
X150750001Y-130787500D01*
G75*
G02*
X151000000Y-131037499I0J-249999D01*
G01*
X151000000Y-131562501D01*
G75*
G02*
X150750001Y-131812500I-249999J0D01*
G01*
X149849999Y-131812500D01*
G75*
G02*
X149600000Y-131562501I0J249999D01*
G01*
X149600000Y-131037499D01*
G75*
G02*
X149849999Y-130787500I249999J0D01*
G01*
G37*
%TD*%
%TO.C,R4*%
G36*
G01*
X130349999Y-128962500D02*
X131250001Y-128962500D01*
G75*
G02*
X131500000Y-129212499I0J-249999D01*
G01*
X131500000Y-129737501D01*
G75*
G02*
X131250001Y-129987500I-249999J0D01*
G01*
X130349999Y-129987500D01*
G75*
G02*
X130100000Y-129737501I0J249999D01*
G01*
X130100000Y-129212499D01*
G75*
G02*
X130349999Y-128962500I249999J0D01*
G01*
G37*
G36*
G01*
X130349999Y-130787500D02*
X131250001Y-130787500D01*
G75*
G02*
X131500000Y-131037499I0J-249999D01*
G01*
X131500000Y-131562501D01*
G75*
G02*
X131250001Y-131812500I-249999J0D01*
G01*
X130349999Y-131812500D01*
G75*
G02*
X130100000Y-131562501I0J249999D01*
G01*
X130100000Y-131037499D01*
G75*
G02*
X130349999Y-130787500I249999J0D01*
G01*
G37*
%TD*%
%TO.C,R4*%
G36*
G01*
X110849999Y-128962500D02*
X111750001Y-128962500D01*
G75*
G02*
X112000000Y-129212499I0J-249999D01*
G01*
X112000000Y-129737501D01*
G75*
G02*
X111750001Y-129987500I-249999J0D01*
G01*
X110849999Y-129987500D01*
G75*
G02*
X110600000Y-129737501I0J249999D01*
G01*
X110600000Y-129212499D01*
G75*
G02*
X110849999Y-128962500I249999J0D01*
G01*
G37*
G36*
G01*
X110849999Y-130787500D02*
X111750001Y-130787500D01*
G75*
G02*
X112000000Y-131037499I0J-249999D01*
G01*
X112000000Y-131562501D01*
G75*
G02*
X111750001Y-131812500I-249999J0D01*
G01*
X110849999Y-131812500D01*
G75*
G02*
X110600000Y-131562501I0J249999D01*
G01*
X110600000Y-131037499D01*
G75*
G02*
X110849999Y-130787500I249999J0D01*
G01*
G37*
%TD*%
%TO.C,R4*%
G36*
G01*
X91349999Y-128962500D02*
X92250001Y-128962500D01*
G75*
G02*
X92500000Y-129212499I0J-249999D01*
G01*
X92500000Y-129737501D01*
G75*
G02*
X92250001Y-129987500I-249999J0D01*
G01*
X91349999Y-129987500D01*
G75*
G02*
X91100000Y-129737501I0J249999D01*
G01*
X91100000Y-129212499D01*
G75*
G02*
X91349999Y-128962500I249999J0D01*
G01*
G37*
G36*
G01*
X91349999Y-130787500D02*
X92250001Y-130787500D01*
G75*
G02*
X92500000Y-131037499I0J-249999D01*
G01*
X92500000Y-131562501D01*
G75*
G02*
X92250001Y-131812500I-249999J0D01*
G01*
X91349999Y-131812500D01*
G75*
G02*
X91100000Y-131562501I0J249999D01*
G01*
X91100000Y-131037499D01*
G75*
G02*
X91349999Y-130787500I249999J0D01*
G01*
G37*
%TD*%
%TO.C,R4*%
G36*
G01*
X169349999Y-83762500D02*
X170250001Y-83762500D01*
G75*
G02*
X170500000Y-84012499I0J-249999D01*
G01*
X170500000Y-84537501D01*
G75*
G02*
X170250001Y-84787500I-249999J0D01*
G01*
X169349999Y-84787500D01*
G75*
G02*
X169100000Y-84537501I0J249999D01*
G01*
X169100000Y-84012499D01*
G75*
G02*
X169349999Y-83762500I249999J0D01*
G01*
G37*
G36*
G01*
X169349999Y-85587500D02*
X170250001Y-85587500D01*
G75*
G02*
X170500000Y-85837499I0J-249999D01*
G01*
X170500000Y-86362501D01*
G75*
G02*
X170250001Y-86612500I-249999J0D01*
G01*
X169349999Y-86612500D01*
G75*
G02*
X169100000Y-86362501I0J249999D01*
G01*
X169100000Y-85837499D01*
G75*
G02*
X169349999Y-85587500I249999J0D01*
G01*
G37*
%TD*%
%TO.C,R4*%
G36*
G01*
X149849999Y-83762500D02*
X150750001Y-83762500D01*
G75*
G02*
X151000000Y-84012499I0J-249999D01*
G01*
X151000000Y-84537501D01*
G75*
G02*
X150750001Y-84787500I-249999J0D01*
G01*
X149849999Y-84787500D01*
G75*
G02*
X149600000Y-84537501I0J249999D01*
G01*
X149600000Y-84012499D01*
G75*
G02*
X149849999Y-83762500I249999J0D01*
G01*
G37*
G36*
G01*
X149849999Y-85587500D02*
X150750001Y-85587500D01*
G75*
G02*
X151000000Y-85837499I0J-249999D01*
G01*
X151000000Y-86362501D01*
G75*
G02*
X150750001Y-86612500I-249999J0D01*
G01*
X149849999Y-86612500D01*
G75*
G02*
X149600000Y-86362501I0J249999D01*
G01*
X149600000Y-85837499D01*
G75*
G02*
X149849999Y-85587500I249999J0D01*
G01*
G37*
%TD*%
%TO.C,R4*%
G36*
G01*
X130349999Y-83762500D02*
X131250001Y-83762500D01*
G75*
G02*
X131500000Y-84012499I0J-249999D01*
G01*
X131500000Y-84537501D01*
G75*
G02*
X131250001Y-84787500I-249999J0D01*
G01*
X130349999Y-84787500D01*
G75*
G02*
X130100000Y-84537501I0J249999D01*
G01*
X130100000Y-84012499D01*
G75*
G02*
X130349999Y-83762500I249999J0D01*
G01*
G37*
G36*
G01*
X130349999Y-85587500D02*
X131250001Y-85587500D01*
G75*
G02*
X131500000Y-85837499I0J-249999D01*
G01*
X131500000Y-86362501D01*
G75*
G02*
X131250001Y-86612500I-249999J0D01*
G01*
X130349999Y-86612500D01*
G75*
G02*
X130100000Y-86362501I0J249999D01*
G01*
X130100000Y-85837499D01*
G75*
G02*
X130349999Y-85587500I249999J0D01*
G01*
G37*
%TD*%
%TO.C,R4*%
G36*
G01*
X110849999Y-83762500D02*
X111750001Y-83762500D01*
G75*
G02*
X112000000Y-84012499I0J-249999D01*
G01*
X112000000Y-84537501D01*
G75*
G02*
X111750001Y-84787500I-249999J0D01*
G01*
X110849999Y-84787500D01*
G75*
G02*
X110600000Y-84537501I0J249999D01*
G01*
X110600000Y-84012499D01*
G75*
G02*
X110849999Y-83762500I249999J0D01*
G01*
G37*
G36*
G01*
X110849999Y-85587500D02*
X111750001Y-85587500D01*
G75*
G02*
X112000000Y-85837499I0J-249999D01*
G01*
X112000000Y-86362501D01*
G75*
G02*
X111750001Y-86612500I-249999J0D01*
G01*
X110849999Y-86612500D01*
G75*
G02*
X110600000Y-86362501I0J249999D01*
G01*
X110600000Y-85837499D01*
G75*
G02*
X110849999Y-85587500I249999J0D01*
G01*
G37*
%TD*%
%TO.C,R2*%
G36*
G01*
X169349998Y-121962500D02*
X170250002Y-121962500D01*
G75*
G02*
X170500000Y-122212498I0J-249998D01*
G01*
X170500000Y-122737502D01*
G75*
G02*
X170250002Y-122987500I-249998J0D01*
G01*
X169349998Y-122987500D01*
G75*
G02*
X169100000Y-122737502I0J249998D01*
G01*
X169100000Y-122212498D01*
G75*
G02*
X169349998Y-121962500I249998J0D01*
G01*
G37*
G36*
G01*
X169349998Y-123787500D02*
X170250002Y-123787500D01*
G75*
G02*
X170500000Y-124037498I0J-249998D01*
G01*
X170500000Y-124562502D01*
G75*
G02*
X170250002Y-124812500I-249998J0D01*
G01*
X169349998Y-124812500D01*
G75*
G02*
X169100000Y-124562502I0J249998D01*
G01*
X169100000Y-124037498D01*
G75*
G02*
X169349998Y-123787500I249998J0D01*
G01*
G37*
%TD*%
%TO.C,R2*%
G36*
G01*
X149849998Y-121962500D02*
X150750002Y-121962500D01*
G75*
G02*
X151000000Y-122212498I0J-249998D01*
G01*
X151000000Y-122737502D01*
G75*
G02*
X150750002Y-122987500I-249998J0D01*
G01*
X149849998Y-122987500D01*
G75*
G02*
X149600000Y-122737502I0J249998D01*
G01*
X149600000Y-122212498D01*
G75*
G02*
X149849998Y-121962500I249998J0D01*
G01*
G37*
G36*
G01*
X149849998Y-123787500D02*
X150750002Y-123787500D01*
G75*
G02*
X151000000Y-124037498I0J-249998D01*
G01*
X151000000Y-124562502D01*
G75*
G02*
X150750002Y-124812500I-249998J0D01*
G01*
X149849998Y-124812500D01*
G75*
G02*
X149600000Y-124562502I0J249998D01*
G01*
X149600000Y-124037498D01*
G75*
G02*
X149849998Y-123787500I249998J0D01*
G01*
G37*
%TD*%
%TO.C,R2*%
G36*
G01*
X130349998Y-121962500D02*
X131250002Y-121962500D01*
G75*
G02*
X131500000Y-122212498I0J-249998D01*
G01*
X131500000Y-122737502D01*
G75*
G02*
X131250002Y-122987500I-249998J0D01*
G01*
X130349998Y-122987500D01*
G75*
G02*
X130100000Y-122737502I0J249998D01*
G01*
X130100000Y-122212498D01*
G75*
G02*
X130349998Y-121962500I249998J0D01*
G01*
G37*
G36*
G01*
X130349998Y-123787500D02*
X131250002Y-123787500D01*
G75*
G02*
X131500000Y-124037498I0J-249998D01*
G01*
X131500000Y-124562502D01*
G75*
G02*
X131250002Y-124812500I-249998J0D01*
G01*
X130349998Y-124812500D01*
G75*
G02*
X130100000Y-124562502I0J249998D01*
G01*
X130100000Y-124037498D01*
G75*
G02*
X130349998Y-123787500I249998J0D01*
G01*
G37*
%TD*%
%TO.C,R2*%
G36*
G01*
X110849998Y-121962500D02*
X111750002Y-121962500D01*
G75*
G02*
X112000000Y-122212498I0J-249998D01*
G01*
X112000000Y-122737502D01*
G75*
G02*
X111750002Y-122987500I-249998J0D01*
G01*
X110849998Y-122987500D01*
G75*
G02*
X110600000Y-122737502I0J249998D01*
G01*
X110600000Y-122212498D01*
G75*
G02*
X110849998Y-121962500I249998J0D01*
G01*
G37*
G36*
G01*
X110849998Y-123787500D02*
X111750002Y-123787500D01*
G75*
G02*
X112000000Y-124037498I0J-249998D01*
G01*
X112000000Y-124562502D01*
G75*
G02*
X111750002Y-124812500I-249998J0D01*
G01*
X110849998Y-124812500D01*
G75*
G02*
X110600000Y-124562502I0J249998D01*
G01*
X110600000Y-124037498D01*
G75*
G02*
X110849998Y-123787500I249998J0D01*
G01*
G37*
%TD*%
%TO.C,R2*%
G36*
G01*
X91349998Y-121962500D02*
X92250002Y-121962500D01*
G75*
G02*
X92500000Y-122212498I0J-249998D01*
G01*
X92500000Y-122737502D01*
G75*
G02*
X92250002Y-122987500I-249998J0D01*
G01*
X91349998Y-122987500D01*
G75*
G02*
X91100000Y-122737502I0J249998D01*
G01*
X91100000Y-122212498D01*
G75*
G02*
X91349998Y-121962500I249998J0D01*
G01*
G37*
G36*
G01*
X91349998Y-123787500D02*
X92250002Y-123787500D01*
G75*
G02*
X92500000Y-124037498I0J-249998D01*
G01*
X92500000Y-124562502D01*
G75*
G02*
X92250002Y-124812500I-249998J0D01*
G01*
X91349998Y-124812500D01*
G75*
G02*
X91100000Y-124562502I0J249998D01*
G01*
X91100000Y-124037498D01*
G75*
G02*
X91349998Y-123787500I249998J0D01*
G01*
G37*
%TD*%
%TO.C,R2*%
G36*
G01*
X169349998Y-76762500D02*
X170250002Y-76762500D01*
G75*
G02*
X170500000Y-77012498I0J-249998D01*
G01*
X170500000Y-77537502D01*
G75*
G02*
X170250002Y-77787500I-249998J0D01*
G01*
X169349998Y-77787500D01*
G75*
G02*
X169100000Y-77537502I0J249998D01*
G01*
X169100000Y-77012498D01*
G75*
G02*
X169349998Y-76762500I249998J0D01*
G01*
G37*
G36*
G01*
X169349998Y-78587500D02*
X170250002Y-78587500D01*
G75*
G02*
X170500000Y-78837498I0J-249998D01*
G01*
X170500000Y-79362502D01*
G75*
G02*
X170250002Y-79612500I-249998J0D01*
G01*
X169349998Y-79612500D01*
G75*
G02*
X169100000Y-79362502I0J249998D01*
G01*
X169100000Y-78837498D01*
G75*
G02*
X169349998Y-78587500I249998J0D01*
G01*
G37*
%TD*%
%TO.C,R2*%
G36*
G01*
X149849998Y-76762500D02*
X150750002Y-76762500D01*
G75*
G02*
X151000000Y-77012498I0J-249998D01*
G01*
X151000000Y-77537502D01*
G75*
G02*
X150750002Y-77787500I-249998J0D01*
G01*
X149849998Y-77787500D01*
G75*
G02*
X149600000Y-77537502I0J249998D01*
G01*
X149600000Y-77012498D01*
G75*
G02*
X149849998Y-76762500I249998J0D01*
G01*
G37*
G36*
G01*
X149849998Y-78587500D02*
X150750002Y-78587500D01*
G75*
G02*
X151000000Y-78837498I0J-249998D01*
G01*
X151000000Y-79362502D01*
G75*
G02*
X150750002Y-79612500I-249998J0D01*
G01*
X149849998Y-79612500D01*
G75*
G02*
X149600000Y-79362502I0J249998D01*
G01*
X149600000Y-78837498D01*
G75*
G02*
X149849998Y-78587500I249998J0D01*
G01*
G37*
%TD*%
%TO.C,R2*%
G36*
G01*
X130349998Y-76762500D02*
X131250002Y-76762500D01*
G75*
G02*
X131500000Y-77012498I0J-249998D01*
G01*
X131500000Y-77537502D01*
G75*
G02*
X131250002Y-77787500I-249998J0D01*
G01*
X130349998Y-77787500D01*
G75*
G02*
X130100000Y-77537502I0J249998D01*
G01*
X130100000Y-77012498D01*
G75*
G02*
X130349998Y-76762500I249998J0D01*
G01*
G37*
G36*
G01*
X130349998Y-78587500D02*
X131250002Y-78587500D01*
G75*
G02*
X131500000Y-78837498I0J-249998D01*
G01*
X131500000Y-79362502D01*
G75*
G02*
X131250002Y-79612500I-249998J0D01*
G01*
X130349998Y-79612500D01*
G75*
G02*
X130100000Y-79362502I0J249998D01*
G01*
X130100000Y-78837498D01*
G75*
G02*
X130349998Y-78587500I249998J0D01*
G01*
G37*
%TD*%
%TO.C,R2*%
G36*
G01*
X110849998Y-76762500D02*
X111750002Y-76762500D01*
G75*
G02*
X112000000Y-77012498I0J-249998D01*
G01*
X112000000Y-77537502D01*
G75*
G02*
X111750002Y-77787500I-249998J0D01*
G01*
X110849998Y-77787500D01*
G75*
G02*
X110600000Y-77537502I0J249998D01*
G01*
X110600000Y-77012498D01*
G75*
G02*
X110849998Y-76762500I249998J0D01*
G01*
G37*
G36*
G01*
X110849998Y-78587500D02*
X111750002Y-78587500D01*
G75*
G02*
X112000000Y-78837498I0J-249998D01*
G01*
X112000000Y-79362502D01*
G75*
G02*
X111750002Y-79612500I-249998J0D01*
G01*
X110849998Y-79612500D01*
G75*
G02*
X110600000Y-79362502I0J249998D01*
G01*
X110600000Y-78837498D01*
G75*
G02*
X110849998Y-78587500I249998J0D01*
G01*
G37*
%TD*%
%TO.C,R1*%
G36*
G01*
X169349998Y-107962500D02*
X170250002Y-107962500D01*
G75*
G02*
X170500000Y-108212498I0J-249998D01*
G01*
X170500000Y-108737502D01*
G75*
G02*
X170250002Y-108987500I-249998J0D01*
G01*
X169349998Y-108987500D01*
G75*
G02*
X169100000Y-108737502I0J249998D01*
G01*
X169100000Y-108212498D01*
G75*
G02*
X169349998Y-107962500I249998J0D01*
G01*
G37*
G36*
G01*
X169349998Y-109787500D02*
X170250002Y-109787500D01*
G75*
G02*
X170500000Y-110037498I0J-249998D01*
G01*
X170500000Y-110562502D01*
G75*
G02*
X170250002Y-110812500I-249998J0D01*
G01*
X169349998Y-110812500D01*
G75*
G02*
X169100000Y-110562502I0J249998D01*
G01*
X169100000Y-110037498D01*
G75*
G02*
X169349998Y-109787500I249998J0D01*
G01*
G37*
%TD*%
%TO.C,R1*%
G36*
G01*
X149849998Y-107962500D02*
X150750002Y-107962500D01*
G75*
G02*
X151000000Y-108212498I0J-249998D01*
G01*
X151000000Y-108737502D01*
G75*
G02*
X150750002Y-108987500I-249998J0D01*
G01*
X149849998Y-108987500D01*
G75*
G02*
X149600000Y-108737502I0J249998D01*
G01*
X149600000Y-108212498D01*
G75*
G02*
X149849998Y-107962500I249998J0D01*
G01*
G37*
G36*
G01*
X149849998Y-109787500D02*
X150750002Y-109787500D01*
G75*
G02*
X151000000Y-110037498I0J-249998D01*
G01*
X151000000Y-110562502D01*
G75*
G02*
X150750002Y-110812500I-249998J0D01*
G01*
X149849998Y-110812500D01*
G75*
G02*
X149600000Y-110562502I0J249998D01*
G01*
X149600000Y-110037498D01*
G75*
G02*
X149849998Y-109787500I249998J0D01*
G01*
G37*
%TD*%
%TO.C,R1*%
G36*
G01*
X130349998Y-107962500D02*
X131250002Y-107962500D01*
G75*
G02*
X131500000Y-108212498I0J-249998D01*
G01*
X131500000Y-108737502D01*
G75*
G02*
X131250002Y-108987500I-249998J0D01*
G01*
X130349998Y-108987500D01*
G75*
G02*
X130100000Y-108737502I0J249998D01*
G01*
X130100000Y-108212498D01*
G75*
G02*
X130349998Y-107962500I249998J0D01*
G01*
G37*
G36*
G01*
X130349998Y-109787500D02*
X131250002Y-109787500D01*
G75*
G02*
X131500000Y-110037498I0J-249998D01*
G01*
X131500000Y-110562502D01*
G75*
G02*
X131250002Y-110812500I-249998J0D01*
G01*
X130349998Y-110812500D01*
G75*
G02*
X130100000Y-110562502I0J249998D01*
G01*
X130100000Y-110037498D01*
G75*
G02*
X130349998Y-109787500I249998J0D01*
G01*
G37*
%TD*%
%TO.C,R1*%
G36*
G01*
X110849998Y-107962500D02*
X111750002Y-107962500D01*
G75*
G02*
X112000000Y-108212498I0J-249998D01*
G01*
X112000000Y-108737502D01*
G75*
G02*
X111750002Y-108987500I-249998J0D01*
G01*
X110849998Y-108987500D01*
G75*
G02*
X110600000Y-108737502I0J249998D01*
G01*
X110600000Y-108212498D01*
G75*
G02*
X110849998Y-107962500I249998J0D01*
G01*
G37*
G36*
G01*
X110849998Y-109787500D02*
X111750002Y-109787500D01*
G75*
G02*
X112000000Y-110037498I0J-249998D01*
G01*
X112000000Y-110562502D01*
G75*
G02*
X111750002Y-110812500I-249998J0D01*
G01*
X110849998Y-110812500D01*
G75*
G02*
X110600000Y-110562502I0J249998D01*
G01*
X110600000Y-110037498D01*
G75*
G02*
X110849998Y-109787500I249998J0D01*
G01*
G37*
%TD*%
%TO.C,R1*%
G36*
G01*
X91349998Y-107962500D02*
X92250002Y-107962500D01*
G75*
G02*
X92500000Y-108212498I0J-249998D01*
G01*
X92500000Y-108737502D01*
G75*
G02*
X92250002Y-108987500I-249998J0D01*
G01*
X91349998Y-108987500D01*
G75*
G02*
X91100000Y-108737502I0J249998D01*
G01*
X91100000Y-108212498D01*
G75*
G02*
X91349998Y-107962500I249998J0D01*
G01*
G37*
G36*
G01*
X91349998Y-109787500D02*
X92250002Y-109787500D01*
G75*
G02*
X92500000Y-110037498I0J-249998D01*
G01*
X92500000Y-110562502D01*
G75*
G02*
X92250002Y-110812500I-249998J0D01*
G01*
X91349998Y-110812500D01*
G75*
G02*
X91100000Y-110562502I0J249998D01*
G01*
X91100000Y-110037498D01*
G75*
G02*
X91349998Y-109787500I249998J0D01*
G01*
G37*
%TD*%
%TO.C,R1*%
G36*
G01*
X169349998Y-62762500D02*
X170250002Y-62762500D01*
G75*
G02*
X170500000Y-63012498I0J-249998D01*
G01*
X170500000Y-63537502D01*
G75*
G02*
X170250002Y-63787500I-249998J0D01*
G01*
X169349998Y-63787500D01*
G75*
G02*
X169100000Y-63537502I0J249998D01*
G01*
X169100000Y-63012498D01*
G75*
G02*
X169349998Y-62762500I249998J0D01*
G01*
G37*
G36*
G01*
X169349998Y-64587500D02*
X170250002Y-64587500D01*
G75*
G02*
X170500000Y-64837498I0J-249998D01*
G01*
X170500000Y-65362502D01*
G75*
G02*
X170250002Y-65612500I-249998J0D01*
G01*
X169349998Y-65612500D01*
G75*
G02*
X169100000Y-65362502I0J249998D01*
G01*
X169100000Y-64837498D01*
G75*
G02*
X169349998Y-64587500I249998J0D01*
G01*
G37*
%TD*%
%TO.C,R1*%
G36*
G01*
X149849998Y-62762500D02*
X150750002Y-62762500D01*
G75*
G02*
X151000000Y-63012498I0J-249998D01*
G01*
X151000000Y-63537502D01*
G75*
G02*
X150750002Y-63787500I-249998J0D01*
G01*
X149849998Y-63787500D01*
G75*
G02*
X149600000Y-63537502I0J249998D01*
G01*
X149600000Y-63012498D01*
G75*
G02*
X149849998Y-62762500I249998J0D01*
G01*
G37*
G36*
G01*
X149849998Y-64587500D02*
X150750002Y-64587500D01*
G75*
G02*
X151000000Y-64837498I0J-249998D01*
G01*
X151000000Y-65362502D01*
G75*
G02*
X150750002Y-65612500I-249998J0D01*
G01*
X149849998Y-65612500D01*
G75*
G02*
X149600000Y-65362502I0J249998D01*
G01*
X149600000Y-64837498D01*
G75*
G02*
X149849998Y-64587500I249998J0D01*
G01*
G37*
%TD*%
%TO.C,R1*%
G36*
G01*
X130349998Y-62762500D02*
X131250002Y-62762500D01*
G75*
G02*
X131500000Y-63012498I0J-249998D01*
G01*
X131500000Y-63537502D01*
G75*
G02*
X131250002Y-63787500I-249998J0D01*
G01*
X130349998Y-63787500D01*
G75*
G02*
X130100000Y-63537502I0J249998D01*
G01*
X130100000Y-63012498D01*
G75*
G02*
X130349998Y-62762500I249998J0D01*
G01*
G37*
G36*
G01*
X130349998Y-64587500D02*
X131250002Y-64587500D01*
G75*
G02*
X131500000Y-64837498I0J-249998D01*
G01*
X131500000Y-65362502D01*
G75*
G02*
X131250002Y-65612500I-249998J0D01*
G01*
X130349998Y-65612500D01*
G75*
G02*
X130100000Y-65362502I0J249998D01*
G01*
X130100000Y-64837498D01*
G75*
G02*
X130349998Y-64587500I249998J0D01*
G01*
G37*
%TD*%
%TO.C,R1*%
G36*
G01*
X110849998Y-62762500D02*
X111750002Y-62762500D01*
G75*
G02*
X112000000Y-63012498I0J-249998D01*
G01*
X112000000Y-63537502D01*
G75*
G02*
X111750002Y-63787500I-249998J0D01*
G01*
X110849998Y-63787500D01*
G75*
G02*
X110600000Y-63537502I0J249998D01*
G01*
X110600000Y-63012498D01*
G75*
G02*
X110849998Y-62762500I249998J0D01*
G01*
G37*
G36*
G01*
X110849998Y-64587500D02*
X111750002Y-64587500D01*
G75*
G02*
X112000000Y-64837498I0J-249998D01*
G01*
X112000000Y-65362502D01*
G75*
G02*
X111750002Y-65612500I-249998J0D01*
G01*
X110849998Y-65612500D01*
G75*
G02*
X110600000Y-65362502I0J249998D01*
G01*
X110600000Y-64837498D01*
G75*
G02*
X110849998Y-64587500I249998J0D01*
G01*
G37*
%TD*%
%TO.C,R4*%
G36*
G01*
X91349999Y-85587500D02*
X92250001Y-85587500D01*
G75*
G02*
X92500000Y-85837499I0J-249999D01*
G01*
X92500000Y-86362501D01*
G75*
G02*
X92250001Y-86612500I-249999J0D01*
G01*
X91349999Y-86612500D01*
G75*
G02*
X91100000Y-86362501I0J249999D01*
G01*
X91100000Y-85837499D01*
G75*
G02*
X91349999Y-85587500I249999J0D01*
G01*
G37*
G36*
G01*
X91349999Y-83762500D02*
X92250001Y-83762500D01*
G75*
G02*
X92500000Y-84012499I0J-249999D01*
G01*
X92500000Y-84537501D01*
G75*
G02*
X92250001Y-84787500I-249999J0D01*
G01*
X91349999Y-84787500D01*
G75*
G02*
X91100000Y-84537501I0J249999D01*
G01*
X91100000Y-84012499D01*
G75*
G02*
X91349999Y-83762500I249999J0D01*
G01*
G37*
%TD*%
%TO.C,R3*%
G36*
G01*
X91349998Y-71587500D02*
X92250002Y-71587500D01*
G75*
G02*
X92500000Y-71837498I0J-249998D01*
G01*
X92500000Y-72362502D01*
G75*
G02*
X92250002Y-72612500I-249998J0D01*
G01*
X91349998Y-72612500D01*
G75*
G02*
X91100000Y-72362502I0J249998D01*
G01*
X91100000Y-71837498D01*
G75*
G02*
X91349998Y-71587500I249998J0D01*
G01*
G37*
G36*
G01*
X91349998Y-69762500D02*
X92250002Y-69762500D01*
G75*
G02*
X92500000Y-70012498I0J-249998D01*
G01*
X92500000Y-70537502D01*
G75*
G02*
X92250002Y-70787500I-249998J0D01*
G01*
X91349998Y-70787500D01*
G75*
G02*
X91100000Y-70537502I0J249998D01*
G01*
X91100000Y-70012498D01*
G75*
G02*
X91349998Y-69762500I249998J0D01*
G01*
G37*
%TD*%
%TO.C,R2*%
G36*
G01*
X91349998Y-78587500D02*
X92250002Y-78587500D01*
G75*
G02*
X92500000Y-78837498I0J-249998D01*
G01*
X92500000Y-79362502D01*
G75*
G02*
X92250002Y-79612500I-249998J0D01*
G01*
X91349998Y-79612500D01*
G75*
G02*
X91100000Y-79362502I0J249998D01*
G01*
X91100000Y-78837498D01*
G75*
G02*
X91349998Y-78587500I249998J0D01*
G01*
G37*
G36*
G01*
X91349998Y-76762500D02*
X92250002Y-76762500D01*
G75*
G02*
X92500000Y-77012498I0J-249998D01*
G01*
X92500000Y-77537502D01*
G75*
G02*
X92250002Y-77787500I-249998J0D01*
G01*
X91349998Y-77787500D01*
G75*
G02*
X91100000Y-77537502I0J249998D01*
G01*
X91100000Y-77012498D01*
G75*
G02*
X91349998Y-76762500I249998J0D01*
G01*
G37*
%TD*%
%TO.C,R1*%
G36*
G01*
X91349998Y-64587500D02*
X92250002Y-64587500D01*
G75*
G02*
X92500000Y-64837498I0J-249998D01*
G01*
X92500000Y-65362502D01*
G75*
G02*
X92250002Y-65612500I-249998J0D01*
G01*
X91349998Y-65612500D01*
G75*
G02*
X91100000Y-65362502I0J249998D01*
G01*
X91100000Y-64837498D01*
G75*
G02*
X91349998Y-64587500I249998J0D01*
G01*
G37*
G36*
G01*
X91349998Y-62762500D02*
X92250002Y-62762500D01*
G75*
G02*
X92500000Y-63012498I0J-249998D01*
G01*
X92500000Y-63537502D01*
G75*
G02*
X92250002Y-63787500I-249998J0D01*
G01*
X91349998Y-63787500D01*
G75*
G02*
X91100000Y-63537502I0J249998D01*
G01*
X91100000Y-63012498D01*
G75*
G02*
X91349998Y-62762500I249998J0D01*
G01*
G37*
%TD*%
M02*
