%TF.GenerationSoftware,KiCad,Pcbnew,(5.1.9)-1*%
%TF.CreationDate,2022-04-08T02:00:15+08:00*%
%TF.ProjectId,LED_panelize,4c45445f-7061-46e6-956c-697a652e6b69,rev?*%
%TF.SameCoordinates,Original*%
%TF.FileFunction,Legend,Bot*%
%TF.FilePolarity,Positive*%
%FSLAX46Y46*%
G04 Gerber Fmt 4.6, Leading zero omitted, Abs format (unit mm)*
G04 Created by KiCad (PCBNEW (5.1.9)-1) date 2022-04-08 02:00:15*
%MOMM*%
%LPD*%
G01*
G04 APERTURE LIST*
%ADD10C,0.120000*%
%ADD11C,0.150000*%
G04 APERTURE END LIST*
D10*
%TO.C,D2*%
X179035000Y-127999538D02*
G75*
G02*
X173485000Y-129544830I-2990000J-462D01*
G01*
X179035000Y-128000462D02*
G75*
G03*
X173485000Y-126455170I-2990000J462D01*
G01*
X178545000Y-128000000D02*
G75*
G03*
X178545000Y-128000000I-2500000J0D01*
G01*
X173485000Y-129545000D02*
X173485000Y-126455000D01*
X159535000Y-127999538D02*
G75*
G02*
X153985000Y-129544830I-2990000J-462D01*
G01*
X159535000Y-128000462D02*
G75*
G03*
X153985000Y-126455170I-2990000J462D01*
G01*
X159045000Y-128000000D02*
G75*
G03*
X159045000Y-128000000I-2500000J0D01*
G01*
X153985000Y-129545000D02*
X153985000Y-126455000D01*
X140035000Y-127999538D02*
G75*
G02*
X134485000Y-129544830I-2990000J-462D01*
G01*
X140035000Y-128000462D02*
G75*
G03*
X134485000Y-126455170I-2990000J462D01*
G01*
X139545000Y-128000000D02*
G75*
G03*
X139545000Y-128000000I-2500000J0D01*
G01*
X134485000Y-129545000D02*
X134485000Y-126455000D01*
X120535000Y-127999538D02*
G75*
G02*
X114985000Y-129544830I-2990000J-462D01*
G01*
X120535000Y-128000462D02*
G75*
G03*
X114985000Y-126455170I-2990000J462D01*
G01*
X120045000Y-128000000D02*
G75*
G03*
X120045000Y-128000000I-2500000J0D01*
G01*
X114985000Y-129545000D02*
X114985000Y-126455000D01*
X101035000Y-127999538D02*
G75*
G02*
X95485000Y-129544830I-2990000J-462D01*
G01*
X101035000Y-128000462D02*
G75*
G03*
X95485000Y-126455170I-2990000J462D01*
G01*
X100545000Y-128000000D02*
G75*
G03*
X100545000Y-128000000I-2500000J0D01*
G01*
X95485000Y-129545000D02*
X95485000Y-126455000D01*
X179035000Y-82799538D02*
G75*
G02*
X173485000Y-84344830I-2990000J-462D01*
G01*
X179035000Y-82800462D02*
G75*
G03*
X173485000Y-81255170I-2990000J462D01*
G01*
X178545000Y-82800000D02*
G75*
G03*
X178545000Y-82800000I-2500000J0D01*
G01*
X173485000Y-84345000D02*
X173485000Y-81255000D01*
X159535000Y-82799538D02*
G75*
G02*
X153985000Y-84344830I-2990000J-462D01*
G01*
X159535000Y-82800462D02*
G75*
G03*
X153985000Y-81255170I-2990000J462D01*
G01*
X159045000Y-82800000D02*
G75*
G03*
X159045000Y-82800000I-2500000J0D01*
G01*
X153985000Y-84345000D02*
X153985000Y-81255000D01*
X140035000Y-82799538D02*
G75*
G02*
X134485000Y-84344830I-2990000J-462D01*
G01*
X140035000Y-82800462D02*
G75*
G03*
X134485000Y-81255170I-2990000J462D01*
G01*
X139545000Y-82800000D02*
G75*
G03*
X139545000Y-82800000I-2500000J0D01*
G01*
X134485000Y-84345000D02*
X134485000Y-81255000D01*
X120535000Y-82799538D02*
G75*
G02*
X114985000Y-84344830I-2990000J-462D01*
G01*
X120535000Y-82800462D02*
G75*
G03*
X114985000Y-81255170I-2990000J462D01*
G01*
X120045000Y-82800000D02*
G75*
G03*
X120045000Y-82800000I-2500000J0D01*
G01*
X114985000Y-84345000D02*
X114985000Y-81255000D01*
%TO.C,D1*%
X179035000Y-113999538D02*
G75*
G02*
X173485000Y-115544830I-2990000J-462D01*
G01*
X179035000Y-114000462D02*
G75*
G03*
X173485000Y-112455170I-2990000J462D01*
G01*
X178545000Y-114000000D02*
G75*
G03*
X178545000Y-114000000I-2500000J0D01*
G01*
X173485000Y-115545000D02*
X173485000Y-112455000D01*
X159535000Y-113999538D02*
G75*
G02*
X153985000Y-115544830I-2990000J-462D01*
G01*
X159535000Y-114000462D02*
G75*
G03*
X153985000Y-112455170I-2990000J462D01*
G01*
X159045000Y-114000000D02*
G75*
G03*
X159045000Y-114000000I-2500000J0D01*
G01*
X153985000Y-115545000D02*
X153985000Y-112455000D01*
X140035000Y-113999538D02*
G75*
G02*
X134485000Y-115544830I-2990000J-462D01*
G01*
X140035000Y-114000462D02*
G75*
G03*
X134485000Y-112455170I-2990000J462D01*
G01*
X139545000Y-114000000D02*
G75*
G03*
X139545000Y-114000000I-2500000J0D01*
G01*
X134485000Y-115545000D02*
X134485000Y-112455000D01*
X120535000Y-113999538D02*
G75*
G02*
X114985000Y-115544830I-2990000J-462D01*
G01*
X120535000Y-114000462D02*
G75*
G03*
X114985000Y-112455170I-2990000J462D01*
G01*
X120045000Y-114000000D02*
G75*
G03*
X120045000Y-114000000I-2500000J0D01*
G01*
X114985000Y-115545000D02*
X114985000Y-112455000D01*
X101035000Y-113999538D02*
G75*
G02*
X95485000Y-115544830I-2990000J-462D01*
G01*
X101035000Y-114000462D02*
G75*
G03*
X95485000Y-112455170I-2990000J462D01*
G01*
X100545000Y-114000000D02*
G75*
G03*
X100545000Y-114000000I-2500000J0D01*
G01*
X95485000Y-115545000D02*
X95485000Y-112455000D01*
X179035000Y-68799538D02*
G75*
G02*
X173485000Y-70344830I-2990000J-462D01*
G01*
X179035000Y-68800462D02*
G75*
G03*
X173485000Y-67255170I-2990000J462D01*
G01*
X178545000Y-68800000D02*
G75*
G03*
X178545000Y-68800000I-2500000J0D01*
G01*
X173485000Y-70345000D02*
X173485000Y-67255000D01*
X159535000Y-68799538D02*
G75*
G02*
X153985000Y-70344830I-2990000J-462D01*
G01*
X159535000Y-68800462D02*
G75*
G03*
X153985000Y-67255170I-2990000J462D01*
G01*
X159045000Y-68800000D02*
G75*
G03*
X159045000Y-68800000I-2500000J0D01*
G01*
X153985000Y-70345000D02*
X153985000Y-67255000D01*
X140035000Y-68799538D02*
G75*
G02*
X134485000Y-70344830I-2990000J-462D01*
G01*
X140035000Y-68800462D02*
G75*
G03*
X134485000Y-67255170I-2990000J462D01*
G01*
X139545000Y-68800000D02*
G75*
G03*
X139545000Y-68800000I-2500000J0D01*
G01*
X134485000Y-70345000D02*
X134485000Y-67255000D01*
X120535000Y-68799538D02*
G75*
G02*
X114985000Y-70344830I-2990000J-462D01*
G01*
X120535000Y-68800462D02*
G75*
G03*
X114985000Y-67255170I-2990000J462D01*
G01*
X120045000Y-68800000D02*
G75*
G03*
X120045000Y-68800000I-2500000J0D01*
G01*
X114985000Y-70345000D02*
X114985000Y-67255000D01*
%TO.C,D3*%
X179035000Y-120999538D02*
G75*
G02*
X173485000Y-122544830I-2990000J-462D01*
G01*
X179035000Y-121000462D02*
G75*
G03*
X173485000Y-119455170I-2990000J462D01*
G01*
X178545000Y-121000000D02*
G75*
G03*
X178545000Y-121000000I-2500000J0D01*
G01*
X173485000Y-122545000D02*
X173485000Y-119455000D01*
X159535000Y-120999538D02*
G75*
G02*
X153985000Y-122544830I-2990000J-462D01*
G01*
X159535000Y-121000462D02*
G75*
G03*
X153985000Y-119455170I-2990000J462D01*
G01*
X159045000Y-121000000D02*
G75*
G03*
X159045000Y-121000000I-2500000J0D01*
G01*
X153985000Y-122545000D02*
X153985000Y-119455000D01*
X140035000Y-120999538D02*
G75*
G02*
X134485000Y-122544830I-2990000J-462D01*
G01*
X140035000Y-121000462D02*
G75*
G03*
X134485000Y-119455170I-2990000J462D01*
G01*
X139545000Y-121000000D02*
G75*
G03*
X139545000Y-121000000I-2500000J0D01*
G01*
X134485000Y-122545000D02*
X134485000Y-119455000D01*
X120535000Y-120999538D02*
G75*
G02*
X114985000Y-122544830I-2990000J-462D01*
G01*
X120535000Y-121000462D02*
G75*
G03*
X114985000Y-119455170I-2990000J462D01*
G01*
X120045000Y-121000000D02*
G75*
G03*
X120045000Y-121000000I-2500000J0D01*
G01*
X114985000Y-122545000D02*
X114985000Y-119455000D01*
X101035000Y-120999538D02*
G75*
G02*
X95485000Y-122544830I-2990000J-462D01*
G01*
X101035000Y-121000462D02*
G75*
G03*
X95485000Y-119455170I-2990000J462D01*
G01*
X100545000Y-121000000D02*
G75*
G03*
X100545000Y-121000000I-2500000J0D01*
G01*
X95485000Y-122545000D02*
X95485000Y-119455000D01*
X179035000Y-75799538D02*
G75*
G02*
X173485000Y-77344830I-2990000J-462D01*
G01*
X179035000Y-75800462D02*
G75*
G03*
X173485000Y-74255170I-2990000J462D01*
G01*
X178545000Y-75800000D02*
G75*
G03*
X178545000Y-75800000I-2500000J0D01*
G01*
X173485000Y-77345000D02*
X173485000Y-74255000D01*
X159535000Y-75799538D02*
G75*
G02*
X153985000Y-77344830I-2990000J-462D01*
G01*
X159535000Y-75800462D02*
G75*
G03*
X153985000Y-74255170I-2990000J462D01*
G01*
X159045000Y-75800000D02*
G75*
G03*
X159045000Y-75800000I-2500000J0D01*
G01*
X153985000Y-77345000D02*
X153985000Y-74255000D01*
X140035000Y-75799538D02*
G75*
G02*
X134485000Y-77344830I-2990000J-462D01*
G01*
X140035000Y-75800462D02*
G75*
G03*
X134485000Y-74255170I-2990000J462D01*
G01*
X139545000Y-75800000D02*
G75*
G03*
X139545000Y-75800000I-2500000J0D01*
G01*
X134485000Y-77345000D02*
X134485000Y-74255000D01*
X120535000Y-75799538D02*
G75*
G02*
X114985000Y-77344830I-2990000J-462D01*
G01*
X120535000Y-75800462D02*
G75*
G03*
X114985000Y-74255170I-2990000J462D01*
G01*
X120045000Y-75800000D02*
G75*
G03*
X120045000Y-75800000I-2500000J0D01*
G01*
X114985000Y-77345000D02*
X114985000Y-74255000D01*
X95485000Y-77345000D02*
X95485000Y-74255000D01*
X100545000Y-75800000D02*
G75*
G03*
X100545000Y-75800000I-2500000J0D01*
G01*
X101035000Y-75800462D02*
G75*
G03*
X95485000Y-74255170I-2990000J462D01*
G01*
X101035000Y-75799538D02*
G75*
G02*
X95485000Y-77344830I-2990000J-462D01*
G01*
%TO.C,D2*%
X95485000Y-84345000D02*
X95485000Y-81255000D01*
X100545000Y-82800000D02*
G75*
G03*
X100545000Y-82800000I-2500000J0D01*
G01*
X101035000Y-82800462D02*
G75*
G03*
X95485000Y-81255170I-2990000J462D01*
G01*
X101035000Y-82799538D02*
G75*
G02*
X95485000Y-84344830I-2990000J-462D01*
G01*
%TO.C,D1*%
X95485000Y-70345000D02*
X95485000Y-67255000D01*
X100545000Y-68800000D02*
G75*
G03*
X100545000Y-68800000I-2500000J0D01*
G01*
X101035000Y-68800462D02*
G75*
G03*
X95485000Y-67255170I-2990000J462D01*
G01*
X101035000Y-68799538D02*
G75*
G02*
X95485000Y-70344830I-2990000J-462D01*
G01*
%TO.C,D4*%
D11*
X172438095Y-135452380D02*
X172438095Y-134452380D01*
X172200000Y-134452380D01*
X172057142Y-134500000D01*
X171961904Y-134595238D01*
X171914285Y-134690476D01*
X171866666Y-134880952D01*
X171866666Y-135023809D01*
X171914285Y-135214285D01*
X171961904Y-135309523D01*
X172057142Y-135404761D01*
X172200000Y-135452380D01*
X172438095Y-135452380D01*
X171009523Y-134785714D02*
X171009523Y-135452380D01*
X171247619Y-134404761D02*
X171485714Y-135119047D01*
X170866666Y-135119047D01*
X152938095Y-135452380D02*
X152938095Y-134452380D01*
X152700000Y-134452380D01*
X152557142Y-134500000D01*
X152461904Y-134595238D01*
X152414285Y-134690476D01*
X152366666Y-134880952D01*
X152366666Y-135023809D01*
X152414285Y-135214285D01*
X152461904Y-135309523D01*
X152557142Y-135404761D01*
X152700000Y-135452380D01*
X152938095Y-135452380D01*
X151509523Y-134785714D02*
X151509523Y-135452380D01*
X151747619Y-134404761D02*
X151985714Y-135119047D01*
X151366666Y-135119047D01*
X133438095Y-135452380D02*
X133438095Y-134452380D01*
X133200000Y-134452380D01*
X133057142Y-134500000D01*
X132961904Y-134595238D01*
X132914285Y-134690476D01*
X132866666Y-134880952D01*
X132866666Y-135023809D01*
X132914285Y-135214285D01*
X132961904Y-135309523D01*
X133057142Y-135404761D01*
X133200000Y-135452380D01*
X133438095Y-135452380D01*
X132009523Y-134785714D02*
X132009523Y-135452380D01*
X132247619Y-134404761D02*
X132485714Y-135119047D01*
X131866666Y-135119047D01*
X113938095Y-135452380D02*
X113938095Y-134452380D01*
X113700000Y-134452380D01*
X113557142Y-134500000D01*
X113461904Y-134595238D01*
X113414285Y-134690476D01*
X113366666Y-134880952D01*
X113366666Y-135023809D01*
X113414285Y-135214285D01*
X113461904Y-135309523D01*
X113557142Y-135404761D01*
X113700000Y-135452380D01*
X113938095Y-135452380D01*
X112509523Y-134785714D02*
X112509523Y-135452380D01*
X112747619Y-134404761D02*
X112985714Y-135119047D01*
X112366666Y-135119047D01*
X94438095Y-135452380D02*
X94438095Y-134452380D01*
X94200000Y-134452380D01*
X94057142Y-134500000D01*
X93961904Y-134595238D01*
X93914285Y-134690476D01*
X93866666Y-134880952D01*
X93866666Y-135023809D01*
X93914285Y-135214285D01*
X93961904Y-135309523D01*
X94057142Y-135404761D01*
X94200000Y-135452380D01*
X94438095Y-135452380D01*
X93009523Y-134785714D02*
X93009523Y-135452380D01*
X93247619Y-134404761D02*
X93485714Y-135119047D01*
X92866666Y-135119047D01*
X172438095Y-90252380D02*
X172438095Y-89252380D01*
X172200000Y-89252380D01*
X172057142Y-89300000D01*
X171961904Y-89395238D01*
X171914285Y-89490476D01*
X171866666Y-89680952D01*
X171866666Y-89823809D01*
X171914285Y-90014285D01*
X171961904Y-90109523D01*
X172057142Y-90204761D01*
X172200000Y-90252380D01*
X172438095Y-90252380D01*
X171009523Y-89585714D02*
X171009523Y-90252380D01*
X171247619Y-89204761D02*
X171485714Y-89919047D01*
X170866666Y-89919047D01*
X152938095Y-90252380D02*
X152938095Y-89252380D01*
X152700000Y-89252380D01*
X152557142Y-89300000D01*
X152461904Y-89395238D01*
X152414285Y-89490476D01*
X152366666Y-89680952D01*
X152366666Y-89823809D01*
X152414285Y-90014285D01*
X152461904Y-90109523D01*
X152557142Y-90204761D01*
X152700000Y-90252380D01*
X152938095Y-90252380D01*
X151509523Y-89585714D02*
X151509523Y-90252380D01*
X151747619Y-89204761D02*
X151985714Y-89919047D01*
X151366666Y-89919047D01*
X133438095Y-90252380D02*
X133438095Y-89252380D01*
X133200000Y-89252380D01*
X133057142Y-89300000D01*
X132961904Y-89395238D01*
X132914285Y-89490476D01*
X132866666Y-89680952D01*
X132866666Y-89823809D01*
X132914285Y-90014285D01*
X132961904Y-90109523D01*
X133057142Y-90204761D01*
X133200000Y-90252380D01*
X133438095Y-90252380D01*
X132009523Y-89585714D02*
X132009523Y-90252380D01*
X132247619Y-89204761D02*
X132485714Y-89919047D01*
X131866666Y-89919047D01*
X113938095Y-90252380D02*
X113938095Y-89252380D01*
X113700000Y-89252380D01*
X113557142Y-89300000D01*
X113461904Y-89395238D01*
X113414285Y-89490476D01*
X113366666Y-89680952D01*
X113366666Y-89823809D01*
X113414285Y-90014285D01*
X113461904Y-90109523D01*
X113557142Y-90204761D01*
X113700000Y-90252380D01*
X113938095Y-90252380D01*
X112509523Y-89585714D02*
X112509523Y-90252380D01*
X112747619Y-89204761D02*
X112985714Y-89919047D01*
X112366666Y-89919047D01*
%TO.C,D2*%
X172438095Y-128252380D02*
X172438095Y-127252380D01*
X172200000Y-127252380D01*
X172057142Y-127300000D01*
X171961904Y-127395238D01*
X171914285Y-127490476D01*
X171866666Y-127680952D01*
X171866666Y-127823809D01*
X171914285Y-128014285D01*
X171961904Y-128109523D01*
X172057142Y-128204761D01*
X172200000Y-128252380D01*
X172438095Y-128252380D01*
X171485714Y-127347619D02*
X171438095Y-127300000D01*
X171342857Y-127252380D01*
X171104761Y-127252380D01*
X171009523Y-127300000D01*
X170961904Y-127347619D01*
X170914285Y-127442857D01*
X170914285Y-127538095D01*
X170961904Y-127680952D01*
X171533333Y-128252380D01*
X170914285Y-128252380D01*
X152938095Y-128252380D02*
X152938095Y-127252380D01*
X152700000Y-127252380D01*
X152557142Y-127300000D01*
X152461904Y-127395238D01*
X152414285Y-127490476D01*
X152366666Y-127680952D01*
X152366666Y-127823809D01*
X152414285Y-128014285D01*
X152461904Y-128109523D01*
X152557142Y-128204761D01*
X152700000Y-128252380D01*
X152938095Y-128252380D01*
X151985714Y-127347619D02*
X151938095Y-127300000D01*
X151842857Y-127252380D01*
X151604761Y-127252380D01*
X151509523Y-127300000D01*
X151461904Y-127347619D01*
X151414285Y-127442857D01*
X151414285Y-127538095D01*
X151461904Y-127680952D01*
X152033333Y-128252380D01*
X151414285Y-128252380D01*
X133438095Y-128252380D02*
X133438095Y-127252380D01*
X133200000Y-127252380D01*
X133057142Y-127300000D01*
X132961904Y-127395238D01*
X132914285Y-127490476D01*
X132866666Y-127680952D01*
X132866666Y-127823809D01*
X132914285Y-128014285D01*
X132961904Y-128109523D01*
X133057142Y-128204761D01*
X133200000Y-128252380D01*
X133438095Y-128252380D01*
X132485714Y-127347619D02*
X132438095Y-127300000D01*
X132342857Y-127252380D01*
X132104761Y-127252380D01*
X132009523Y-127300000D01*
X131961904Y-127347619D01*
X131914285Y-127442857D01*
X131914285Y-127538095D01*
X131961904Y-127680952D01*
X132533333Y-128252380D01*
X131914285Y-128252380D01*
X113938095Y-128252380D02*
X113938095Y-127252380D01*
X113700000Y-127252380D01*
X113557142Y-127300000D01*
X113461904Y-127395238D01*
X113414285Y-127490476D01*
X113366666Y-127680952D01*
X113366666Y-127823809D01*
X113414285Y-128014285D01*
X113461904Y-128109523D01*
X113557142Y-128204761D01*
X113700000Y-128252380D01*
X113938095Y-128252380D01*
X112985714Y-127347619D02*
X112938095Y-127300000D01*
X112842857Y-127252380D01*
X112604761Y-127252380D01*
X112509523Y-127300000D01*
X112461904Y-127347619D01*
X112414285Y-127442857D01*
X112414285Y-127538095D01*
X112461904Y-127680952D01*
X113033333Y-128252380D01*
X112414285Y-128252380D01*
X94438095Y-128252380D02*
X94438095Y-127252380D01*
X94200000Y-127252380D01*
X94057142Y-127300000D01*
X93961904Y-127395238D01*
X93914285Y-127490476D01*
X93866666Y-127680952D01*
X93866666Y-127823809D01*
X93914285Y-128014285D01*
X93961904Y-128109523D01*
X94057142Y-128204761D01*
X94200000Y-128252380D01*
X94438095Y-128252380D01*
X93485714Y-127347619D02*
X93438095Y-127300000D01*
X93342857Y-127252380D01*
X93104761Y-127252380D01*
X93009523Y-127300000D01*
X92961904Y-127347619D01*
X92914285Y-127442857D01*
X92914285Y-127538095D01*
X92961904Y-127680952D01*
X93533333Y-128252380D01*
X92914285Y-128252380D01*
X172438095Y-83052380D02*
X172438095Y-82052380D01*
X172200000Y-82052380D01*
X172057142Y-82100000D01*
X171961904Y-82195238D01*
X171914285Y-82290476D01*
X171866666Y-82480952D01*
X171866666Y-82623809D01*
X171914285Y-82814285D01*
X171961904Y-82909523D01*
X172057142Y-83004761D01*
X172200000Y-83052380D01*
X172438095Y-83052380D01*
X171485714Y-82147619D02*
X171438095Y-82100000D01*
X171342857Y-82052380D01*
X171104761Y-82052380D01*
X171009523Y-82100000D01*
X170961904Y-82147619D01*
X170914285Y-82242857D01*
X170914285Y-82338095D01*
X170961904Y-82480952D01*
X171533333Y-83052380D01*
X170914285Y-83052380D01*
X152938095Y-83052380D02*
X152938095Y-82052380D01*
X152700000Y-82052380D01*
X152557142Y-82100000D01*
X152461904Y-82195238D01*
X152414285Y-82290476D01*
X152366666Y-82480952D01*
X152366666Y-82623809D01*
X152414285Y-82814285D01*
X152461904Y-82909523D01*
X152557142Y-83004761D01*
X152700000Y-83052380D01*
X152938095Y-83052380D01*
X151985714Y-82147619D02*
X151938095Y-82100000D01*
X151842857Y-82052380D01*
X151604761Y-82052380D01*
X151509523Y-82100000D01*
X151461904Y-82147619D01*
X151414285Y-82242857D01*
X151414285Y-82338095D01*
X151461904Y-82480952D01*
X152033333Y-83052380D01*
X151414285Y-83052380D01*
X133438095Y-83052380D02*
X133438095Y-82052380D01*
X133200000Y-82052380D01*
X133057142Y-82100000D01*
X132961904Y-82195238D01*
X132914285Y-82290476D01*
X132866666Y-82480952D01*
X132866666Y-82623809D01*
X132914285Y-82814285D01*
X132961904Y-82909523D01*
X133057142Y-83004761D01*
X133200000Y-83052380D01*
X133438095Y-83052380D01*
X132485714Y-82147619D02*
X132438095Y-82100000D01*
X132342857Y-82052380D01*
X132104761Y-82052380D01*
X132009523Y-82100000D01*
X131961904Y-82147619D01*
X131914285Y-82242857D01*
X131914285Y-82338095D01*
X131961904Y-82480952D01*
X132533333Y-83052380D01*
X131914285Y-83052380D01*
X113938095Y-83052380D02*
X113938095Y-82052380D01*
X113700000Y-82052380D01*
X113557142Y-82100000D01*
X113461904Y-82195238D01*
X113414285Y-82290476D01*
X113366666Y-82480952D01*
X113366666Y-82623809D01*
X113414285Y-82814285D01*
X113461904Y-82909523D01*
X113557142Y-83004761D01*
X113700000Y-83052380D01*
X113938095Y-83052380D01*
X112985714Y-82147619D02*
X112938095Y-82100000D01*
X112842857Y-82052380D01*
X112604761Y-82052380D01*
X112509523Y-82100000D01*
X112461904Y-82147619D01*
X112414285Y-82242857D01*
X112414285Y-82338095D01*
X112461904Y-82480952D01*
X113033333Y-83052380D01*
X112414285Y-83052380D01*
%TO.C,D1*%
X172338095Y-114452380D02*
X172338095Y-113452380D01*
X172100000Y-113452380D01*
X171957142Y-113500000D01*
X171861904Y-113595238D01*
X171814285Y-113690476D01*
X171766666Y-113880952D01*
X171766666Y-114023809D01*
X171814285Y-114214285D01*
X171861904Y-114309523D01*
X171957142Y-114404761D01*
X172100000Y-114452380D01*
X172338095Y-114452380D01*
X170814285Y-114452380D02*
X171385714Y-114452380D01*
X171100000Y-114452380D02*
X171100000Y-113452380D01*
X171195238Y-113595238D01*
X171290476Y-113690476D01*
X171385714Y-113738095D01*
X152838095Y-114452380D02*
X152838095Y-113452380D01*
X152600000Y-113452380D01*
X152457142Y-113500000D01*
X152361904Y-113595238D01*
X152314285Y-113690476D01*
X152266666Y-113880952D01*
X152266666Y-114023809D01*
X152314285Y-114214285D01*
X152361904Y-114309523D01*
X152457142Y-114404761D01*
X152600000Y-114452380D01*
X152838095Y-114452380D01*
X151314285Y-114452380D02*
X151885714Y-114452380D01*
X151600000Y-114452380D02*
X151600000Y-113452380D01*
X151695238Y-113595238D01*
X151790476Y-113690476D01*
X151885714Y-113738095D01*
X133338095Y-114452380D02*
X133338095Y-113452380D01*
X133100000Y-113452380D01*
X132957142Y-113500000D01*
X132861904Y-113595238D01*
X132814285Y-113690476D01*
X132766666Y-113880952D01*
X132766666Y-114023809D01*
X132814285Y-114214285D01*
X132861904Y-114309523D01*
X132957142Y-114404761D01*
X133100000Y-114452380D01*
X133338095Y-114452380D01*
X131814285Y-114452380D02*
X132385714Y-114452380D01*
X132100000Y-114452380D02*
X132100000Y-113452380D01*
X132195238Y-113595238D01*
X132290476Y-113690476D01*
X132385714Y-113738095D01*
X113838095Y-114452380D02*
X113838095Y-113452380D01*
X113600000Y-113452380D01*
X113457142Y-113500000D01*
X113361904Y-113595238D01*
X113314285Y-113690476D01*
X113266666Y-113880952D01*
X113266666Y-114023809D01*
X113314285Y-114214285D01*
X113361904Y-114309523D01*
X113457142Y-114404761D01*
X113600000Y-114452380D01*
X113838095Y-114452380D01*
X112314285Y-114452380D02*
X112885714Y-114452380D01*
X112600000Y-114452380D02*
X112600000Y-113452380D01*
X112695238Y-113595238D01*
X112790476Y-113690476D01*
X112885714Y-113738095D01*
X94338095Y-114452380D02*
X94338095Y-113452380D01*
X94100000Y-113452380D01*
X93957142Y-113500000D01*
X93861904Y-113595238D01*
X93814285Y-113690476D01*
X93766666Y-113880952D01*
X93766666Y-114023809D01*
X93814285Y-114214285D01*
X93861904Y-114309523D01*
X93957142Y-114404761D01*
X94100000Y-114452380D01*
X94338095Y-114452380D01*
X92814285Y-114452380D02*
X93385714Y-114452380D01*
X93100000Y-114452380D02*
X93100000Y-113452380D01*
X93195238Y-113595238D01*
X93290476Y-113690476D01*
X93385714Y-113738095D01*
X172338095Y-69252380D02*
X172338095Y-68252380D01*
X172100000Y-68252380D01*
X171957142Y-68300000D01*
X171861904Y-68395238D01*
X171814285Y-68490476D01*
X171766666Y-68680952D01*
X171766666Y-68823809D01*
X171814285Y-69014285D01*
X171861904Y-69109523D01*
X171957142Y-69204761D01*
X172100000Y-69252380D01*
X172338095Y-69252380D01*
X170814285Y-69252380D02*
X171385714Y-69252380D01*
X171100000Y-69252380D02*
X171100000Y-68252380D01*
X171195238Y-68395238D01*
X171290476Y-68490476D01*
X171385714Y-68538095D01*
X152838095Y-69252380D02*
X152838095Y-68252380D01*
X152600000Y-68252380D01*
X152457142Y-68300000D01*
X152361904Y-68395238D01*
X152314285Y-68490476D01*
X152266666Y-68680952D01*
X152266666Y-68823809D01*
X152314285Y-69014285D01*
X152361904Y-69109523D01*
X152457142Y-69204761D01*
X152600000Y-69252380D01*
X152838095Y-69252380D01*
X151314285Y-69252380D02*
X151885714Y-69252380D01*
X151600000Y-69252380D02*
X151600000Y-68252380D01*
X151695238Y-68395238D01*
X151790476Y-68490476D01*
X151885714Y-68538095D01*
X133338095Y-69252380D02*
X133338095Y-68252380D01*
X133100000Y-68252380D01*
X132957142Y-68300000D01*
X132861904Y-68395238D01*
X132814285Y-68490476D01*
X132766666Y-68680952D01*
X132766666Y-68823809D01*
X132814285Y-69014285D01*
X132861904Y-69109523D01*
X132957142Y-69204761D01*
X133100000Y-69252380D01*
X133338095Y-69252380D01*
X131814285Y-69252380D02*
X132385714Y-69252380D01*
X132100000Y-69252380D02*
X132100000Y-68252380D01*
X132195238Y-68395238D01*
X132290476Y-68490476D01*
X132385714Y-68538095D01*
X113838095Y-69252380D02*
X113838095Y-68252380D01*
X113600000Y-68252380D01*
X113457142Y-68300000D01*
X113361904Y-68395238D01*
X113314285Y-68490476D01*
X113266666Y-68680952D01*
X113266666Y-68823809D01*
X113314285Y-69014285D01*
X113361904Y-69109523D01*
X113457142Y-69204761D01*
X113600000Y-69252380D01*
X113838095Y-69252380D01*
X112314285Y-69252380D02*
X112885714Y-69252380D01*
X112600000Y-69252380D02*
X112600000Y-68252380D01*
X112695238Y-68395238D01*
X112790476Y-68490476D01*
X112885714Y-68538095D01*
%TO.C,D3*%
X172438095Y-121252380D02*
X172438095Y-120252380D01*
X172200000Y-120252380D01*
X172057142Y-120300000D01*
X171961904Y-120395238D01*
X171914285Y-120490476D01*
X171866666Y-120680952D01*
X171866666Y-120823809D01*
X171914285Y-121014285D01*
X171961904Y-121109523D01*
X172057142Y-121204761D01*
X172200000Y-121252380D01*
X172438095Y-121252380D01*
X171533333Y-120252380D02*
X170914285Y-120252380D01*
X171247619Y-120633333D01*
X171104761Y-120633333D01*
X171009523Y-120680952D01*
X170961904Y-120728571D01*
X170914285Y-120823809D01*
X170914285Y-121061904D01*
X170961904Y-121157142D01*
X171009523Y-121204761D01*
X171104761Y-121252380D01*
X171390476Y-121252380D01*
X171485714Y-121204761D01*
X171533333Y-121157142D01*
X152938095Y-121252380D02*
X152938095Y-120252380D01*
X152700000Y-120252380D01*
X152557142Y-120300000D01*
X152461904Y-120395238D01*
X152414285Y-120490476D01*
X152366666Y-120680952D01*
X152366666Y-120823809D01*
X152414285Y-121014285D01*
X152461904Y-121109523D01*
X152557142Y-121204761D01*
X152700000Y-121252380D01*
X152938095Y-121252380D01*
X152033333Y-120252380D02*
X151414285Y-120252380D01*
X151747619Y-120633333D01*
X151604761Y-120633333D01*
X151509523Y-120680952D01*
X151461904Y-120728571D01*
X151414285Y-120823809D01*
X151414285Y-121061904D01*
X151461904Y-121157142D01*
X151509523Y-121204761D01*
X151604761Y-121252380D01*
X151890476Y-121252380D01*
X151985714Y-121204761D01*
X152033333Y-121157142D01*
X133438095Y-121252380D02*
X133438095Y-120252380D01*
X133200000Y-120252380D01*
X133057142Y-120300000D01*
X132961904Y-120395238D01*
X132914285Y-120490476D01*
X132866666Y-120680952D01*
X132866666Y-120823809D01*
X132914285Y-121014285D01*
X132961904Y-121109523D01*
X133057142Y-121204761D01*
X133200000Y-121252380D01*
X133438095Y-121252380D01*
X132533333Y-120252380D02*
X131914285Y-120252380D01*
X132247619Y-120633333D01*
X132104761Y-120633333D01*
X132009523Y-120680952D01*
X131961904Y-120728571D01*
X131914285Y-120823809D01*
X131914285Y-121061904D01*
X131961904Y-121157142D01*
X132009523Y-121204761D01*
X132104761Y-121252380D01*
X132390476Y-121252380D01*
X132485714Y-121204761D01*
X132533333Y-121157142D01*
X113938095Y-121252380D02*
X113938095Y-120252380D01*
X113700000Y-120252380D01*
X113557142Y-120300000D01*
X113461904Y-120395238D01*
X113414285Y-120490476D01*
X113366666Y-120680952D01*
X113366666Y-120823809D01*
X113414285Y-121014285D01*
X113461904Y-121109523D01*
X113557142Y-121204761D01*
X113700000Y-121252380D01*
X113938095Y-121252380D01*
X113033333Y-120252380D02*
X112414285Y-120252380D01*
X112747619Y-120633333D01*
X112604761Y-120633333D01*
X112509523Y-120680952D01*
X112461904Y-120728571D01*
X112414285Y-120823809D01*
X112414285Y-121061904D01*
X112461904Y-121157142D01*
X112509523Y-121204761D01*
X112604761Y-121252380D01*
X112890476Y-121252380D01*
X112985714Y-121204761D01*
X113033333Y-121157142D01*
X94438095Y-121252380D02*
X94438095Y-120252380D01*
X94200000Y-120252380D01*
X94057142Y-120300000D01*
X93961904Y-120395238D01*
X93914285Y-120490476D01*
X93866666Y-120680952D01*
X93866666Y-120823809D01*
X93914285Y-121014285D01*
X93961904Y-121109523D01*
X94057142Y-121204761D01*
X94200000Y-121252380D01*
X94438095Y-121252380D01*
X93533333Y-120252380D02*
X92914285Y-120252380D01*
X93247619Y-120633333D01*
X93104761Y-120633333D01*
X93009523Y-120680952D01*
X92961904Y-120728571D01*
X92914285Y-120823809D01*
X92914285Y-121061904D01*
X92961904Y-121157142D01*
X93009523Y-121204761D01*
X93104761Y-121252380D01*
X93390476Y-121252380D01*
X93485714Y-121204761D01*
X93533333Y-121157142D01*
X172438095Y-76052380D02*
X172438095Y-75052380D01*
X172200000Y-75052380D01*
X172057142Y-75100000D01*
X171961904Y-75195238D01*
X171914285Y-75290476D01*
X171866666Y-75480952D01*
X171866666Y-75623809D01*
X171914285Y-75814285D01*
X171961904Y-75909523D01*
X172057142Y-76004761D01*
X172200000Y-76052380D01*
X172438095Y-76052380D01*
X171533333Y-75052380D02*
X170914285Y-75052380D01*
X171247619Y-75433333D01*
X171104761Y-75433333D01*
X171009523Y-75480952D01*
X170961904Y-75528571D01*
X170914285Y-75623809D01*
X170914285Y-75861904D01*
X170961904Y-75957142D01*
X171009523Y-76004761D01*
X171104761Y-76052380D01*
X171390476Y-76052380D01*
X171485714Y-76004761D01*
X171533333Y-75957142D01*
X152938095Y-76052380D02*
X152938095Y-75052380D01*
X152700000Y-75052380D01*
X152557142Y-75100000D01*
X152461904Y-75195238D01*
X152414285Y-75290476D01*
X152366666Y-75480952D01*
X152366666Y-75623809D01*
X152414285Y-75814285D01*
X152461904Y-75909523D01*
X152557142Y-76004761D01*
X152700000Y-76052380D01*
X152938095Y-76052380D01*
X152033333Y-75052380D02*
X151414285Y-75052380D01*
X151747619Y-75433333D01*
X151604761Y-75433333D01*
X151509523Y-75480952D01*
X151461904Y-75528571D01*
X151414285Y-75623809D01*
X151414285Y-75861904D01*
X151461904Y-75957142D01*
X151509523Y-76004761D01*
X151604761Y-76052380D01*
X151890476Y-76052380D01*
X151985714Y-76004761D01*
X152033333Y-75957142D01*
X133438095Y-76052380D02*
X133438095Y-75052380D01*
X133200000Y-75052380D01*
X133057142Y-75100000D01*
X132961904Y-75195238D01*
X132914285Y-75290476D01*
X132866666Y-75480952D01*
X132866666Y-75623809D01*
X132914285Y-75814285D01*
X132961904Y-75909523D01*
X133057142Y-76004761D01*
X133200000Y-76052380D01*
X133438095Y-76052380D01*
X132533333Y-75052380D02*
X131914285Y-75052380D01*
X132247619Y-75433333D01*
X132104761Y-75433333D01*
X132009523Y-75480952D01*
X131961904Y-75528571D01*
X131914285Y-75623809D01*
X131914285Y-75861904D01*
X131961904Y-75957142D01*
X132009523Y-76004761D01*
X132104761Y-76052380D01*
X132390476Y-76052380D01*
X132485714Y-76004761D01*
X132533333Y-75957142D01*
X113938095Y-76052380D02*
X113938095Y-75052380D01*
X113700000Y-75052380D01*
X113557142Y-75100000D01*
X113461904Y-75195238D01*
X113414285Y-75290476D01*
X113366666Y-75480952D01*
X113366666Y-75623809D01*
X113414285Y-75814285D01*
X113461904Y-75909523D01*
X113557142Y-76004761D01*
X113700000Y-76052380D01*
X113938095Y-76052380D01*
X113033333Y-75052380D02*
X112414285Y-75052380D01*
X112747619Y-75433333D01*
X112604761Y-75433333D01*
X112509523Y-75480952D01*
X112461904Y-75528571D01*
X112414285Y-75623809D01*
X112414285Y-75861904D01*
X112461904Y-75957142D01*
X112509523Y-76004761D01*
X112604761Y-76052380D01*
X112890476Y-76052380D01*
X112985714Y-76004761D01*
X113033333Y-75957142D01*
%TO.C,D4*%
X94438095Y-90252380D02*
X94438095Y-89252380D01*
X94200000Y-89252380D01*
X94057142Y-89300000D01*
X93961904Y-89395238D01*
X93914285Y-89490476D01*
X93866666Y-89680952D01*
X93866666Y-89823809D01*
X93914285Y-90014285D01*
X93961904Y-90109523D01*
X94057142Y-90204761D01*
X94200000Y-90252380D01*
X94438095Y-90252380D01*
X93009523Y-89585714D02*
X93009523Y-90252380D01*
X93247619Y-89204761D02*
X93485714Y-89919047D01*
X92866666Y-89919047D01*
%TO.C,D3*%
X94438095Y-76052380D02*
X94438095Y-75052380D01*
X94200000Y-75052380D01*
X94057142Y-75100000D01*
X93961904Y-75195238D01*
X93914285Y-75290476D01*
X93866666Y-75480952D01*
X93866666Y-75623809D01*
X93914285Y-75814285D01*
X93961904Y-75909523D01*
X94057142Y-76004761D01*
X94200000Y-76052380D01*
X94438095Y-76052380D01*
X93533333Y-75052380D02*
X92914285Y-75052380D01*
X93247619Y-75433333D01*
X93104761Y-75433333D01*
X93009523Y-75480952D01*
X92961904Y-75528571D01*
X92914285Y-75623809D01*
X92914285Y-75861904D01*
X92961904Y-75957142D01*
X93009523Y-76004761D01*
X93104761Y-76052380D01*
X93390476Y-76052380D01*
X93485714Y-76004761D01*
X93533333Y-75957142D01*
%TO.C,D2*%
X94438095Y-83052380D02*
X94438095Y-82052380D01*
X94200000Y-82052380D01*
X94057142Y-82100000D01*
X93961904Y-82195238D01*
X93914285Y-82290476D01*
X93866666Y-82480952D01*
X93866666Y-82623809D01*
X93914285Y-82814285D01*
X93961904Y-82909523D01*
X94057142Y-83004761D01*
X94200000Y-83052380D01*
X94438095Y-83052380D01*
X93485714Y-82147619D02*
X93438095Y-82100000D01*
X93342857Y-82052380D01*
X93104761Y-82052380D01*
X93009523Y-82100000D01*
X92961904Y-82147619D01*
X92914285Y-82242857D01*
X92914285Y-82338095D01*
X92961904Y-82480952D01*
X93533333Y-83052380D01*
X92914285Y-83052380D01*
%TO.C,D1*%
X94338095Y-69252380D02*
X94338095Y-68252380D01*
X94100000Y-68252380D01*
X93957142Y-68300000D01*
X93861904Y-68395238D01*
X93814285Y-68490476D01*
X93766666Y-68680952D01*
X93766666Y-68823809D01*
X93814285Y-69014285D01*
X93861904Y-69109523D01*
X93957142Y-69204761D01*
X94100000Y-69252380D01*
X94338095Y-69252380D01*
X92814285Y-69252380D02*
X93385714Y-69252380D01*
X93100000Y-69252380D02*
X93100000Y-68252380D01*
X93195238Y-68395238D01*
X93290476Y-68490476D01*
X93385714Y-68538095D01*
%TD*%
M02*
