%TF.GenerationSoftware,KiCad,Pcbnew,(5.1.9)-1*%
%TF.CreationDate,2022-04-08T02:00:15+08:00*%
%TF.ProjectId,LED_panelize,4c45445f-7061-46e6-956c-697a652e6b69,rev?*%
%TF.SameCoordinates,Original*%
%TF.FileFunction,Other,ECO2*%
%FSLAX46Y46*%
G04 Gerber Fmt 4.6, Leading zero omitted, Abs format (unit mm)*
G04 Created by KiCad (PCBNEW (5.1.9)-1) date 2022-04-08 02:00:15*
%MOMM*%
%LPD*%
G01*
G04 APERTURE LIST*
%ADD10C,0.150000*%
G04 APERTURE END LIST*
D10*
X146800000Y-42800000D02*
X146800000Y-36300000D01*
X166200000Y-42800000D02*
X165300000Y-41900000D01*
X146800000Y-42800000D02*
X145900000Y-41900000D01*
X166200000Y-42800000D02*
X166200000Y-36300000D01*
X149695238Y-36400000D02*
X147695238Y-37066666D01*
X149695238Y-37733333D01*
X147790476Y-39257142D02*
X147695238Y-39066666D01*
X147695238Y-38685714D01*
X147790476Y-38495238D01*
X147885714Y-38400000D01*
X148076190Y-38304761D01*
X148647619Y-38304761D01*
X148838095Y-38400000D01*
X148933333Y-38495238D01*
X149028571Y-38685714D01*
X149028571Y-39066666D01*
X148933333Y-39257142D01*
X149028571Y-40971428D02*
X147695238Y-40971428D01*
X149028571Y-40114285D02*
X147980952Y-40114285D01*
X147790476Y-40209523D01*
X147695238Y-40400000D01*
X147695238Y-40685714D01*
X147790476Y-40876190D01*
X147885714Y-40971428D01*
X149028571Y-41638095D02*
X149028571Y-42400000D01*
X149695238Y-41923809D02*
X147980952Y-41923809D01*
X147790476Y-42019047D01*
X147695238Y-42209523D01*
X147695238Y-42400000D01*
X169095238Y-36400000D02*
X167095238Y-37066666D01*
X169095238Y-37733333D01*
X167190476Y-39257142D02*
X167095238Y-39066666D01*
X167095238Y-38685714D01*
X167190476Y-38495238D01*
X167285714Y-38400000D01*
X167476190Y-38304761D01*
X168047619Y-38304761D01*
X168238095Y-38400000D01*
X168333333Y-38495238D01*
X168428571Y-38685714D01*
X168428571Y-39066666D01*
X168333333Y-39257142D01*
X168428571Y-40971428D02*
X167095238Y-40971428D01*
X168428571Y-40114285D02*
X167380952Y-40114285D01*
X167190476Y-40209523D01*
X167095238Y-40400000D01*
X167095238Y-40685714D01*
X167190476Y-40876190D01*
X167285714Y-40971428D01*
X168428571Y-41638095D02*
X168428571Y-42400000D01*
X169095238Y-41923809D02*
X167380952Y-41923809D01*
X167190476Y-42019047D01*
X167095238Y-42209523D01*
X167095238Y-42400000D01*
X127300000Y-42600000D02*
X127300000Y-36100000D01*
X127300000Y-42600000D02*
X126400000Y-41700000D01*
X130195238Y-36200000D02*
X128195238Y-36866666D01*
X130195238Y-37533333D01*
X128290476Y-39057142D02*
X128195238Y-38866666D01*
X128195238Y-38485714D01*
X128290476Y-38295238D01*
X128385714Y-38200000D01*
X128576190Y-38104761D01*
X129147619Y-38104761D01*
X129338095Y-38200000D01*
X129433333Y-38295238D01*
X129528571Y-38485714D01*
X129528571Y-38866666D01*
X129433333Y-39057142D01*
X129528571Y-40771428D02*
X128195238Y-40771428D01*
X129528571Y-39914285D02*
X128480952Y-39914285D01*
X128290476Y-40009523D01*
X128195238Y-40200000D01*
X128195238Y-40485714D01*
X128290476Y-40676190D01*
X128385714Y-40771428D01*
X129528571Y-41438095D02*
X129528571Y-42200000D01*
X130195238Y-41723809D02*
X128480952Y-41723809D01*
X128290476Y-41819047D01*
X128195238Y-42009523D01*
X128195238Y-42200000D01*
X107900000Y-42600000D02*
X107900000Y-36100000D01*
X107900000Y-42600000D02*
X107000000Y-41700000D01*
X110795238Y-36200000D02*
X108795238Y-36866666D01*
X110795238Y-37533333D01*
X108890476Y-39057142D02*
X108795238Y-38866666D01*
X108795238Y-38485714D01*
X108890476Y-38295238D01*
X108985714Y-38200000D01*
X109176190Y-38104761D01*
X109747619Y-38104761D01*
X109938095Y-38200000D01*
X110033333Y-38295238D01*
X110128571Y-38485714D01*
X110128571Y-38866666D01*
X110033333Y-39057142D01*
X110128571Y-40771428D02*
X108795238Y-40771428D01*
X110128571Y-39914285D02*
X109080952Y-39914285D01*
X108890476Y-40009523D01*
X108795238Y-40200000D01*
X108795238Y-40485714D01*
X108890476Y-40676190D01*
X108985714Y-40771428D01*
X110128571Y-41438095D02*
X110128571Y-42200000D01*
X110795238Y-41723809D02*
X109080952Y-41723809D01*
X108890476Y-41819047D01*
X108795238Y-42009523D01*
X108795238Y-42200000D01*
X81100000Y-89004761D02*
X81766666Y-91004761D01*
X82433333Y-89004761D01*
X83957142Y-90909523D02*
X83766666Y-91004761D01*
X83385714Y-91004761D01*
X83195238Y-90909523D01*
X83100000Y-90814285D01*
X83004761Y-90623809D01*
X83004761Y-90052380D01*
X83100000Y-89861904D01*
X83195238Y-89766666D01*
X83385714Y-89671428D01*
X83766666Y-89671428D01*
X83957142Y-89766666D01*
X85671428Y-89671428D02*
X85671428Y-91004761D01*
X84814285Y-89671428D02*
X84814285Y-90719047D01*
X84909523Y-90909523D01*
X85100000Y-91004761D01*
X85385714Y-91004761D01*
X85576190Y-90909523D01*
X85671428Y-90814285D01*
X86338095Y-89671428D02*
X87100000Y-89671428D01*
X86623809Y-89004761D02*
X86623809Y-90719047D01*
X86719047Y-90909523D01*
X86909523Y-91004761D01*
X87100000Y-91004761D01*
X87500000Y-91900000D02*
X86600000Y-92800000D01*
X87500000Y-91900000D02*
X81000000Y-91900000D01*
M02*
